SplineFontDB: 3.2
FontName: FunctionalCodeaholicFont
FullName: Functional Codeaholic
FamilyName: Functional Codeaholic
Weight: Regular
Copyright: Copyright 2022 Functional Codeaholics
Version: 1.1
ItalicAngle: 9
UnderlinePosition: 0
UnderlineWidth: 0
Ascent: 860
Descent: 140
InvalidEm: 0
LayerCount: 2
Layer: 0 1 "Back" 1
Layer: 1 1 "Fore" 0
XUID: [1021 103 -48442099 13792]
StyleMap: 0x0040
FSType: 0
OS2Version: 1
OS2_WeightWidthSlopeOnly: 0
OS2_UseTypoMetrics: 0
CreationTime: 1454443961
ModificationTime: 1664231080
PfmFamily: 81
TTFWeight: 400
TTFWidth: 5
LineGap: 200
VLineGap: 0
Panose: 0 0 0 0 0 0 0 0 0 0
OS2TypoAscent: 860
OS2TypoAOffset: 0
OS2TypoDescent: -140
OS2TypoDOffset: 0
OS2TypoLinegap: 200
OS2WinAscent: 1614
OS2WinAOffset: 0
OS2WinDescent: 894
OS2WinDOffset: 0
HheadAscent: 860
HheadAOffset: 0
HheadDescent: -140
HheadDOffset: 0
OS2SubXSize: 650
OS2SubYSize: 600
OS2SubXOff: 0
OS2SubYOff: 75
OS2SupXSize: 650
OS2SupYSize: 600
OS2SupXOff: 0
OS2SupYOff: 350
OS2StrikeYSize: 0
OS2StrikeYPos: 300
OS2CapHeight: 720
OS2XHeight: 500
OS2Vendor: 'fcff'
OS2CodePages: 20000193.00000000
OS2UnicodeRanges: 20000007.00000001.00000000.00000000
Lookup: 1 0 0 "'locl' Localized Forms in Latin lookup 0" { "'locl' Localized Forms in Latin lookup 0 subtable"  } ['locl' ('latn' <'ROM ' > ) ]
Lookup: 6 0 0 "'locl' Localized Forms in Latin lookup 1" { "'locl' Localized Forms in Latin lookup 1 contextual 0"  "'locl' Localized Forms in Latin lookup 1 contextual 1"  } ['locl' ('latn' <'CAT ' > ) ]
Lookup: 6 0 0 "'ordn' Ordinals in Latin lookup 2" { "'ordn' Ordinals in Latin lookup 2 contextual 0"  "'ordn' Ordinals in Latin lookup 2 contextual 1"  } ['ordn' ('DFLT' <'dflt' > 'latn' <'CAT ' 'ROM ' 'dflt' > ) ]
Lookup: 1 0 0 "'sups' Superscript in Latin lookup 3" { "'sups' Superscript in Latin lookup 3 subtable" ("superior") } ['sups' ('DFLT' <'dflt' > 'latn' <'CAT ' 'ROM ' 'dflt' > ) ]

StartChar: .notdef
Encoding: 65536 -1 0
Width: 1000
GlyphClass: 1
Flags: W
LayerCount: 2
Fore
SplineSet
845 705 m 1,0,-1
 155 705 l 1,1,-1
 155 15 l 1,2,-1
 845 15 l 1,3,-1
 845 705 l 1,0,-1
95 -45 m 1,4,-1
 95 765 l 1,5,-1
 905 765 l 1,6,-1
 905 -45 l 1,7,-1
 95 -45 l 1,4,-1
EndSplineSet
Position2: "'ss11' Style Set 11 in Latin lookup 1 per glyph data 21" dx=140 dy=0 dh=280 dv=0
EndChar

StartChar: A
Encoding: 65 65 2
Width: 730
GlyphClass: 1
Flags: W
LayerCount: 2
Fore
SplineSet
585 65 m 1,0,-1
 545 65 l 1,1,-1
 535 65 l 1,2,-1
 535 237 l 1,3,-1
 195 237 l 1,4,-1
 195 65 l 1,5,-1
 185 65 l 1,6,-1
 145 65 l 1,7,-1
 135 65 l 1,8,-1
 135 328 l 2,9,10
 135 378.25 135 378.25 152 425 c 1,11,-1
 216 589 l 2,12,13
 227 617 227 617 241 636 c 128,-1,14
 255 655 255 655 289 655 c 2,15,-1
 437 655 l 2,16,17
 470 655 470 655 483.5 636 c 128,-1,18
 497 617 497 617 509 588 c 2,19,-1
 578 425 l 1,20,21
 595 378.25 595 378.25 595 328 c 2,22,-1
 595 65 l 1,23,-1
 585 65 l 1,0,-1
338.999995164 595 m 2,24,25
 308.999999033 595 308.999999033 595 297 577.5 c 128,-1,26
 285 560 285 560 275 535 c 2,27,-1
 211 371 l 1,28,29
 197.920195981 333.629131375 197.920195981 333.629131375 195.588180197 297 c 1,30,-1
 534.411819803 297 l 1,31,32
 532.079804019 333.629131375 532.079804019 333.629131375 519 371 c 1,33,-1
 450 534 l 2,34,35
 439 560 439 560 427 577.5 c 128,-1,36
 415 595 415 595 387 595 c 2,37,-1
 338.999995164 595 l 2,24,25
EndSplineSet
Substitution2: "'ss12' Style Set 12 in Latin lookup 26 subtable" A.v
Substitution2: "'ss01' Style Set 1 in Latin lookup 22 subtable" A.v
Substitution2: "'vert' Vertical Alternates in Latin lookup 21 subtable" A.v
Substitution2: "'ss02' Style Set 2 in Latin lookup 5 subtable" A.salt
Position2: "'ss11' Style Set 11 in Latin lookup 1 per glyph data 46" dx=275 dy=0 dh=550 dv=0
EndChar

StartChar: Aring
Encoding: 197 197 8
Width: 730
GlyphClass: 1
Flags: W
LayerCount: 2
Fore
SplineSet
200 830 m 2,0,1
 200 852 200 852 205.5 871 c 128,-1,2
 211 890 211 890 226 903 c 0,3,4
 258.307692308 931 258.307692308 931 341 931 c 2,5,-1
 391 931 l 2,6,7
 480 931 480 931 507 902.5 c 128,-1,8
 534 874 534 874 534 830 c 2,9,-1
 534 735 l 2,10,11
 534 690 534 690 507 662.5 c 0,12,13
 496.067775872 651.365327277 496.067775872 651.365327277 474.971164211 644.739052251 c 1,14,15
 479.920891639 641.037263619 479.920891639 641.037263619 483.5 636 c 0,16,17
 497 617 497 617 509 588 c 2,18,-1
 578 425 l 1,19,20
 595 378.25 595 378.25 595 328 c 2,21,-1
 595 65 l 1,22,-1
 585 65 l 1,23,-1
 545 65 l 1,24,-1
 535 65 l 1,25,-1
 535 237 l 1,26,-1
 195 237 l 1,27,-1
 195 65 l 1,28,-1
 185 65 l 1,29,-1
 145 65 l 1,30,-1
 135 65 l 1,31,-1
 135 328 l 2,32,33
 135 378.25 135 378.25 152 425 c 1,34,-1
 216 589 l 2,35,36
 227 617 227 617 241 636 c 0,37,38
 245.85051431 642.582840849 245.85051431 642.582840849 253.101792811 646.884955717 c 1,39,40
 215.471815165 660.958439901 215.471815165 660.958439901 205.5 694.5 c 0,41,42
 200 713 200 713 200 735 c 2,43,-1
 200 830 l 2,0,1
338.999995164 595 m 2,44,45
 308.999999033 595 308.999999033 595 297 577.5 c 128,-1,46
 285 560 285 560 275 535 c 2,47,-1
 211 371 l 1,48,49
 197.920195981 333.629131375 197.920195981 333.629131375 195.588180197 297 c 1,50,-1
 534.411819803 297 l 1,51,52
 532.079804019 333.629131375 532.079804019 333.629131375 519 371 c 1,53,-1
 450 534 l 2,54,55
 439 560 439 560 427 577.5 c 128,-1,56
 415 595 415 595 387 595 c 2,57,-1
 338.999995164 595 l 2,44,45
473.97565673 782.470702845 m 0,58,59
 473.196792701 821.757744417 473.196792701 821.757744417 447.5 846 c 0,60,61
 425.36345952 866.883528755 425.36345952 866.883528755 365.894895243 870.322186441 c 1,62,63
 306.75856996 866.924900681 306.75856996 866.924900681 285.5 846.5 c 0,64,65
 260.763787239 822.733834798 260.763787239 822.733834798 260.022875806 782.500304946 c 0,66,67
 260.763739116 742.281188085 260.763739116 742.281188085 285.5 719 c 0,68,69
 306.779915976 698.971843788 306.779915976 698.971843788 366.013692622 695.657314215 c 1,70,71
 425.385576989 698.971843386 425.385576989 698.971843386 447.5 719 c 0,72,73
 473.196850933 742.272619713 473.196850933 742.272619713 473.97565673 782.470702845 c 0,58,59
EndSplineSet
Substitution2: "'ss12' Style Set 12 in Latin lookup 26 subtable" Aring.v
Substitution2: "'ss01' Style Set 1 in Latin lookup 22 subtable" Aring.v
Substitution2: "'vert' Vertical Alternates in Latin lookup 21 subtable" Aring.v
Substitution2: "'ss02' Style Set 2 in Latin lookup 5 subtable" Aring.salt
Position2: "'ss11' Style Set 11 in Latin lookup 1 per glyph data 46" dx=275 dy=0 dh=550 dv=0
EndChar

StartChar: Aogonek
Encoding: 260 260 11
Width: 730
GlyphClass: 1
Flags: W
LayerCount: 2
Fore
SplineSet
611 -131 m 1,0,-1
 611 -141 l 1,1,-1
 537 -141 l 2,2,3
 500 -141 500 -141 490 -122 c 0,4,5
 483.75 -110.125 483.75 -110.125 483.75 -91.21875 c 2,6,-1
 483.75 -41.21875 l 2,7,8
 483.75 -29.875 483.75 -29.875 486 -16 c 2,9,-1
 498 67 l 2,10,11
 502 91 502 91 508 101 c 128,-1,12
 514 111 514 111 535 123 c 1,13,-1
 535 237 l 1,14,-1
 195 237 l 1,15,-1
 195 65 l 1,16,-1
 185 65 l 1,17,-1
 145 65 l 1,18,-1
 135 65 l 1,19,-1
 135 328 l 2,20,21
 135 378.25 135 378.25 152 425 c 1,22,-1
 216 589 l 2,23,24
 227 617 227 617 241 636 c 128,-1,25
 255 655 255 655 289 655 c 2,26,-1
 437 655 l 2,27,28
 470 655 470 655 483.5 636 c 128,-1,29
 497 617 497 617 509 588 c 2,30,-1
 578 425 l 1,31,32
 595 378.25 595 378.25 595 328 c 2,33,-1
 595 65 l 1,34,-1
 591 65 l 1,35,36
 572 55 572 55 566.5 47 c 128,-1,37
 561 39 561 39 558 17 c 2,38,-1
 547.206973145 -59.4506068871 l 1,39,40
 547.988687849 -62.1161927865 547.988687849 -62.1161927865 549 -64.5 c 0,41,42
 556 -81 556 -81 587 -81 c 2,43,-1
 611 -81 l 1,44,-1
 611 -91 l 1,45,-1
 611 -131 l 1,0,-1
338.999995164 595 m 2,46,47
 308.999999033 595 308.999999033 595 297 577.5 c 128,-1,48
 285 560 285 560 275 535 c 2,49,-1
 211 371 l 1,50,51
 197.920195981 333.629131375 197.920195981 333.629131375 195.588180197 297 c 1,52,-1
 534.411819803 297 l 1,53,54
 532.079804019 333.629131375 532.079804019 333.629131375 519 371 c 1,55,-1
 450 534 l 2,56,57
 439 560 439 560 427 577.5 c 128,-1,58
 415 595 415 595 387 595 c 2,59,-1
 338.999995164 595 l 2,46,47
EndSplineSet
Substitution2: "'ss12' Style Set 12 in Latin lookup 26 subtable" Aogonek.v
Substitution2: "'ss01' Style Set 1 in Latin lookup 22 subtable" Aogonek.v
Substitution2: "'vert' Vertical Alternates in Latin lookup 21 subtable" Aogonek.v
Substitution2: "'ss02' Style Set 2 in Latin lookup 5 subtable" Aogonek.salt
Position2: "'ss11' Style Set 11 in Latin lookup 1 per glyph data 46" dx=275 dy=0 dh=550 dv=0
EndChar

StartChar: B
Encoding: 66 66 12
Width: 725
GlyphClass: 1
Flags: W
LayerCount: 2
Fore
SplineSet
545 229 m 2,0,1
 545 274 545 274 522.5 304 c 128,-1,2
 500 334 500 334 425 334 c 2,3,-1
 215 334 l 1,4,-1
 215 125 l 1,5,-1
 424.000003613 125 l 2,6,7
 499.000000554 125 499.000000554 125 522 149.5 c 128,-1,8
 545 174 545 174 545 215 c 2,9,-1
 545 229 l 2,0,1
424.000003613 125 m 1,10,-1
 474 125 l 1,11,-1
 424.000003613 125 l 1,10,-1
358 595 m 2,12,-1
 215 595 l 1,13,-1
 215 394 l 1,14,-1
 358 394 l 2,15,16
 432 394 432 394 459.5 421.5 c 0,17,18
 472 434 472 434 475.5 450.5 c 128,-1,19
 479 467 479 467 479 485 c 2,20,-1
 479 499.000003977 l 2,21,22
 479 539.000001392 479 539.000001392 456 567 c 128,-1,23
 433 595 433 595 358 595 c 2,12,-1
605 279 m 2,24,-1
 605 165 l 2,25,26
 605 143 605 143 600 124.5 c 128,-1,27
 595 106 595 106 581.5 93 c 0,28,29
 552.423076923 65 552.423076923 65 474 65 c 2,30,-1
 155 65 l 1,31,-1
 155 655 l 1,32,-1
 408 655 l 2,33,34
 484.586206897 655 484.586206897 655 515 623.5 c 0,35,36
 529 609 529 609 534 590 c 128,-1,37
 539 571 539 571 539 549 c 2,38,-1
 539 435 l 2,39,40
 539 409.956967759 539 409.956967759 531.683209589 388.398121428 c 1,41,42
 564.884353745 380.449465497 564.884353745 380.449465497 582 361.5 c 0,43,44
 596 346 596 346 600.5 325 c 128,-1,45
 605 304 605 304 605 279 c 2,24,-1
EndSplineSet
Substitution2: "'ss12' Style Set 12 in Latin lookup 26 subtable" B.v
Substitution2: "'ss01' Style Set 1 in Latin lookup 22 subtable" B.v
Substitution2: "'vert' Vertical Alternates in Latin lookup 21 subtable" B.v
Position2: "'ss11' Style Set 11 in Latin lookup 1 per glyph data 48" dx=278 dy=0 dh=555 dv=0
EndChar

StartChar: C
Encoding: 67 67 13
Width: 628
GlyphClass: 1
Flags: W
LayerCount: 2
Fore
SplineSet
518 75 m 1,0,-1
 518 65 l 1,1,-1
 301 65 l 2,2,3
 204 65 204 65 172.5 95 c 128,-1,4
 141 125 141 125 141 194 c 2,5,-1
 141 524 l 2,6,7
 141 595 141 595 173 625 c 128,-1,8
 205 655 205 655 301 655 c 2,9,-1
 518 655 l 1,10,-1
 518 645 l 1,11,-1
 518 605 l 1,12,-1
 518 595 l 1,13,-1
 351 595 l 2,14,15
 263 595 263 595 232 567.5 c 128,-1,16
 201 540 201 540 201 474 c 2,17,-1
 201 244 l 2,18,19
 201 179 201 179 231 152 c 128,-1,20
 261 125 261 125 351 125 c 2,21,-1
 518 125 l 1,22,-1
 518 115 l 1,23,-1
 518 75 l 1,0,-1
EndSplineSet
Substitution2: "'ss12' Style Set 12 in Latin lookup 26 subtable" C.v
Substitution2: "'ss01' Style Set 1 in Latin lookup 22 subtable" C.v
Substitution2: "'vert' Vertical Alternates in Latin lookup 21 subtable" C.v
Position2: "'ss11' Style Set 11 in Latin lookup 1 per glyph data 80" dx=326 dy=0 dh=652 dv=0
EndChar

StartChar: Ccedilla
Encoding: 199 199 14
Width: 628
GlyphClass: 1
Flags: W
LayerCount: 2
Fore
SplineSet
518 115 m 1,0,-1
 518 75 l 1,1,-1
 518 65 l 1,2,-1
 430 65 l 1,3,-1
 384 -61 l 1,4,-1
 374 -61 l 1,5,-1
 334 -61 l 1,6,-1
 324 -61 l 1,7,-1
 306.142857143 -61 l 1,8,-1
 351.142857143 65 l 1,9,-1
 301 65 l 2,10,11
 204 65 204 65 172.5 95 c 128,-1,12
 141 125 141 125 141 194 c 2,13,-1
 141 524 l 2,14,15
 141 595 141 595 173 625 c 128,-1,16
 205 655 205 655 301 655 c 2,17,-1
 518 655 l 1,18,-1
 518 645 l 1,19,-1
 518 605 l 1,20,-1
 518 595 l 1,21,-1
 351 595 l 2,22,23
 263 595 263 595 232 567.5 c 128,-1,24
 201 540 201 540 201 474 c 2,25,-1
 201 244 l 2,26,27
 201 179 201 179 231 152 c 128,-1,28
 261 125 261 125 351 125 c 2,29,-1
 518 125 l 1,30,-1
 518 115 l 1,0,-1
EndSplineSet
Substitution2: "'ss12' Style Set 12 in Latin lookup 26 subtable" Ccedilla.v
Substitution2: "'ss01' Style Set 1 in Latin lookup 22 subtable" Ccedilla.v
Substitution2: "'vert' Vertical Alternates in Latin lookup 21 subtable" Ccedilla.v
Position2: "'ss11' Style Set 11 in Latin lookup 1 per glyph data 80" dx=326 dy=0 dh=652 dv=0
EndChar

StartChar: D
Encoding: 68 68 19
Width: 746
GlyphClass: 1
Flags: W
LayerCount: 2
Fore
SplineSet
545 466 m 2,0,1
 545 493 545 493 539 517 c 128,-1,2
 533 541 533 541 517 558 c 0,3,4
 482.176470588 595 482.176470588 595 395 595 c 2,5,-1
 213 595 l 1,6,-1
 213 125 l 1,7,-1
 395.000003713 125 l 2,8,9
 483.575757576 125 483.575757576 125 518 160.5 c 0,10,11
 534 177 534 177 539.5 200.5 c 128,-1,12
 545 224 545 224 545 251 c 2,13,-1
 545 466 l 2,0,1
395.000003713 125 m 1,14,-1
 445 125 l 1,15,-1
 395.000003713 125 l 1,14,-1
153 65 m 1,16,-1
 153 655 l 1,17,-1
 445 655 l 2,18,19
 579.117647059 655 579.117647059 655 599 570.5 c 0,20,21
 605 545 605 545 605 516 c 2,22,-1
 605 201 l 2,23,24
 605 172 605 172 599.5 147 c 128,-1,25
 594 122 594 122 577 104 c 0,26,27
 540.166666667 65 540.166666667 65 445 65 c 2,28,-1
 153 65 l 1,16,-1
EndSplineSet
Substitution2: "'ss12' Style Set 12 in Latin lookup 26 subtable" D.v
Substitution2: "'ss01' Style Set 1 in Latin lookup 22 subtable" D.v
Substitution2: "'vert' Vertical Alternates in Latin lookup 21 subtable" D.v
Position2: "'ss11' Style Set 11 in Latin lookup 1 per glyph data 38" dx=267 dy=0 dh=534 dv=0
EndChar

StartChar: E
Encoding: 69 69 21
Width: 654
GlyphClass: 1
Flags: W
LayerCount: 2
Fore
SplineSet
540 75 m 1,0,-1
 540 65 l 1,1,-1
 153 65 l 1,2,-1
 153 655 l 1,3,-1
 540 655 l 1,4,-1
 540 645 l 1,5,-1
 540 605 l 1,6,-1
 540 595 l 1,7,-1
 213 595 l 1,8,-1
 213 394 l 1,9,-1
 459 394 l 1,10,-1
 459 384 l 1,11,-1
 459 344 l 1,12,-1
 459 334 l 1,13,-1
 213 334 l 1,14,-1
 213 125 l 1,15,-1
 540 125 l 1,16,-1
 540 115 l 1,17,-1
 540 75 l 1,0,-1
EndSplineSet
Substitution2: "'ss12' Style Set 12 in Latin lookup 26 subtable" E.v
Substitution2: "'ss01' Style Set 1 in Latin lookup 22 subtable" E.v
Substitution2: "'vert' Vertical Alternates in Latin lookup 21 subtable" E.v
Substitution2: "'ss03' Style Set 3 in Latin lookup 11 subtable" E.salt
Position2: "'ss11' Style Set 11 in Latin lookup 1 per glyph data 70" dx=313 dy=0 dh=626 dv=0
EndChar

StartChar: Eogonek
Encoding: 280 280 29
Width: 654
GlyphClass: 1
Flags: W
LayerCount: 2
Fore
SplineSet
540 -131 m 1,0,-1
 540 -141 l 1,1,-1
 466 -141 l 2,2,3
 429 -141 429 -141 419 -122 c 0,4,5
 412.75 -110.125 412.75 -110.125 412.75 -91.21875 c 2,6,-1
 412.75 -41.21875 l 2,7,8
 412.75 -29.875 412.75 -29.875 415 -16 c 2,9,-1
 426.710843373 65 l 1,10,-1
 153 65 l 1,11,-1
 153 655 l 1,12,-1
 540 655 l 1,13,-1
 540 645 l 1,14,-1
 540 605 l 1,15,-1
 540 595 l 1,16,-1
 213 595 l 1,17,-1
 213 394 l 1,18,-1
 459 394 l 1,19,-1
 459 384 l 1,20,-1
 459 344 l 1,21,-1
 459 334 l 1,22,-1
 213 334 l 1,23,-1
 213 125 l 1,24,-1
 540 125 l 1,25,-1
 540 115 l 1,26,-1
 567.666666667 115 l 1,27,-1
 540 94.25 l 1,28,-1
 540 75 l 1,29,-1
 540 65 l 1,30,-1
 520 65 l 1,31,32
 501 55 501 55 495.5 47 c 128,-1,33
 490 39 490 39 487 17 c 2,34,-1
 476.206973145 -59.4506068871 l 1,35,36
 476.988687849 -62.1161927865 476.988687849 -62.1161927865 478 -64.5 c 0,37,38
 485 -81 485 -81 516 -81 c 2,39,-1
 540 -81 l 1,40,-1
 540 -91 l 1,41,-1
 540 -131 l 1,0,-1
EndSplineSet
Substitution2: "'ss12' Style Set 12 in Latin lookup 26 subtable" Eogonek.v
Substitution2: "'ss01' Style Set 1 in Latin lookup 22 subtable" Eogonek.v
Substitution2: "'vert' Vertical Alternates in Latin lookup 21 subtable" Eogonek.v
Substitution2: "'ss03' Style Set 3 in Latin lookup 11 subtable" Eogonek.salt
Position2: "'ss11' Style Set 11 in Latin lookup 1 per glyph data 70" dx=313 dy=0 dh=626 dv=0
EndChar

StartChar: F
Encoding: 70 70 31
Width: 618
GlyphClass: 1
Flags: W
LayerCount: 2
Fore
SplineSet
203 65 m 1,0,-1
 163 65 l 1,1,-1
 153 65 l 1,2,-1
 153 655 l 1,3,-1
 522 655 l 1,4,-1
 522 645 l 1,5,-1
 522 605 l 1,6,-1
 522 595 l 1,7,-1
 213 595 l 1,8,-1
 213 359 l 1,9,-1
 441 359 l 1,10,-1
 441 349 l 1,11,-1
 441 309 l 1,12,-1
 441 299 l 1,13,-1
 213 299 l 1,14,-1
 213 65 l 1,15,-1
 203 65 l 1,0,-1
EndSplineSet
Substitution2: "'ss12' Style Set 12 in Latin lookup 26 subtable" F.v
Substitution2: "'ss01' Style Set 1 in Latin lookup 22 subtable" F.v
Substitution2: "'vert' Vertical Alternates in Latin lookup 21 subtable" F.v
Position2: "'ss11' Style Set 11 in Latin lookup 1 per glyph data 83" dx=331 dy=0 dh=662 dv=0
EndChar

StartChar: G
Encoding: 71 71 32
Width: 708
GlyphClass: 1
Flags: W
LayerCount: 2
Fore
SplineSet
322 65 m 2,0,1
 267 65 267 65 232 72 c 128,-1,2
 197 79 197 79 177 94.5 c 128,-1,3
 157 110 157 110 149.5 134.5 c 128,-1,4
 142 159 142 159 142 194 c 2,5,-1
 142 524 l 2,6,7
 142 595 142 595 174 625 c 128,-1,8
 206 655 206 655 302 655 c 2,9,-1
 525 655 l 1,10,-1
 525 645 l 1,11,-1
 525 605 l 1,12,-1
 525 595 l 1,13,-1
 352 595 l 2,14,15
 264 595 264 595 233 567.5 c 128,-1,16
 202 540 202 540 202 474 c 2,17,-1
 202 244 l 2,18,19
 202 179 202 179 236.5 152 c 128,-1,20
 271 125 271 125 372 125 c 2,21,-1
 511 125 l 1,22,-1
 511 316 l 1,23,-1
 521 316 l 1,24,-1
 561 316 l 1,25,-1
 571 316 l 1,26,-1
 571 65 l 1,27,-1
 322 65 l 2,0,1
EndSplineSet
Substitution2: "'ss12' Style Set 12 in Latin lookup 26 subtable" G.v
Substitution2: "'ss01' Style Set 1 in Latin lookup 22 subtable" G.v
Substitution2: "'vert' Vertical Alternates in Latin lookup 21 subtable" G.v
Position2: "'ss11' Style Set 11 in Latin lookup 1 per glyph data 57" dx=286 dy=0 dh=572 dv=0
EndChar

StartChar: H
Encoding: 72 72 37
Width: 759
GlyphClass: 1
Flags: W
LayerCount: 2
Fore
SplineSet
202 65 m 1,0,-1
 162 65 l 1,1,-1
 152 65 l 1,2,-1
 152 655 l 1,3,-1
 162 655 l 1,4,-1
 202 655 l 1,5,-1
 212 655 l 1,6,-1
 212 390 l 1,7,-1
 546 390 l 1,8,-1
 546 655 l 1,9,-1
 556 655 l 1,10,-1
 596 655 l 1,11,-1
 606 655 l 1,12,-1
 606 65 l 1,13,-1
 596 65 l 1,14,-1
 556 65 l 1,15,-1
 546 65 l 1,16,-1
 546 330 l 1,17,-1
 212 330 l 1,18,-1
 212 65 l 1,19,-1
 202 65 l 1,0,-1
EndSplineSet
Substitution2: "'ss12' Style Set 12 in Latin lookup 26 subtable" H.v
Substitution2: "'ss01' Style Set 1 in Latin lookup 22 subtable" H.v
Substitution2: "'vert' Vertical Alternates in Latin lookup 21 subtable" H.v
Position2: "'ss11' Style Set 11 in Latin lookup 1 per glyph data 33" dx=261 dy=0 dh=521 dv=0
EndChar

StartChar: I
Encoding: 73 73 39
Width: 605
GlyphClass: 1
Flags: W
LayerCount: 2
Fore
SplineSet
486 115 m 1,0,-1
 486 75 l 1,1,-1
 486 65 l 1,2,-1
 118 65 l 1,3,-1
 118 75 l 1,4,-1
 118 115 l 1,5,-1
 118 125 l 1,6,-1
 273 125 l 1,7,-1
 273 595 l 1,8,-1
 118 595 l 1,9,-1
 118 605 l 1,10,-1
 118 645 l 1,11,-1
 118 655 l 1,12,-1
 486 655 l 1,13,-1
 486 645 l 1,14,-1
 486 605 l 1,15,-1
 486 595 l 1,16,-1
 333 595 l 1,17,-1
 333 125 l 1,18,-1
 486 125 l 1,19,-1
 486 115 l 1,0,-1
EndSplineSet
Substitution2: "'ss12' Style Set 12 in Latin lookup 26 subtable" I.v
Substitution2: "'ss01' Style Set 1 in Latin lookup 22 subtable" I.v
Substitution2: "'vert' Vertical Alternates in Latin lookup 21 subtable" I.v
Substitution2: "'ss04' Style Set 4 in Latin lookup 12 subtable" I.salt
Position2: "'ss11' Style Set 11 in Latin lookup 1 per glyph data 86" dx=338 dy=0 dh=675 dv=0
EndChar

StartChar: Iogonek
Encoding: 302 302 47
Width: 605
GlyphClass: 1
Flags: W
LayerCount: 2
Fore
SplineSet
486 -131 m 1,0,-1
 486 -141 l 1,1,-1
 412 -141 l 2,2,3
 375 -141 375 -141 365 -122 c 0,4,5
 358.75 -110.125 358.75 -110.125 358.75 -91.21875 c 2,6,-1
 358.75 -41.21875 l 2,7,8
 358.75 -29.875 358.75 -29.875 361 -16 c 2,9,-1
 372.710843373 65 l 1,10,-1
 118 65 l 1,11,-1
 118 75 l 1,12,-1
 118 115 l 1,13,-1
 118 125 l 1,14,-1
 273 125 l 1,15,-1
 273 595 l 1,16,-1
 118 595 l 1,17,-1
 118 605 l 1,18,-1
 118 645 l 1,19,-1
 118 655 l 1,20,-1
 486 655 l 1,21,-1
 486 645 l 1,22,-1
 486 605 l 1,23,-1
 486 595 l 1,24,-1
 333 595 l 1,25,-1
 333 125 l 1,26,-1
 486 125 l 1,27,-1
 486 115 l 1,28,-1
 513.666666667 115 l 1,29,-1
 486 94.25 l 1,30,-1
 486 75 l 1,31,-1
 486 65 l 1,32,-1
 466 65 l 1,33,34
 447 55 447 55 441.5 47 c 128,-1,35
 436 39 436 39 433 17 c 2,36,-1
 422.206973145 -59.4506068871 l 1,37,38
 422.988687849 -62.1161927865 422.988687849 -62.1161927865 424 -64.5 c 0,39,40
 431 -81 431 -81 462 -81 c 2,41,-1
 486 -81 l 1,42,-1
 486 -91 l 1,43,-1
 486 -131 l 1,0,-1
EndSplineSet
Substitution2: "'ss12' Style Set 12 in Latin lookup 26 subtable" Iogonek.v
Substitution2: "'ss01' Style Set 1 in Latin lookup 22 subtable" Iogonek.v
Substitution2: "'vert' Vertical Alternates in Latin lookup 21 subtable" Iogonek.v
Substitution2: "'ss04' Style Set 4 in Latin lookup 12 subtable" Iogonek.salt
Position2: "'ss11' Style Set 11 in Latin lookup 1 per glyph data 86" dx=338 dy=0 dh=675 dv=0
EndChar

StartChar: J
Encoding: 74 74 49
Width: 688
GlyphClass: 1
Flags: W
LayerCount: 2
Fore
SplineSet
529 655 m 1,0,-1
 539 655 l 1,1,-1
 539 188 l 2,2,3
 539 129 539 129 501.5 91 c 128,-1,4
 464 53 464 53 358 53 c 2,5,-1
 308 53 l 2,6,7
 155.7 53 155.7 53 128.5 133 c 0,8,9
 120 158 120 158 120 188 c 2,10,-1
 120 317 l 1,11,-1
 130 317 l 1,12,-1
 170 317 l 1,13,-1
 180 317 l 1,14,-1
 180 238 l 2,15,16
 180 181 180 181 217.5 147 c 0,17,18
 250.142922525 117.403750244 250.142922525 117.403750244 332.417280143 113.570382682 c 1,19,20
 411.628881506 117.436011584 411.628881506 117.436011584 443 147.5 c 0,21,22
 479 182 479 182 479 238 c 2,23,-1
 479 655 l 1,24,-1
 489 655 l 1,25,-1
 529 655 l 1,0,-1
170 237.999996531 m 1,26,-1
 170 188 l 1,27,-1
 170 237.999996531 l 1,26,-1
EndSplineSet
Substitution2: "'ss12' Style Set 12 in Latin lookup 26 subtable" J.v
Substitution2: "'ss01' Style Set 1 in Latin lookup 22 subtable" J.v
Substitution2: "'vert' Vertical Alternates in Latin lookup 21 subtable" J.v
Position2: "'ss11' Style Set 11 in Latin lookup 1 per glyph data 64" dx=296 dy=0 dh=592 dv=0
EndChar

StartChar: K
Encoding: 75 75 51
Width: 746
GlyphClass: 1
Flags: W
LayerCount: 2
Fore
SplineSet
163 65 m 1,0,-1
 153 65 l 1,1,-1
 153 655 l 1,2,-1
 163 655 l 1,3,-1
 203 655 l 1,4,-1
 213 655 l 1,5,-1
 213 389 l 1,6,-1
 380 389 l 1,7,-1
 495 655 l 1,8,-1
 506 655 l 1,9,-1
 545 655 l 1,10,-1
 556 655 l 1,11,-1
 577.616541353 655 l 1,12,-1
 462.616541353 389 l 1,13,-1
 482 389 l 2,14,15
 543 389 543 389 573 366 c 128,-1,16
 603 343 603 343 603 291 c 2,17,-1
 603 65 l 1,18,-1
 593 65 l 1,19,-1
 553 65 l 1,20,-1
 543 65 l 1,21,-1
 543 241 l 2,22,23
 543 289 543 289 515 309 c 128,-1,24
 487 329 487 329 432 329 c 2,25,-1
 213 329 l 1,26,-1
 213 65 l 1,27,-1
 203 65 l 1,28,-1
 163 65 l 1,0,-1
EndSplineSet
Substitution2: "'ss12' Style Set 12 in Latin lookup 26 subtable" K.v
Substitution2: "'ss01' Style Set 1 in Latin lookup 22 subtable" K.v
Substitution2: "'vert' Vertical Alternates in Latin lookup 21 subtable" K.v
Position2: "'ss11' Style Set 11 in Latin lookup 1 per glyph data 38" dx=267 dy=0 dh=534 dv=0
EndChar

StartChar: L
Encoding: 76 76 53
Width: 695
GlyphClass: 1
Flags: W
LayerCount: 2
Fore
SplineSet
153 65 m 1,0,-1
 153 655 l 1,1,-1
 163 655 l 1,2,-1
 203 655 l 1,3,-1
 213 655 l 1,4,-1
 213 125 l 1,5,-1
 511 125 l 1,6,-1
 511 322 l 1,7,-1
 521 322 l 1,8,-1
 561 322 l 1,9,-1
 571 322 l 1,10,-1
 571 65 l 1,11,-1
 153 65 l 1,0,-1
EndSplineSet
Substitution2: "Single Substitution lookup 27 subtable" Ldot
Substitution2: "'ss12' Style Set 12 in Latin lookup 26 subtable" L.v
Substitution2: "'ss01' Style Set 1 in Latin lookup 22 subtable" L.v
Substitution2: "'vert' Vertical Alternates in Latin lookup 21 subtable" L.v
Substitution2: "'ss05' Style Set 5 in Latin lookup 13 subtable" L.salt
Position2: "'ss11' Style Set 11 in Latin lookup 1 per glyph data 61" dx=293 dy=0 dh=585 dv=0
EndChar

StartChar: M
Encoding: 77 77 57
Width: 849
GlyphClass: 1
Flags: W
LayerCount: 2
Fore
SplineSet
150 624 m 2,0,1
 150 655 150 655 176 655 c 2,2,-1
 243 655 l 2,3,4
 262.8 655 262.8 655 273 638 c 2,5,-1
 395 452 l 2,6,7
 413.630955362 423.505597682 413.630955362 423.505597682 421 417.065303231 c 1,8,9
 428.369044638 423.505597682 428.369044638 423.505597682 447 452 c 2,10,-1
 569 638 l 2,11,12
 575 648 575 648 582.5 651.5 c 0,13,14
 594.242537195 655.009685674 594.242537195 655.009685674 596.042893701 655.009685674 c 128,-1,15
 597.843250207 655.009685674 597.843250207 655.009685674 598 655 c 2,16,-1
 665 655 l 2,17,18
 679 655 679 655 685.5 647.5 c 128,-1,19
 692 640 692 640 692 624 c 2,20,-1
 692 65 l 1,21,-1
 682 65 l 1,22,-1
 642 65 l 1,23,-1
 632 65 l 1,24,-1
 632 574 l 2,25,26
 632 580.179518173 632 580.179518173 629.911678798 585.464041544 c 1,27,-1
 505 397 l 2,28,29
 487 370 487 370 477.5 360 c 128,-1,30
 468 350 468 350 446 350 c 2,31,-1
 396 350 l 2,32,33
 374 350 374 350 364.5 360 c 128,-1,34
 355 370 355 370 337 397 c 2,35,-1
 211.875726628 585.712018856 l 1,36,37
 210.000759917 580.325003035 210.000759917 580.325003035 210 574 c 2,38,-1
 210 65 l 1,39,-1
 200 65 l 1,40,-1
 160 65 l 1,41,-1
 150 65 l 1,42,-1
 150 624 l 2,0,1
EndSplineSet
Substitution2: "'ss12' Style Set 12 in Latin lookup 26 subtable" M.v
Substitution2: "'ss01' Style Set 1 in Latin lookup 22 subtable" M.v
Substitution2: "'vert' Vertical Alternates in Latin lookup 21 subtable" M.v
Substitution2: "'ss02' Style Set 2 in Latin lookup 6 subtable" M.salt
Position2: "'ss11' Style Set 11 in Latin lookup 1 per glyph data 26" dx=216 dy=0 dh=431 dv=0
EndChar

StartChar: N
Encoding: 78 78 58
Width: 753
GlyphClass: 1
Flags: W
LayerCount: 2
Fore
SplineSet
199 65 m 1,0,-1
 159 65 l 1,1,-1
 149 65 l 1,2,-1
 149 644 l 2,3,4
 149 650 149 650 153 653 c 128,-1,5
 157 656 157 656 161 656 c 2,6,-1
 211 656 l 2,7,8
 215 656 215 656 218 654 c 128,-1,9
 221 652 221 652 226 647 c 2,10,-1
 544 289.25 l 1,11,-1
 544 655 l 1,12,-1
 554 655 l 1,13,-1
 594 655 l 1,14,-1
 604 655 l 1,15,-1
 604 65 l 1,16,-1
 594 65 l 1,17,-1
 554 65 l 1,18,-1
 544 65 l 1,19,-1
 544 168 l 1,20,-1
 209 543.767195767 l 1,21,-1
 209 65 l 1,22,-1
 199 65 l 1,0,-1
EndSplineSet
Substitution2: "'ss12' Style Set 12 in Latin lookup 26 subtable" N.v
Substitution2: "'ss01' Style Set 1 in Latin lookup 22 subtable" N.v
Substitution2: "'vert' Vertical Alternates in Latin lookup 21 subtable" N.v
Substitution2: "'ss02' Style Set 2 in Latin lookup 7 subtable" N.salt
Position2: "'ss11' Style Set 11 in Latin lookup 1 per glyph data 35" dx=264 dy=0 dh=527 dv=0
EndChar

StartChar: O
Encoding: 79 79 63
Width: 737
GlyphClass: 1
Flags: W
LayerCount: 2
Fore
SplineSet
595 187 m 2,0,1
 595 127 595 127 552 89.5 c 128,-1,2
 509 52 509 52 392 52 c 2,3,-1
 342 52 l 2,4,5
 225 52 225 52 183 89.5 c 128,-1,6
 141 127 141 127 141 187 c 2,7,-1
 141 532 l 2,8,9
 141 592 141 592 183 629.5 c 128,-1,10
 225 667 225 667 342 667 c 2,11,-1
 392 667 l 2,12,13
 509 667 509 667 552 629.5 c 128,-1,14
 595 592 595 592 595 532 c 2,15,-1
 595 187 l 2,0,1
367.00683513 606.52808006 m 1,16,17
 276.321736442 602.964997844 276.321736442 602.964997844 241 572.5 c 0,18,19
 201 538 201 538 201 482 c 2,20,-1
 201 237 l 2,21,22
 201 181 201 181 241 146.5 c 0,23,24
 276.32173811 116.03500088 276.32173811 116.03500088 367.006843726 112.47191994 c 1,25,26
 457.795220149 116.035002157 457.795220149 116.035002157 494 146.5 c 0,27,28
 535 181 535 181 535 237 c 2,29,-1
 535 482 l 2,30,31
 535 538 535 538 494 572.5 c 0,32,33
 457.795218442 602.964999116 457.795218442 602.964999116 367.00683513 606.52808006 c 1,16,17
EndSplineSet
Substitution2: "'ss12' Style Set 12 in Latin lookup 26 subtable" O.v
Substitution2: "'ss01' Style Set 1 in Latin lookup 22 subtable" O.v
Substitution2: "'vert' Vertical Alternates in Latin lookup 21 subtable" O.v
Position2: "'ss11' Style Set 11 in Latin lookup 1 per glyph data 42" dx=272 dy=0 dh=543 dv=0
EndChar

StartChar: P
Encoding: 80 80 72
Width: 682
GlyphClass: 1
Flags: W
LayerCount: 2
Fore
SplineSet
216 595 m 1,0,-1
 216 322 l 1,1,-1
 372 322 l 2,2,3
 454.636363636 322 454.636363636 322 486 356.5 c 0,4,5
 501 373 501 373 506.5 395.5 c 128,-1,6
 512 418 512 418 512 445 c 2,7,-1
 512 469.000007764 l 2,8,9
 512 496.000003307 512 496.000003307 506.5 519 c 128,-1,10
 501 542 501 542 486 559 c 0,11,12
 454.235294118 595 454.235294118 595 372 595 c 2,13,-1
 216 595 l 1,0,-1
156 655 m 1,14,-1
 422 655 l 2,15,16
 509.333333333 655 509.333333333 655 544 616 c 0,17,18
 560 598 560 598 566 573 c 128,-1,19
 572 548 572 548 572 519 c 2,20,-1
 572 395 l 2,21,22
 572 366 572 366 566 341.5 c 128,-1,23
 560 317 560 317 544 299.5 c 0,24,25
 509.714285714 262 509.714285714 262 422 262 c 2,26,-1
 216 262 l 1,27,-1
 216 65 l 1,28,-1
 206 65 l 1,29,-1
 166 65 l 1,30,-1
 156 65 l 1,31,-1
 156 655 l 1,14,-1
EndSplineSet
Substitution2: "'ss12' Style Set 12 in Latin lookup 26 subtable" P.v
Substitution2: "'ss01' Style Set 1 in Latin lookup 22 subtable" P.v
Substitution2: "'vert' Vertical Alternates in Latin lookup 21 subtable" P.v
Position2: "'ss11' Style Set 11 in Latin lookup 1 per glyph data 66" dx=299 dy=0 dh=598 dv=0
EndChar

StartChar: Q
Encoding: 81 81 73
Width: 737
GlyphClass: 1
Flags: W
LayerCount: 2
Fore
SplineSet
367.00683513 606.52808006 m 1,0,1
 276.321736442 602.964997844 276.321736442 602.964997844 241 572.5 c 0,2,3
 201 538 201 538 201 482 c 2,4,-1
 201 237 l 2,5,6
 201 181 201 181 241 146.5 c 0,7,8
 276.32173811 116.03500088 276.32173811 116.03500088 367.006843726 112.47191994 c 1,9,10
 457.795220149 116.035002157 457.795220149 116.035002157 494 146.5 c 0,11,12
 535 181 535 181 535 237 c 2,13,-1
 535 482 l 2,14,15
 535 538 535 538 494 572.5 c 0,16,17
 457.795218442 602.964999116 457.795218442 602.964999116 367.00683513 606.52808006 c 1,0,1
347 -25 m 1,18,-1
 337 -25 l 1,19,-1
 337 25 l 1,20,-1
 337 52 l 1,21,22
 223 53 223 53 182 90 c 128,-1,23
 141 127 141 127 141 187 c 2,24,-1
 141 532 l 2,25,26
 141 592 141 592 183 629.5 c 128,-1,27
 225 667 225 667 342 667 c 2,28,-1
 392 667 l 2,29,30
 509 667 509 667 552 629.5 c 128,-1,31
 595 592 595 592 595 532 c 2,32,-1
 595 187 l 2,33,34
 595 127 595 127 553 90 c 128,-1,35
 511 53 511 53 397 52 c 1,36,-1
 397 -25 l 1,37,-1
 387 -25 l 1,38,-1
 347 -25 l 1,18,-1
EndSplineSet
Substitution2: "'ss12' Style Set 12 in Latin lookup 26 subtable" Q.v
Substitution2: "'ss01' Style Set 1 in Latin lookup 22 subtable" Q.v
Substitution2: "'vert' Vertical Alternates in Latin lookup 21 subtable" Q.v
Position2: "'ss11' Style Set 11 in Latin lookup 1 per glyph data 42" dx=272 dy=0 dh=543 dv=0
EndChar

StartChar: R
Encoding: 82 82 74
Width: 743
GlyphClass: 1
Flags: W
LayerCount: 2
Fore
SplineSet
162 65 m 1,0,-1
 152 65 l 1,1,-1
 152 655 l 1,2,-1
 430 655 l 2,3,4
 488 655 488 655 516 622.5 c 128,-1,5
 544 590 544 590 544 541 c 2,6,-1
 544 422 l 2,7,8
 544 380.595381674 544 380.595381674 534.277831274 352.558745346 c 1,9,10
 566.612392736 346.271973325 566.612392736 346.271973325 586 328.5 c 0,11,12
 616 301 616 301 616 249 c 2,13,-1
 616 65 l 1,14,-1
 606 65 l 1,15,-1
 566 65 l 1,16,-1
 556 65 l 1,17,-1
 556 199 l 2,18,19
 556 248 556 248 529 272.5 c 128,-1,20
 502 297 502 297 445 297 c 2,21,-1
 212 297 l 1,22,-1
 212 65 l 1,23,-1
 202 65 l 1,24,-1
 162 65 l 1,0,-1
484 491 m 2,25,26
 484 537 484 537 458.5 566 c 128,-1,27
 433 595 433 595 380 595 c 2,28,-1
 212 595 l 1,29,-1
 212 356 l 1,30,-1
 380 356 l 2,31,32
 442 356 442 356 463 386 c 128,-1,33
 484 416 484 416 484 471 c 2,34,-1
 484 491 l 2,25,26
EndSplineSet
Substitution2: "'ss12' Style Set 12 in Latin lookup 26 subtable" R.v
Substitution2: "'ss01' Style Set 1 in Latin lookup 22 subtable" R.v
Substitution2: "'vert' Vertical Alternates in Latin lookup 21 subtable" R.v
Position2: "'ss11' Style Set 11 in Latin lookup 1 per glyph data 40" dx=269 dy=0 dh=537 dv=0
EndChar

StartChar: S
Encoding: 83 83 78
Width: 650
GlyphClass: 1
Flags: W
LayerCount: 2
Fore
SplineSet
509 605 m 1,0,-1
 509 595 l 1,1,-1
 287 595 l 2,2,3
 245 595 245 595 220 572 c 128,-1,4
 195 549 195 549 195 514 c 2,5,-1
 195 482 l 2,6,7
 195 447 195 447 209 433 c 128,-1,8
 223 419 223 419 246 415 c 2,9,-1
 457 372 l 2,10,11
 487 366 487 366 506.5 346 c 128,-1,12
 526 326 526 326 526 274 c 2,13,-1
 526 166 l 2,14,15
 526 122 526 122 496 93.5 c 128,-1,16
 466 65 466 65 415 65 c 2,17,-1
 116 65 l 1,18,-1
 116 75 l 1,19,-1
 116 115 l 1,20,-1
 116 125 l 1,21,-1
 365 125 l 2,22,23
 411 125 411 125 438.5 150.5 c 128,-1,24
 466 176 466 176 466 216 c 2,25,-1
 466 224 l 2,26,27
 466 271 466 271 449.5 288.5 c 128,-1,28
 433 306 433 306 405 312 c 2,29,-1
 194 355 l 2,30,31
 168 360 168 360 151.5 375.5 c 128,-1,32
 135 391 135 391 135 432 c 2,33,-1
 135 564 l 2,34,35
 135 604 135 604 163 629.5 c 128,-1,36
 191 655 191 655 237 655 c 2,37,-1
 509 655 l 1,38,-1
 509 645 l 1,39,-1
 509 605 l 1,0,-1
EndSplineSet
Substitution2: "'ss12' Style Set 12 in Latin lookup 26 subtable" S.v
Substitution2: "'ss01' Style Set 1 in Latin lookup 22 subtable" S.v
Substitution2: "'vert' Vertical Alternates in Latin lookup 21 subtable" S.v
Position2: "'ss11' Style Set 11 in Latin lookup 1 per glyph data 71" dx=315 dy=0 dh=630 dv=0
EndChar

StartChar: Scedilla
Encoding: 350 350 81
Width: 650
GlyphClass: 1
Flags: W
LayerCount: 2
Fore
SplineSet
195 482 m 2,0,1
 195 447 195 447 209 433 c 128,-1,2
 223 419 223 419 246 415 c 2,3,-1
 457 372 l 2,4,5
 487 366 487 366 506.5 346 c 128,-1,6
 526 326 526 326 526 274 c 2,7,-1
 526 166 l 2,8,9
 526 122 526 122 496 93.5 c 128,-1,10
 466 65 466 65 415 65 c 2,11,-1
 380 65 l 1,12,-1
 334 -61 l 1,13,-1
 324 -61 l 1,14,-1
 284 -61 l 1,15,-1
 274 -61 l 1,16,-1
 256.142857143 -61 l 1,17,-1
 301.142857143 65 l 1,18,-1
 116 65 l 1,19,-1
 116 75 l 1,20,-1
 116 115 l 1,21,-1
 116 125 l 1,22,-1
 365 125 l 2,23,24
 411 125 411 125 438.5 150.5 c 128,-1,25
 466 176 466 176 466 216 c 2,26,-1
 466 224 l 2,27,28
 466 271 466 271 449.5 288.5 c 128,-1,29
 433 306 433 306 405 312 c 2,30,-1
 194 355 l 2,31,32
 168 360 168 360 151.5 375.5 c 128,-1,33
 135 391 135 391 135 432 c 2,34,-1
 135 564 l 2,35,36
 135 604 135 604 163 629.5 c 128,-1,37
 191 655 191 655 237 655 c 2,38,-1
 509 655 l 1,39,-1
 509 645 l 1,40,-1
 509 605 l 1,41,-1
 509 595 l 1,42,-1
 287 595 l 2,43,44
 245 595 245 595 220 572 c 128,-1,45
 195 549 195 549 195 514 c 2,46,-1
 195 482 l 2,0,1
EndSplineSet
Substitution2: "'ss12' Style Set 12 in Latin lookup 26 subtable" Scedilla.v
Substitution2: "'ss01' Style Set 1 in Latin lookup 22 subtable" Scedilla.v
Substitution2: "'vert' Vertical Alternates in Latin lookup 21 subtable" Scedilla.v
Substitution2: "'locl' Localized Forms in Latin lookup 0 subtable" Scommaaccent
Position2: "'ss11' Style Set 11 in Latin lookup 1 per glyph data 71" dx=315 dy=0 dh=630 dv=0
EndChar

StartChar: T
Encoding: 84 84 84
Width: 656
GlyphClass: 1
Flags: W
LayerCount: 2
Fore
SplineSet
348 65 m 1,0,-1
 308 65 l 1,1,-1
 298 65 l 1,2,-1
 298 595 l 1,3,-1
 93 595 l 1,4,-1
 93 605 l 1,5,-1
 93 645 l 1,6,-1
 93 655 l 1,7,-1
 563 655 l 1,8,-1
 563 645 l 1,9,-1
 563 605 l 1,10,-1
 563 595 l 1,11,-1
 358 595 l 1,12,-1
 358 65 l 1,13,-1
 348 65 l 1,0,-1
EndSplineSet
Substitution2: "'ss12' Style Set 12 in Latin lookup 26 subtable" T.v
Substitution2: "'ss01' Style Set 1 in Latin lookup 22 subtable" T.v
Substitution2: "'vert' Vertical Alternates in Latin lookup 21 subtable" T.v
Position2: "'ss11' Style Set 11 in Latin lookup 1 per glyph data 69" dx=312 dy=0 dh=624 dv=0
EndChar

StartChar: U
Encoding: 85 85 87
Width: 730
GlyphClass: 1
Flags: W
LayerCount: 2
Fore
SplineSet
192 655 m 1,0,-1
 202 655 l 1,1,-1
 202 439 l 2,2,3
 202 414.742569296 202 414.742569296 218 346 c 2,4,-1
 255.028320312 186.911132812 l 2,5,6
 265.509392605 141.880142917 265.509392605 141.880142917 282 138 c 0,7,8
 326 130 326 130 336.147460938 129.541015625 c 2,9,-1
 385.076171875 129.541015625 l 2,10,11
 428.502766927 129.541015625 428.502766927 129.541015625 442 142 c 0,12,13
 457.296353824 157.296353824 457.296353824 157.296353824 466.1953125 186.911132812 c 2,14,-1
 514 346 l 2,15,16
 530 399 530 399 530 439 c 2,17,-1
 530 655 l 1,18,-1
 540 655 l 1,19,-1
 580 655 l 1,20,-1
 590 655 l 1,21,-1
 590 389 l 2,22,23
 590 353 590 353 586.023239524 335.388632178 c 0,24,25
 574.611067001 293.95758114 574.611067001 293.95758114 574 292 c 2,26,-1
 523.599609375 130.540039062 l 2,27,28
 517 110 517 110 492.280273438 83.0205078125 c 0,29,30
 475.19075108 64.2099609375 475.19075108 64.2099609375 438.919921875 64.2099609375 c 2,31,-1
 278.83984375 64.2099609375 l 2,32,33
 243 64 243 64 225.479492188 83.0205078125 c 0,34,35
 198.116953723 112.872406186 198.116953723 112.872406186 194.16015625 130.540039062 c 2,36,-1
 158 292 l 2,37,38
 149 330 149 330 147.663088679 337.941796565 c 0,39,40
 142 361 142 361 142 389 c 2,41,-1
 142 655 l 1,42,-1
 152 655 l 1,43,-1
 192 655 l 1,0,-1
EndSplineSet
Substitution2: "'ss12' Style Set 12 in Latin lookup 26 subtable" U.v
Substitution2: "'ss01' Style Set 1 in Latin lookup 22 subtable" U.v
Substitution2: "'vert' Vertical Alternates in Latin lookup 21 subtable" U.v
Position2: "'ss11' Style Set 11 in Latin lookup 1 per glyph data 38" dx=267 dy=0 dh=534 dv=0
EndChar

StartChar: Uogonek
Encoding: 370 370 97
Width: 746
GlyphClass: 1
Flags: W
LayerCount: 2
Fore
SplineSet
382 -151 m 2,0,1
 345 -151 345 -151 335 -132 c 0,2,3
 328.75 -120.125 328.75 -120.125 328.75 -101.21875 c 2,4,-1
 328.75 -51.21875 l 2,5,6
 328.75 -39.875 328.75 -39.875 331 -26 c 2,7,-1
 342.426045263 53.0301464045 l 1,8,9
 230.823342076 54.0632451118 230.823342076 54.0632451118 189.911671038 91.0316225559 c 128,-1,10
 149 128 149 128 149 188 c 2,11,-1
 149 655 l 1,12,-1
 159 655 l 1,13,-1
 199 655 l 1,14,-1
 209 655 l 1,15,-1
 209 238 l 2,16,17
 209 182 209 182 248.5 147.5 c 0,18,19
 283.378241535 117.036725748 283.378241535 117.036725748 374.003420339 113.472323236 c 1,20,21
 464.680260847 117.036725067 464.680260847 117.036725067 500 147.5 c 0,22,23
 540 182 540 182 540 238 c 2,24,-1
 540 655 l 1,25,-1
 550 655 l 1,26,-1
 590 655 l 1,27,-1
 600 655 l 1,28,-1
 600 188 l 2,29,30
 600 132 600 132 565 96 c 128,-1,31
 530 60 530 60 434 54 c 1,32,33
 417 44 417 44 411.5 36 c 128,-1,34
 406 28 406 28 403 7 c 2,35,-1
 392.206973145 -69.4506068871 l 1,36,37
 392.988687849 -72.1161927865 392.988687849 -72.1161927865 394 -74.5 c 0,38,39
 401 -91 401 -91 432 -91 c 2,40,-1
 456 -91 l 1,41,-1
 456 -101 l 1,42,-1
 456 -141 l 1,43,-1
 456 -151 l 1,44,-1
 382 -151 l 2,0,1
199 237.99999686 m 1,45,-1
 199 188 l 1,46,-1
 199 237.99999686 l 1,45,-1
EndSplineSet
Substitution2: "'ss12' Style Set 12 in Latin lookup 26 subtable" Uogonek.v
Substitution2: "'ss01' Style Set 1 in Latin lookup 22 subtable" Uogonek.v
Substitution2: "'vert' Vertical Alternates in Latin lookup 21 subtable" Uogonek.v
Position2: "'ss11' Style Set 11 in Latin lookup 1 per glyph data 38" dx=267 dy=0 dh=534 dv=0
EndChar

StartChar: V
Encoding: 86 86 98
Width: 730
GlyphClass: 1
Flags: W
LayerCount: 2
Fore
SplineSet
192 655 m 1,0,-1
 202 655 l 1,1,-1
 204 415 l 2,2,3
 205 352 205 352 220 322 c 2,4,-1
 299.4921875 166.443359375 l 2,5,6
 319 133 319 133 319 133 c 0,7,8
 326.77879181 117.44241638 326.77879181 117.44241638 348.286132812 117.62890625 c 2,9,-1
 390.6328125 117.99609375 l 2,10,11
 411 118 411 118 422 132 c 0,12,13
 422.494714483 132.494714483 422.494714483 132.494714483 439.426757812 166.810546875 c 2,14,-1
 516 322 l 2,15,16
 532 354.426878882 532 354.426878882 532 415 c 2,17,-1
 530 655 l 1,18,-1
 540 655 l 1,19,-1
 580 655 l 1,20,-1
 590 655 l 1,21,-1
 590 389 l 2,22,23
 590 361 590 361 586.5 337.5 c 0,24,25
 581 305 581 305 574 292 c 2,26,-1
 480.538085938 123.6171875 l 2,27,28
 465 91 465 91 459.626953125 85.205078125 c 0,29,30
 448 70 448 70 424 70 c 2,31,-1
 317.118164062 70 l 2,32,33
 293 70 293 70 281.491210938 85.205078125 c 0,34,35
 270 101 270 101 260.580078125 123.6171875 c 2,36,-1
 158 292 l 2,37,38
 150.894124234 303.664129806 150.894124234 303.664129806 145.5 337.5 c 0,39,40
 142 361 142 361 142 389 c 2,41,-1
 142 655 l 1,42,-1
 152 655 l 1,43,-1
 192 655 l 1,0,-1
EndSplineSet
Substitution2: "'ss12' Style Set 12 in Latin lookup 26 subtable" V.v
Substitution2: "'ss01' Style Set 1 in Latin lookup 22 subtable" V.v
Substitution2: "'vert' Vertical Alternates in Latin lookup 21 subtable" V.v
Position2: "'ss11' Style Set 11 in Latin lookup 1 per glyph data 46" dx=275 dy=0 dh=550 dv=0
EndChar

StartChar: W
Encoding: 87 87 99
Width: 831
GlyphClass: 1
Flags: W
LayerCount: 2
Fore
SplineSet
464 370 m 2,0,1
 480 370 480 370 490 360.5 c 128,-1,2
 500 351 500 351 513 323 c 0,3,4
 596.048197969 136.64794602 596.048197969 136.64794602 596.220562207 136.313735061 c 1,5,6
 599.355689431 140.845515448 599.355689431 140.845515448 600 146 c 2,7,-1
 625 260 l 2,8,9
 629 279 629 279 629.5 309 c 128,-1,10
 630 339 630 339 630 361 c 2,11,-1
 630 655 l 1,12,-1
 640 655 l 1,13,-1
 680 655 l 1,14,-1
 690 655 l 1,15,-1
 690 310 l 2,16,17
 690 288 690 288 689.5 258 c 128,-1,18
 689 228 689 228 685 209 c 2,19,-1
 660 96 l 2,20,21
 652.25 65 652.25 65 627 65 c 2,22,-1
 577 65 l 1,23,-1
 570 65 l 2,24,25
 561 65 561 65 551 68.5 c 128,-1,26
 541 72 541 72 537 82 c 2,27,-1
 455 268 l 2,28,29
 443 295 443 295 434.949639384 302.103259367 c 128,-1,30
 426.899278768 309.206518734 426.899278768 309.206518734 416.499963994 309.916049207 c 0,31,32
 406.100695083 309.20649797 406.100695083 309.20649797 398.050347542 302.103248985 c 128,-1,33
 390 295 390 295 378 268 c 2,34,-1
 296 82 l 2,35,36
 292 72 292 72 282 68.5 c 128,-1,37
 272 65 272 65 263 65 c 2,38,-1
 213 65 l 1,39,-1
 206 65 l 2,40,41
 180.75 65 180.75 65 173 96 c 2,42,-1
 148 209 l 2,43,44
 144 228 144 228 143.5 258 c 128,-1,45
 143 288 143 288 143 310 c 2,46,-1
 143 655 l 1,47,-1
 153 655 l 1,48,-1
 193 655 l 1,49,-1
 203 655 l 1,50,-1
 203 361 l 2,51,52
 203 339 203 339 203.5 309 c 128,-1,53
 204 279 204 279 208 260 c 2,54,-1
 233 146 l 2,55,56
 233.644310569 140.845515448 233.644310569 140.845515448 236.779437793 136.313735061 c 1,57,58
 236.951802031 136.64794602 236.951802031 136.64794602 320 323 c 0,59,60
 333 351 333 351 343 360.5 c 128,-1,61
 353 370 353 370 369 370 c 2,62,-1
 464 370 l 2,0,1
EndSplineSet
Substitution2: "'ss12' Style Set 12 in Latin lookup 26 subtable" W.v
Substitution2: "'ss01' Style Set 1 in Latin lookup 22 subtable" W.v
Substitution2: "'vert' Vertical Alternates in Latin lookup 21 subtable" W.v
Substitution2: "'ss02' Style Set 2 in Latin lookup 8 subtable" W.salt
Position2: "'ss11' Style Set 11 in Latin lookup 1 per glyph data 27" dx=225 dy=0 dh=449 dv=0
EndChar

StartChar: X
Encoding: 88 88 104
Width: 737
GlyphClass: 1
Flags: W
LayerCount: 2
Fore
SplineSet
202 110 m 2,0,-1
 202 65 l 1,1,-1
 192 65 l 1,2,-1
 152 65 l 1,3,-1
 142 65 l 1,4,-1
 142 160 l 2,5,6
 142 182 142 182 143.5 201.5 c 128,-1,7
 145 221 145 221 157 237 c 2,8,-1
 258.595092025 375.846625767 l 1,9,-1
 157 513 l 2,10,11
 146 529 146 529 144 548.5 c 128,-1,12
 142 568 142 568 142 590 c 2,13,-1
 142 605 l 1,14,-1
 142 640 l 1,15,-1
 142 655 l 1,16,-1
 152 655 l 1,17,-1
 192 655 l 1,18,-1
 202 655 l 1,19,-1
 202 640 l 2,20,21
 202 619 202 619 204 600 c 128,-1,22
 206 581 206 581 216 567 c 2,23,-1
 336 405 l 1,24,-1
 405 405 l 1,25,-1
 521 567 l 2,26,27
 531 581 531 581 533 600 c 128,-1,28
 535 619 535 619 535 640 c 2,29,-1
 535 655 l 1,30,-1
 545 655 l 1,31,-1
 585 655 l 1,32,-1
 595 655 l 1,33,-1
 595 590 l 2,34,35
 595 568 595 568 593 548.5 c 128,-1,36
 591 529 591 529 580 513 c 2,37,-1
 480.098159509 374.153374233 l 1,38,-1
 580 237 l 2,39,40
 591 221 591 221 593 201.5 c 128,-1,41
 595 182 595 182 595 160 c 2,42,-1
 595 115 l 1,43,-1
 595 110 l 1,44,-1
 595 65 l 1,45,-1
 585 65 l 1,46,-1
 545 65 l 1,47,-1
 535 65 l 1,48,-1
 535 110 l 2,49,50
 535 131 535 131 533 150 c 128,-1,51
 531 169 531 169 521 183 c 2,52,-1
 404 345 l 1,53,-1
 334 345 l 1,54,-1
 216 183 l 2,55,56
 206 170 206 170 204 150.5 c 128,-1,57
 202 131 202 131 202 110 c 2,0,-1
EndSplineSet
Substitution2: "'ss12' Style Set 12 in Latin lookup 26 subtable" X.v
Substitution2: "'ss01' Style Set 1 in Latin lookup 22 subtable" X.v
Substitution2: "'vert' Vertical Alternates in Latin lookup 21 subtable" X.v
Substitution2: "'ss02' Style Set 2 in Latin lookup 9 subtable" X.salt
Position2: "'ss11' Style Set 11 in Latin lookup 1 per glyph data 42" dx=272 dy=0 dh=543 dv=0
EndChar

StartChar: Y
Encoding: 89 89 105
Width: 705
GlyphClass: 1
Flags: W
LayerCount: 2
Fore
SplineSet
529 655 m 1,0,-1
 569 655 l 1,1,-1
 579 655 l 1,2,-1
 579 490 l 2,3,4
 579 468 579 468 577.5 448.5 c 128,-1,5
 576 429 576 429 564 413 c 2,6,-1
 464 278 l 2,7,8
 448 256 448 256 430.5 246 c 128,-1,9
 413 236 413 236 390 236 c 2,10,-1
 383 236 l 1,11,-1
 383 65 l 1,12,-1
 373 65 l 1,13,-1
 333 65 l 1,14,-1
 323 65 l 1,15,-1
 323 236 l 1,16,-1
 313 236 l 2,17,18
 291 236 291 236 273.5 246 c 128,-1,19
 256 256 256 256 240 278 c 2,20,-1
 143 413 l 2,21,22
 132 428 132 428 130 448 c 128,-1,23
 128 468 128 468 128 490 c 2,24,-1
 128 655 l 1,25,-1
 138 655 l 1,26,-1
 178 655 l 1,27,-1
 188 655 l 1,28,-1
 188 540 l 2,29,30
 188 519 188 519 190 500.5 c 128,-1,31
 192 482 192 482 202 467 c 2,32,-1
 299 332 l 1,33,34
 312 312 312 312 329 304 c 0,35,36
 340.396646686 298.636872148 340.396646686 298.636872148 351.793293372 296.86913684 c 0,37,38
 363.956399614 298.718025595 363.956399614 298.718025595 374.5 304.5 c 0,39,40
 390 313 390 313 405 332 c 2,41,-1
 505 467 l 2,42,43
 515 480 515 480 517 499.5 c 128,-1,44
 519 519 519 519 519 540 c 2,45,-1
 519 655 l 1,46,-1
 529 655 l 1,0,-1
EndSplineSet
Substitution2: "'ss12' Style Set 12 in Latin lookup 26 subtable" Y.v
Substitution2: "'ss01' Style Set 1 in Latin lookup 22 subtable" Y.v
Substitution2: "'vert' Vertical Alternates in Latin lookup 21 subtable" Y.v
Substitution2: "'ss02' Style Set 2 in Latin lookup 10 subtable" Y.salt
Position2: "'ss11' Style Set 11 in Latin lookup 1 per glyph data 59" dx=288 dy=0 dh=575 dv=0
EndChar

StartChar: Z
Encoding: 90 90 110
Width: 660
GlyphClass: 1
Flags: W
LayerCount: 2
Fore
SplineSet
196.114872923 130.637460288 m 1,0,1
 201.947789012 125 201.947789012 125 212 125 c 2,2,-1
 549 125 l 1,3,-1
 549 115 l 1,4,-1
 549 75 l 1,5,-1
 549 65 l 1,6,-1
 162 65 l 2,7,8
 146 65 146 65 138.5 73 c 128,-1,9
 131 81 131 81 131 98 c 2,10,-1
 131 148 l 1,11,-1
 131 164 l 2,12,13
 131 175 131 175 136 183.5 c 128,-1,14
 141 192 141 192 148 201 c 2,15,-1
 441 577 l 2,16,17
 446.53783592 584.120074754 446.53783592 584.120074754 449.885127077 589.362539712 c 1,18,19
 444.052210988 595 444.052210988 595 434 595 c 2,20,-1
 129 595 l 1,21,-1
 129 605 l 1,22,-1
 129 645 l 1,23,-1
 129 655 l 1,24,-1
 484 655 l 2,25,26
 500 655 500 655 507.5 647 c 128,-1,27
 515 639 515 639 515 622 c 2,28,-1
 515 556 l 2,29,30
 515 545 515 545 510 536.5 c 128,-1,31
 505 528 505 528 498 519 c 2,32,-1
 205 143 l 2,33,34
 199.46216408 135.879925246 199.46216408 135.879925246 196.114872923 130.637460288 c 1,0,1
EndSplineSet
Substitution2: "'ss12' Style Set 12 in Latin lookup 26 subtable" Z.v
Substitution2: "'ss01' Style Set 1 in Latin lookup 22 subtable" Z.v
Substitution2: "'vert' Vertical Alternates in Latin lookup 21 subtable" Z.v
Position2: "'ss11' Style Set 11 in Latin lookup 1 per glyph data 68" dx=310 dy=0 dh=620 dv=0
EndChar

StartChar: AE
Encoding: 198 198 114
Width: 1005
GlyphClass: 1
Flags: W
LayerCount: 2
Fore
SplineSet
133 65 m 1,0,-1
 133 316 l 2,1,2
 133 345 133 345 135 366 c 128,-1,3
 137 387 137 387 144 408 c 2,4,-1
 218 611 l 2,5,6
 228 637 228 637 239.5 646 c 128,-1,7
 251 655 251 655 269 655 c 2,8,-1
 891 655 l 1,9,-1
 891 645 l 1,10,-1
 891 605 l 1,11,-1
 891 595 l 1,12,-1
 584 595 l 1,13,-1
 584 395 l 1,14,-1
 810 395 l 1,15,-1
 810 385 l 1,16,-1
 810 345 l 1,17,-1
 810 335 l 1,18,-1
 584 335 l 1,19,-1
 584 125 l 1,20,-1
 891 125 l 1,21,-1
 891 115 l 1,22,-1
 891 75 l 1,23,-1
 891 65 l 1,24,-1
 524 65 l 1,25,-1
 524 238 l 1,26,-1
 193 238 l 1,27,-1
 193 65 l 1,28,-1
 183 65 l 1,29,-1
 143 65 l 1,30,-1
 133 65 l 1,0,-1
524 298 m 1,31,-1
 524 595 l 1,32,-1
 319 595 l 2,33,34
 304 595 304 595 294.5 587 c 128,-1,35
 285 579 285 579 278 557 c 2,36,-1
 204 354 l 2,37,38
 195.54442634 331.049157209 195.54442634 331.049157209 193.777485353 298 c 1,39,-1
 524 298 l 1,31,-1
EndSplineSet
Substitution2: "'ss12' Style Set 12 in Latin lookup 26 subtable" AE.v
Substitution2: "'ss01' Style Set 1 in Latin lookup 22 subtable" AE.v
Substitution2: "'vert' Vertical Alternates in Latin lookup 21 subtable" AE.v
Substitution2: "'ss02' Style Set 2 in Latin lookup 5 subtable" AE.salt
Position2: "'ss11' Style Set 11 in Latin lookup 1 per glyph data 20" dx=138 dy=0 dh=275 dv=0
EndChar

StartChar: Eth
Encoding: 208 208 115
Width: 756
GlyphClass: 1
Flags: W
LayerCount: 2
Fore
SplineSet
315 324 m 1,0,-1
 221 324 l 1,1,-1
 221 125 l 1,2,-1
 405.000003713 125 l 2,3,4
 493.575757576 125 493.575757576 125 528 160.5 c 0,5,6
 544 177 544 177 549.5 200.5 c 128,-1,7
 555 224 555 224 555 251 c 2,8,-1
 555 466 l 2,9,10
 555 493 555 493 549 517 c 128,-1,11
 543 541 543 541 527 558 c 0,12,13
 492.176470588 595 492.176470588 595 405 595 c 2,14,-1
 221 595 l 1,15,-1
 221 384 l 1,16,-1
 315 384 l 1,17,-1
 315 374 l 1,18,-1
 315 334 l 1,19,-1
 315 324 l 1,0,-1
405.000003713 125 m 1,20,-1
 455 125 l 1,21,-1
 405.000003713 125 l 1,20,-1
161 65 m 1,22,-1
 161 324 l 1,23,-1
 85 324 l 1,24,-1
 85 334 l 1,25,-1
 85 374 l 1,26,-1
 85 384 l 1,27,-1
 161 384 l 1,28,-1
 161 655 l 1,29,-1
 455 655 l 2,30,31
 589.117647059 655 589.117647059 655 609 570.5 c 0,32,33
 615 545 615 545 615 516 c 2,34,-1
 615 201 l 2,35,36
 615 172 615 172 609.5 147 c 128,-1,37
 604 122 604 122 587 104 c 0,38,39
 550.166666667 65 550.166666667 65 455 65 c 2,40,-1
 161 65 l 1,22,-1
EndSplineSet
Substitution2: "'ss12' Style Set 12 in Latin lookup 26 subtable" Eth.v
Substitution2: "'ss01' Style Set 1 in Latin lookup 22 subtable" Eth.v
Substitution2: "'vert' Vertical Alternates in Latin lookup 21 subtable" Eth.v
Position2: "'ss11' Style Set 11 in Latin lookup 1 per glyph data 34" dx=262 dy=0 dh=524 dv=0
EndChar

StartChar: Oslash
Encoding: 216 216 116
Width: 737
GlyphClass: 1
Flags: W
LayerCount: 2
Fore
SplineSet
342 52 m 2,0,1
 308.394643979 52 308.394643979 52 280.652785687 55.1513595411 c 1,2,-1
 255 -5 l 1,3,-1
 244 -5 l 1,4,-1
 205 -5 l 1,5,-1
 194 -5 l 1,6,-1
 172.873239437 -5 l 1,7,-1
 205.465668689 72.1354158984 l 1,8,9
 167.288534565 86.8455580595 167.288534565 86.8455580595 151 112.5 c 0,10,11
 131 144 131 144 131 187 c 2,12,-1
 131 532 l 2,13,14
 131 562 131 562 140.5 587 c 128,-1,15
 150 612 150 612 174 630 c 0,16,17
 223.333333333 667 223.333333333 667 342 667 c 2,18,-1
 392 667 l 2,19,20
 427.209973625 667 427.209973625 667 456.234227236 663.69523032 c 1,21,-1
 482 725 l 1,22,-1
 493 725 l 1,23,-1
 532 725 l 1,24,-1
 543 725 l 1,25,-1
 564.527777778 725 l 1,26,-1
 530.710568669 646.45680465 l 1,27,28
 568.74908678 631.095188322 568.74908678 631.095188322 585 605.5 c 0,29,30
 605 574 605 574 605 532 c 2,31,-1
 605 187 l 2,32,33
 605 157 605 157 595 132 c 128,-1,34
 585 107 585 107 561 89 c 0,35,36
 511.666666667 52 511.666666667 52 392 52 c 2,37,-1
 342 52 l 2,0,1
307.649950921 118.5346565 m 1,38,39
 339.594505176 113.564955974 339.594505176 113.564955974 368.143591129 112.44879995 c 0,40,41
 465.79034027 115.934921919 465.79034027 115.934921919 503 146.5 c 0,42,43
 545 181 545 181 545 237 c 2,44,-1
 545 482.000006034 l 2,45,46
 545 521.000002243 545 521.000002243 526 550 c 0,47,48
 516.722299256 564.160701135 516.722299256 564.160701135 500.291490665 574.744848347 c 1,49,-1
 307.649950921 118.5346565 l 1,38,39
429.490331288 600.006618104 m 1,50,51
 399.432120057 605.297256439 399.432120057 605.297256439 366.600337411 606.549480278 c 0,52,53
 274.733782146 603.156843714 274.733782146 603.156843714 232 572.5 c 0,54,55
 209 556 209 556 200 533 c 128,-1,56
 191 510 191 510 191 482 c 2,57,-1
 191 237 l 2,58,59
 191 198 191 198 209.5 168.5 c 0,60,61
 218.687663289 153.849401782 218.687663289 153.849401782 235.64454334 143.021751494 c 1,62,-1
 429.490331288 600.006618104 l 1,50,51
EndSplineSet
Substitution2: "'ss12' Style Set 12 in Latin lookup 26 subtable" Oslash.v
Substitution2: "'ss01' Style Set 1 in Latin lookup 22 subtable" Oslash.v
Substitution2: "'vert' Vertical Alternates in Latin lookup 21 subtable" Oslash.v
Position2: "'ss11' Style Set 11 in Latin lookup 1 per glyph data 42" dx=272 dy=0 dh=543 dv=0
EndChar

StartChar: Thorn
Encoding: 222 222 117
Width: 692
GlyphClass: 1
Flags: W
LayerCount: 2
Fore
SplineSet
212 496 m 1,0,-1
 212 222 l 1,1,-1
 368 222 l 2,2,3
 450.636363636 222 450.636363636 222 482 256.5 c 0,4,5
 497 273 497 273 502.5 295.5 c 128,-1,6
 508 318 508 318 508 345 c 2,7,-1
 508 370.000007764 l 2,8,9
 508 397.000003307 508 397.000003307 502.5 420 c 128,-1,10
 497 443 497 443 482 460 c 0,11,12
 450.235294118 496 450.235294118 496 368 496 c 2,13,-1
 212 496 l 1,0,-1
368.000005011 212 m 1,14,-1
 418 212 l 1,15,-1
 368.000005011 212 l 1,14,-1
202 65 m 1,16,-1
 162 65 l 1,17,-1
 152 65 l 1,18,-1
 152 655 l 1,19,-1
 162 655 l 1,20,-1
 202 655 l 1,21,-1
 212 655 l 1,22,-1
 212 556 l 1,23,-1
 418 556 l 2,24,25
 505.333333333 556 505.333333333 556 540 517 c 0,26,27
 556 499 556 499 562 474 c 128,-1,28
 568 449 568 449 568 420 c 2,29,-1
 568 295 l 2,30,31
 568 266 568 266 562 241.5 c 128,-1,32
 556 217 556 217 540 199.5 c 0,33,34
 505.714285714 162 505.714285714 162 418 162 c 2,35,-1
 212 162 l 1,36,-1
 212 65 l 1,37,-1
 202 65 l 1,16,-1
EndSplineSet
Substitution2: "'ss12' Style Set 12 in Latin lookup 26 subtable" Thorn.v
Substitution2: "'ss01' Style Set 1 in Latin lookup 22 subtable" Thorn.v
Substitution2: "'vert' Vertical Alternates in Latin lookup 21 subtable" Thorn.v
Position2: "'ss11' Style Set 11 in Latin lookup 1 per glyph data 63" dx=294 dy=0 dh=588 dv=0
EndChar

StartChar: Hbar
Encoding: 294 294 119
Width: 779
GlyphClass: 1
Flags: W
LayerCount: 2
Fore
SplineSet
211 65 m 1,0,-1
 171 65 l 1,1,-1
 161 65 l 1,2,-1
 161 479 l 1,3,-1
 95 479 l 1,4,-1
 95 489 l 1,5,-1
 95 529 l 1,6,-1
 95 539 l 1,7,-1
 161 539 l 1,8,-1
 161 655 l 1,9,-1
 171 655 l 1,10,-1
 211 655 l 1,11,-1
 221 655 l 1,12,-1
 221 539 l 1,13,-1
 558 539 l 1,14,-1
 558 655 l 1,15,-1
 568 655 l 1,16,-1
 608 655 l 1,17,-1
 618 655 l 1,18,-1
 618 539 l 1,19,-1
 684 539 l 1,20,-1
 684 529 l 1,21,-1
 684 489 l 1,22,-1
 684 479 l 1,23,-1
 618 479 l 1,24,-1
 618 65 l 1,25,-1
 608 65 l 1,26,-1
 568 65 l 1,27,-1
 558 65 l 1,28,-1
 558 217 l 1,29,-1
 221 217 l 1,30,-1
 221 65 l 1,31,-1
 211 65 l 1,0,-1
558 277 m 1,32,-1
 558 479 l 1,33,-1
 221 479 l 1,34,-1
 221 277 l 1,35,-1
 558 277 l 1,32,-1
EndSplineSet
Substitution2: "'ss12' Style Set 12 in Latin lookup 26 subtable" Hbar.v
Substitution2: "'ss01' Style Set 1 in Latin lookup 22 subtable" Hbar.v
Substitution2: "'vert' Vertical Alternates in Latin lookup 21 subtable" Hbar.v
Position2: "'ss11' Style Set 11 in Latin lookup 1 per glyph data 30" dx=251 dy=0 dh=501 dv=0
EndChar

StartChar: IJ
Encoding: 306 306 120
Width: 744
GlyphClass: 1
Flags: W
LayerCount: 2
Fore
SplineSet
162 375 m 1,0,-1
 152 375 l 1,1,-1
 152 655 l 1,2,-1
 162 655 l 1,3,-1
 202 655 l 1,4,-1
 212 655 l 1,5,-1
 212 375 l 1,6,-1
 202 375 l 1,7,-1
 162 375 l 1,0,-1
547 655 m 1,8,-1
 587 655 l 1,9,-1
 597 655 l 1,10,-1
 597 231 l 2,11,12
 597 191 597 191 591 160 c 128,-1,13
 585 129 585 129 569 108 c 128,-1,14
 553 87 553 87 523 76 c 128,-1,15
 493 65 493 65 445 65 c 2,16,-1
 134 65 l 1,17,-1
 134 75 l 1,18,-1
 134 115 l 1,19,-1
 134 125 l 1,20,-1
 395 125 l 2,21,22
 483 125 483 125 510 164.5 c 128,-1,23
 537 204 537 204 537 281 c 2,24,-1
 537 655 l 1,25,-1
 547 655 l 1,8,-1
EndSplineSet
Substitution2: "'ss12' Style Set 12 in Latin lookup 26 subtable" IJ.v
Substitution2: "'ss01' Style Set 1 in Latin lookup 22 subtable" IJ.v
Substitution2: "'vert' Vertical Alternates in Latin lookup 21 subtable" IJ.v
Substitution2: "'ss08' Style Set 8 in Latin lookup 16 subtable" IJ.stack
Position2: "'ss11' Style Set 11 in Latin lookup 1 per glyph data 39" dx=268 dy=0 dh=536 dv=0
EndChar

StartChar: Ldot
Encoding: 319 319 121
Width: 695
GlyphClass: 1
Flags: W
LayerCount: 2
Fore
SplineSet
552 417 m 1,0,-1
 512 417 l 1,1,-1
 502 417 l 1,2,-1
 502 522 l 1,3,-1
 512 522 l 1,4,-1
 552 522 l 1,5,-1
 562 522 l 1,6,-1
 562 417 l 1,7,-1
 552 417 l 1,0,-1
153 65 m 1,8,-1
 153 655 l 1,9,-1
 163 655 l 1,10,-1
 203 655 l 1,11,-1
 213 655 l 1,12,-1
 213 125 l 1,13,-1
 511 125 l 1,14,-1
 511 242 l 1,15,-1
 521 242 l 1,16,-1
 561 242 l 1,17,-1
 571 242 l 1,18,-1
 571 65 l 1,19,-1
 153 65 l 1,8,-1
EndSplineSet
Substitution2: "'ss12' Style Set 12 in Latin lookup 26 subtable" Ldot.v
Substitution2: "'ss01' Style Set 1 in Latin lookup 22 subtable" Ldot.v
Substitution2: "'vert' Vertical Alternates in Latin lookup 21 subtable" Ldot.v
Substitution2: "'ss05' Style Set 5 in Latin lookup 13 subtable" Ldot.salt
Position2: "'ss11' Style Set 11 in Latin lookup 1 per glyph data 61" dx=293 dy=0 dh=585 dv=0
EndChar

StartChar: Lslash
Encoding: 321 321 122
Width: 705
GlyphClass: 1
Flags: W
LayerCount: 2
Fore
SplineSet
581 65 m 1,0,-1
 163 65 l 1,1,-1
 163 357.666666667 l 1,2,-1
 85 344.666666667 l 1,3,-1
 85 413 l 1,4,-1
 163 426 l 1,5,-1
 163 655 l 1,6,-1
 173 655 l 1,7,-1
 213 655 l 1,8,-1
 223 655 l 1,9,-1
 223 436.035714286 l 1,10,-1
 335 454.035714286 l 1,11,-1
 335 386 l 1,12,-1
 223 368 l 1,13,-1
 223 125 l 1,14,-1
 521 125 l 1,15,-1
 521 322 l 1,16,-1
 531 322 l 1,17,-1
 571 322 l 1,18,-1
 581 322 l 1,19,-1
 581 65 l 1,0,-1
EndSplineSet
Substitution2: "'ss12' Style Set 12 in Latin lookup 26 subtable" Lslash.v
Substitution2: "'ss01' Style Set 1 in Latin lookup 22 subtable" Lslash.v
Substitution2: "'vert' Vertical Alternates in Latin lookup 21 subtable" Lslash.v
Substitution2: "'ss05' Style Set 5 in Latin lookup 13 subtable" Lslash.salt
Position2: "'ss11' Style Set 11 in Latin lookup 1 per glyph data 59" dx=288 dy=0 dh=575 dv=0
EndChar

StartChar: Eng
Encoding: 330 330 123
Width: 746
GlyphClass: 1
Flags: W
LayerCount: 2
Fore
SplineSet
420 36 m 1,0,1
 481 36 481 36 509 56.5 c 128,-1,2
 537 77 537 77 537 125 c 2,3,-1
 537 482 l 2,4,5
 537 538 537 538 497.5 572.5 c 0,6,7
 462.621758465 602.963274252 462.621758465 602.963274252 371.996579661 606.527676764 c 1,8,9
 281.319739153 602.963274933 281.319739153 602.963274933 246 572.5 c 0,10,11
 206 538 206 538 206 482 c 2,12,-1
 206 65 l 1,13,-1
 196 65 l 1,14,-1
 156 65 l 1,15,-1
 146 65 l 1,16,-1
 146 532 l 2,17,18
 146 592 146 592 188 629.5 c 128,-1,19
 230 667 230 667 347 667 c 2,20,-1
 397 667 l 2,21,22
 514 667 514 667 555.5 629.5 c 128,-1,23
 597 592 597 592 597 532 c 2,24,-1
 597 75 l 2,25,26
 597 23 597 23 568 -0.5 c 128,-1,27
 539 -24 539 -24 470 -24 c 2,28,-1
 420 -24 l 1,29,-1
 420 36 l 1,0,1
EndSplineSet
Substitution2: "'ss12' Style Set 12 in Latin lookup 26 subtable" Eng.v
Substitution2: "'ss01' Style Set 1 in Latin lookup 22 subtable" Eng.v
Substitution2: "'vert' Vertical Alternates in Latin lookup 21 subtable" Eng.v
Position2: "'ss11' Style Set 11 in Latin lookup 1 per glyph data 38" dx=267 dy=0 dh=534 dv=0
EndChar

StartChar: OE
Encoding: 338 338 124
Width: 1015
GlyphClass: 1
Flags: W
LayerCount: 2
Fore
SplineSet
301 65 m 2,0,1
 205.833333333 65 205.833333333 65 169 104 c 0,2,3
 152 122 152 122 146.5 147 c 128,-1,4
 141 172 141 172 141 201 c 2,5,-1
 141 516 l 2,6,7
 141 545 141 545 147 570.5 c 128,-1,8
 153 596 153 596 170 614.5 c 0,9,10
 207.216216216 655 207.216216216 655 301 655 c 2,11,-1
 891 655 l 1,12,-1
 891 645 l 1,13,-1
 891 605 l 1,14,-1
 891 595 l 1,15,-1
 584 595 l 1,16,-1
 584 395 l 1,17,-1
 810 395 l 1,18,-1
 810 385 l 1,19,-1
 810 345 l 1,20,-1
 810 335 l 1,21,-1
 584 335 l 1,22,-1
 584 125 l 1,23,-1
 891 125 l 1,24,-1
 891 115 l 1,25,-1
 891 75 l 1,26,-1
 891 65 l 1,27,-1
 301 65 l 2,0,1
201 246 m 2,28,29
 201 220 201 220 207 197.5 c 128,-1,30
 213 175 213 175 229.5 159 c 128,-1,31
 246 143 246 143 275 134 c 128,-1,32
 304 125 304 125 351 125 c 2,33,-1
 524 125 l 1,34,-1
 524 595 l 1,35,-1
 350.999989977 595 l 2,36,37
 263.823529412 595 263.823529412 595 229 558 c 0,38,39
 213 541 213 541 207 517 c 128,-1,40
 201 493 201 493 201 466 c 2,41,-1
 201 246 l 2,28,29
191 250.999995831 m 1,42,-1
 191 201 l 1,43,-1
 191 250.999995831 l 1,42,-1
EndSplineSet
Substitution2: "'ss12' Style Set 12 in Latin lookup 26 subtable" OE.v
Substitution2: "'ss01' Style Set 1 in Latin lookup 22 subtable" OE.v
Substitution2: "'vert' Vertical Alternates in Latin lookup 21 subtable" OE.v
Position2: "'ss11' Style Set 11 in Latin lookup 1 per glyph data 18" dx=133 dy=0 dh=265 dv=0
EndChar

StartChar: Tbar
Encoding: 358 358 125
Width: 656
GlyphClass: 1
Flags: W
LayerCount: 2
Fore
SplineSet
492 331 m 1,0,-1
 492 291 l 1,1,-1
 492 281 l 1,2,-1
 358 281 l 1,3,-1
 358 65 l 1,4,-1
 348 65 l 1,5,-1
 308 65 l 1,6,-1
 298 65 l 1,7,-1
 298 281 l 1,8,-1
 163 281 l 1,9,-1
 163 291 l 1,10,-1
 163 331 l 1,11,-1
 163 341 l 1,12,-1
 298 341 l 1,13,-1
 298 595 l 1,14,-1
 93 595 l 1,15,-1
 93 605 l 1,16,-1
 93 645 l 1,17,-1
 93 655 l 1,18,-1
 563 655 l 1,19,-1
 563 645 l 1,20,-1
 563 605 l 1,21,-1
 563 595 l 1,22,-1
 358 595 l 1,23,-1
 358 341 l 1,24,-1
 492 341 l 1,25,-1
 492 331 l 1,0,-1
EndSplineSet
Substitution2: "'ss12' Style Set 12 in Latin lookup 26 subtable" Tbar.v
Substitution2: "'ss01' Style Set 1 in Latin lookup 22 subtable" Tbar.v
Substitution2: "'vert' Vertical Alternates in Latin lookup 21 subtable" Tbar.v
Position2: "'ss11' Style Set 11 in Latin lookup 1 per glyph data 69" dx=312 dy=0 dh=624 dv=0
EndChar

StartChar: Germandbls
Encoding: 7838 7838 126
Width: 759
GlyphClass: 1
Flags: W
LayerCount: 2
Fore
SplineSet
472.891003663 557.306555408 m 0,0,1
 461.430114674 595 461.430114674 595 406 595 c 2,2,-1
 218 595 l 1,3,-1
 218 65 l 1,4,-1
 208 65 l 1,5,-1
 168 65 l 1,6,-1
 158 65 l 1,7,-1
 158 655 l 1,8,-1
 456 655 l 2,9,10
 507 655 507 655 526 627 c 0,11,12
 536.617647059 611.352941176 536.617647059 611.352941176 536.617647059 586.961937716 c 2,13,-1
 536.617647059 536.961937716 l 2,14,15
 536.617647059 517.705882353 536.617647059 517.705882353 530 493 c 2,16,-1
 503.888888889 399 l 1,17,-1
 536 399 l 2,18,19
 588 399 588 399 614.5 375.5 c 128,-1,20
 641 352 641 352 641 301 c 2,21,-1
 641 163 l 2,22,23
 641 112 641 112 615 88.5 c 128,-1,24
 589 65 589 65 527 65 c 2,25,-1
 421 65 l 1,26,-1
 421 75 l 1,27,-1
 421 115 l 1,28,-1
 421 125 l 1,29,-1
 477 125 l 2,30,31
 533 125 533 125 557 146 c 128,-1,32
 581 167 581 167 581 213 c 2,33,-1
 581 251 l 2,34,35
 581 298 581 298 556.5 318.5 c 128,-1,36
 532 339 532 339 486 339 c 2,37,-1
 411.897435897 339 l 1,38,-1
 470 545 l 2,39,40
 471.684865795 551.350647995 471.684865795 551.350647995 472.891003663 557.306555408 c 0,0,1
EndSplineSet
Substitution2: "'ss12' Style Set 12 in Latin lookup 26 subtable" Germandbls.v
Substitution2: "'ss01' Style Set 1 in Latin lookup 22 subtable" Germandbls.v
Substitution2: "'vert' Vertical Alternates in Latin lookup 21 subtable" Germandbls.v
Position2: "'ss11' Style Set 11 in Latin lookup 1 per glyph data 33" dx=261 dy=0 dh=521 dv=0
EndChar

StartChar: A.salt
Encoding: 57600 57600 127
Width: 736
GlyphClass: 1
Flags: W
LayerCount: 2
Fore
SplineSet
580 65 m 1,0,-1
 540 65 l 1,1,-1
 530 65 l 1,2,-1
 530 246 l 1,3,-1
 209 246 l 1,4,-1
 209 65 l 1,5,-1
 199 65 l 1,6,-1
 159 65 l 1,7,-1
 149 65 l 1,8,-1
 149 532 l 2,9,10
 149 562 149 562 157.5 587 c 128,-1,11
 166 612 166 612 187.5 630 c 128,-1,12
 209 648 209 648 246.5 657.5 c 128,-1,13
 284 667 284 667 343 667 c 2,14,-1
 393 667 l 2,15,16
 504.777777778 667 504.777777778 667 550 630 c 0,17,18
 572 612 572 612 581 587 c 128,-1,19
 590 562 590 562 590 532 c 2,20,-1
 590 65 l 1,21,-1
 580 65 l 1,0,-1
209 482 m 2,22,-1
 209 306 l 1,23,-1
 530 306 l 1,24,-1
 530 482.000006476 l 2,25,26
 530 510.00000266 530 510.00000266 521.5 533 c 0,27,28
 496.269110702 601.271818102 496.269110702 601.271818102 368.013578169 606.51126191 c 1,29,30
 240.756798155 601.300794696 240.756798155 601.300794696 217 533 c 0,31,32
 209 510 209 510 209 482 c 2,22,-1
EndSplineSet
Substitution2: "'ss12' Style Set 12 in Latin lookup 26 subtable" A.salt_v
Substitution2: "'ss01' Style Set 1 in Latin lookup 22 subtable" A.salt_v
Substitution2: "'vert' Vertical Alternates in Latin lookup 21 subtable" A.salt_v
Position2: "'ss11' Style Set 11 in Latin lookup 1 per glyph data 43" dx=272 dy=0 dh=544 dv=0
EndChar

StartChar: Aring.salt
Encoding: 57606 57606 133
Width: 736
GlyphClass: 1
Flags: W
LayerCount: 2
Fore
SplineSet
200 830 m 2,0,1
 200 852 200 852 205.5 871 c 128,-1,2
 211 890 211 890 226 903 c 0,3,4
 258.307692308 931 258.307692308 931 341 931 c 2,5,-1
 391 931 l 2,6,7
 480 931 480 931 507 902.5 c 128,-1,8
 534 874 534 874 534 830 c 2,9,-1
 534 735 l 2,10,11
 534 690 534 690 507 662.5 c 0,12,13
 503.200631363 658.630272685 503.200631363 658.630272685 498.173577506 655.30508317 c 1,14,15
 563.145978038 636.59450545 563.145978038 636.59450545 581 587 c 0,16,17
 590 562 590 562 590 532 c 2,18,-1
 590 65 l 1,19,-1
 580 65 l 1,20,-1
 540 65 l 1,21,-1
 530 65 l 1,22,-1
 530 246 l 1,23,-1
 209 246 l 1,24,-1
 209 65 l 1,25,-1
 199 65 l 1,26,-1
 159 65 l 1,27,-1
 149 65 l 1,28,-1
 149 532 l 2,29,30
 149 562 149 562 157.5 587 c 0,31,32
 174.12672782 635.902140647 174.12672782 635.902140647 236.560280093 654.74802448 c 1,33,34
 213.112561467 668.89411143 213.112561467 668.89411143 205.5 694.5 c 0,35,36
 200 713 200 713 200 735 c 2,37,-1
 200 830 l 2,0,1
209 482 m 2,38,-1
 209 306 l 1,39,-1
 530 306 l 1,40,-1
 530 482.000006476 l 2,41,42
 530 510.00000266 530 510.00000266 521.5 533 c 0,43,44
 496.269110702 601.271818102 496.269110702 601.271818102 368.013578169 606.51126191 c 1,45,46
 240.756798155 601.300794696 240.756798155 601.300794696 217 533 c 0,47,48
 209 510 209 510 209 482 c 2,38,-1
473.97565673 782.470702845 m 0,49,50
 473.196792701 821.757744417 473.196792701 821.757744417 447.5 846 c 0,51,52
 425.36345952 866.883528755 425.36345952 866.883528755 365.894895243 870.322186441 c 1,53,54
 306.75856996 866.924900681 306.75856996 866.924900681 285.5 846.5 c 0,55,56
 260.763787239 822.733834798 260.763787239 822.733834798 260.022875806 782.500304946 c 0,57,58
 260.763739116 742.281188085 260.763739116 742.281188085 285.5 719 c 0,59,60
 306.779915976 698.971843788 306.779915976 698.971843788 366.013692622 695.657314215 c 1,61,62
 425.385576989 698.971843386 425.385576989 698.971843386 447.5 719 c 0,63,64
 473.196850933 742.272619713 473.196850933 742.272619713 473.97565673 782.470702845 c 0,49,50
EndSplineSet
Substitution2: "'ss12' Style Set 12 in Latin lookup 26 subtable" Aring.salt_v
Substitution2: "'ss01' Style Set 1 in Latin lookup 22 subtable" Aring.salt_v
Substitution2: "'vert' Vertical Alternates in Latin lookup 21 subtable" Aring.salt_v
Position2: "'ss11' Style Set 11 in Latin lookup 1 per glyph data 43" dx=272 dy=0 dh=544 dv=0
EndChar

StartChar: Aogonek.salt
Encoding: 57609 57609 136
Width: 736
GlyphClass: 1
Flags: W
LayerCount: 2
Fore
SplineSet
607 -131 m 1,0,-1
 607 -141 l 1,1,-1
 533 -141 l 2,2,3
 496 -141 496 -141 486 -122 c 0,4,5
 479.75 -110.125 479.75 -110.125 479.75 -91.21875 c 2,6,-1
 479.75 -41.21875 l 2,7,8
 479.75 -29.875 479.75 -29.875 482 -16 c 2,9,-1
 494 67 l 2,10,11
 498 91 498 91 504 101 c 128,-1,12
 510 111 510 111 530 122 c 1,13,-1
 530 246 l 1,14,-1
 209 246 l 1,15,-1
 209 65 l 1,16,-1
 199 65 l 1,17,-1
 159 65 l 1,18,-1
 149 65 l 1,19,-1
 149 532 l 2,20,21
 149 562 149 562 157.5 587 c 128,-1,22
 166 612 166 612 187.5 630 c 128,-1,23
 209 648 209 648 246.5 657.5 c 128,-1,24
 284 667 284 667 343 667 c 2,25,-1
 393 667 l 2,26,27
 504.777777778 667 504.777777778 667 550 630 c 0,28,29
 572 612 572 612 581 587 c 128,-1,30
 590 562 590 562 590 532 c 2,31,-1
 590 65 l 1,32,-1
 587 65 l 1,33,34
 568 55 568 55 562.5 47 c 128,-1,35
 557 39 557 39 554 17 c 2,36,-1
 543.206973145 -59.4506068871 l 1,37,38
 543.988687849 -62.1161927865 543.988687849 -62.1161927865 545 -64.5 c 0,39,40
 552 -81 552 -81 583 -81 c 2,41,-1
 607 -81 l 1,42,-1
 607 -91 l 1,43,-1
 607 -131 l 1,0,-1
209 482 m 2,44,-1
 209 306 l 1,45,-1
 530 306 l 1,46,-1
 530 482.000006476 l 2,47,48
 530 510.00000266 530 510.00000266 521.5 533 c 0,49,50
 496.269110702 601.271818102 496.269110702 601.271818102 368.013578169 606.51126191 c 1,51,52
 240.756798155 601.300794696 240.756798155 601.300794696 217 533 c 0,53,54
 209 510 209 510 209 482 c 2,44,-1
EndSplineSet
Substitution2: "'ss12' Style Set 12 in Latin lookup 26 subtable" Aogonek.salt_v
Substitution2: "'ss01' Style Set 1 in Latin lookup 22 subtable" Aogonek.salt_v
Substitution2: "'vert' Vertical Alternates in Latin lookup 21 subtable" Aogonek.salt_v
Position2: "'ss11' Style Set 11 in Latin lookup 1 per glyph data 43" dx=272 dy=0 dh=544 dv=0
EndChar

StartChar: E.salt
Encoding: 57610 57610 137
Width: 643
GlyphClass: 1
Flags: W
LayerCount: 2
Fore
SplineSet
529 75 m 1,0,-1
 529 65 l 1,1,-1
 297 65 l 2,2,3
 200 65 200 65 168.5 95 c 128,-1,4
 137 125 137 125 137 194 c 2,5,-1
 137 524 l 2,6,7
 137 595 137 595 169 625 c 128,-1,8
 201 655 201 655 297 655 c 2,9,-1
 529 655 l 1,10,-1
 529 645 l 1,11,-1
 529 605 l 1,12,-1
 529 595 l 1,13,-1
 347 595 l 2,14,15
 259 595 259 595 228 567.5 c 128,-1,16
 197 540 197 540 197 474 c 2,17,-1
 197 394 l 1,18,-1
 459 394 l 1,19,-1
 459 384 l 1,20,-1
 459 344 l 1,21,-1
 459 334 l 1,22,-1
 197 334 l 1,23,-1
 197 244 l 2,24,25
 197 179 197 179 227 152 c 128,-1,26
 257 125 257 125 347 125 c 2,27,-1
 529 125 l 1,28,-1
 529 115 l 1,29,-1
 529 75 l 1,0,-1
EndSplineSet
Substitution2: "'ss12' Style Set 12 in Latin lookup 26 subtable" E.salt_v
Substitution2: "'ss01' Style Set 1 in Latin lookup 22 subtable" E.salt_v
Substitution2: "'vert' Vertical Alternates in Latin lookup 21 subtable" E.salt_v
Position2: "'ss11' Style Set 11 in Latin lookup 1 per glyph data 76" dx=319 dy=0 dh=637 dv=0
EndChar

StartChar: Eogonek.salt
Encoding: 57618 57618 145
Width: 643
GlyphClass: 1
Flags: W
LayerCount: 2
Fore
SplineSet
529 -131 m 1,0,-1
 529 -141 l 1,1,-1
 455 -141 l 2,2,3
 418 -141 418 -141 408 -122 c 0,4,5
 401.75 -110.125 401.75 -110.125 401.75 -91.21875 c 2,6,-1
 401.75 -41.21875 l 2,7,8
 401.75 -29.875 401.75 -29.875 404 -16 c 2,9,-1
 415.710843373 65 l 1,10,-1
 297 65 l 2,11,12
 200 65 200 65 168.5 95 c 128,-1,13
 137 125 137 125 137 194 c 2,14,-1
 137 524 l 2,15,16
 137 595 137 595 169 625 c 128,-1,17
 201 655 201 655 297 655 c 2,18,-1
 529 655 l 1,19,-1
 529 645 l 1,20,-1
 529 605 l 1,21,-1
 529 595 l 1,22,-1
 347 595 l 2,23,24
 259 595 259 595 228 567.5 c 128,-1,25
 197 540 197 540 197 474 c 2,26,-1
 197 394 l 1,27,-1
 459 394 l 1,28,-1
 459 384 l 1,29,-1
 459 344 l 1,30,-1
 459 334 l 1,31,-1
 197 334 l 1,32,-1
 197 244 l 2,33,34
 197 179 197 179 227 152 c 128,-1,35
 257 125 257 125 347 125 c 2,36,-1
 529 125 l 1,37,-1
 529 115 l 1,38,-1
 556.666666667 115 l 1,39,-1
 529 94.25 l 1,40,-1
 529 75 l 1,41,-1
 529 65 l 1,42,-1
 509 65 l 1,43,44
 490 55 490 55 484.5 47 c 128,-1,45
 479 39 479 39 476 17 c 2,46,-1
 465.206973145 -59.4506068871 l 1,47,48
 465.988687849 -62.1161927865 465.988687849 -62.1161927865 467 -64.5 c 0,49,50
 474 -81 474 -81 505 -81 c 2,51,-1
 529 -81 l 1,52,-1
 529 -91 l 1,53,-1
 529 -131 l 1,0,-1
EndSplineSet
Substitution2: "'ss12' Style Set 12 in Latin lookup 26 subtable" Eogonek.salt_v
Substitution2: "'ss01' Style Set 1 in Latin lookup 22 subtable" Eogonek.salt_v
Substitution2: "'vert' Vertical Alternates in Latin lookup 21 subtable" Eogonek.salt_v
Position2: "'ss11' Style Set 11 in Latin lookup 1 per glyph data 76" dx=319 dy=0 dh=637 dv=0
EndChar

StartChar: I.salt
Encoding: 57620 57620 147
Width: 371
GlyphClass: 1
Flags: W
LayerCount: 2
Fore
SplineSet
206 655 m 1,0,-1
 216 655 l 1,1,-1
 216 65 l 1,2,-1
 206 65 l 1,3,-1
 166 65 l 1,4,-1
 156 65 l 1,5,-1
 156 655 l 1,6,-1
 166 655 l 1,7,-1
 206 655 l 1,0,-1
EndSplineSet
Substitution2: "'ss12' Style Set 12 in Latin lookup 26 subtable" I.salt_v
Substitution2: "'ss01' Style Set 1 in Latin lookup 22 subtable" I.salt_v
Substitution2: "'vert' Vertical Alternates in Latin lookup 21 subtable" I.salt_v
Position2: "'ss11' Style Set 11 in Latin lookup 1 per glyph data 115" dx=455 dy=0 dh=909 dv=0
EndChar

StartChar: Igrave.salt
Encoding: 57621 57621 148
Width: 371
GlyphClass: 1
Flags: W
LayerCount: 2
Fore
SplineSet
206 655 m 1,0,-1
 216 655 l 1,1,-1
 216 65 l 1,2,-1
 206 65 l 1,3,-1
 166 65 l 1,4,-1
 156 65 l 1,5,-1
 156 655 l 1,6,-1
 166 655 l 1,7,-1
 206 655 l 1,0,-1
55 890 m 1,8,-1
 55 900 l 1,9,-1
 55 906.220095694 l 1,10,-1
 314 874 l 1,11,-1
 314 864 l 1,12,-1
 314 824 l 1,13,-1
 314 814 l 1,14,-1
 314 807.779904306 l 1,15,-1
 55 840 l 1,16,-1
 55 850 l 1,17,-1
 55 890 l 1,8,-1
EndSplineSet
Substitution2: "'ss12' Style Set 12 in Latin lookup 26 subtable" Igrave.salt_v
Substitution2: "'ss01' Style Set 1 in Latin lookup 22 subtable" Igrave.salt_v
Substitution2: "'vert' Vertical Alternates in Latin lookup 21 subtable" Igrave.salt_v
Position2: "'ss11' Style Set 11 in Latin lookup 1 per glyph data 115" dx=455 dy=0 dh=909 dv=0
EndChar

StartChar: Iacute.salt
Encoding: 57622 57622 149
Width: 371
GlyphClass: 1
Flags: W
LayerCount: 2
Fore
SplineSet
206 655 m 1,0,-1
 216 655 l 1,1,-1
 216 65 l 1,2,-1
 206 65 l 1,3,-1
 166 65 l 1,4,-1
 156 65 l 1,5,-1
 156 655 l 1,6,-1
 166 655 l 1,7,-1
 206 655 l 1,0,-1
55 874 m 1,8,-1
 314 906.220095694 l 1,9,-1
 314 840 l 1,10,-1
 55 807.779904306 l 1,11,-1
 55 874 l 1,8,-1
EndSplineSet
Substitution2: "'ss12' Style Set 12 in Latin lookup 26 subtable" Iacute.salt_v
Substitution2: "'ss01' Style Set 1 in Latin lookup 22 subtable" Iacute.salt_v
Substitution2: "'vert' Vertical Alternates in Latin lookup 21 subtable" Iacute.salt_v
Position2: "'ss11' Style Set 11 in Latin lookup 1 per glyph data 115" dx=455 dy=0 dh=909 dv=0
EndChar

StartChar: Iogonek.salt
Encoding: 57628 57628 155
Width: 371
GlyphClass: 1
Flags: W
LayerCount: 2
Fore
SplineSet
236 -131 m 1,0,-1
 236 -141 l 1,1,-1
 162 -141 l 2,2,3
 125 -141 125 -141 115 -122 c 0,4,5
 108.75 -110.125 108.75 -110.125 108.75 -91.21875 c 2,6,-1
 108.75 -41.21875 l 2,7,8
 108.75 -29.875 108.75 -29.875 111 -16 c 2,9,-1
 123 67 l 2,10,11
 127 91 127 91 133 101 c 128,-1,12
 139 111 139 111 160 123 c 1,13,-1
 160 655 l 1,14,-1
 170 655 l 1,15,-1
 210 655 l 1,16,-1
 220 655 l 1,17,-1
 220 65 l 1,18,-1
 216 65 l 1,19,20
 197 55 197 55 191.5 47 c 128,-1,21
 186 39 186 39 183 17 c 2,22,-1
 172.206973145 -59.4506068871 l 1,23,24
 172.988687849 -62.1161927865 172.988687849 -62.1161927865 174 -64.5 c 0,25,26
 181 -81 181 -81 212 -81 c 2,27,-1
 236 -81 l 1,28,-1
 236 -91 l 1,29,-1
 236 -131 l 1,0,-1
EndSplineSet
Substitution2: "'ss12' Style Set 12 in Latin lookup 26 subtable" Iogonek.salt_v
Substitution2: "'ss01' Style Set 1 in Latin lookup 22 subtable" Iogonek.salt_v
Substitution2: "'vert' Vertical Alternates in Latin lookup 21 subtable" Iogonek.salt_v
Position2: "'ss11' Style Set 11 in Latin lookup 1 per glyph data 115" dx=455 dy=0 dh=909 dv=0
EndChar

StartChar: L.salt
Encoding: 57630 57630 157
Width: 615
GlyphClass: 1
Flags: W
LayerCount: 2
Fore
SplineSet
153 65 m 1,0,-1
 153 655 l 1,1,-1
 163 655 l 1,2,-1
 203 655 l 1,3,-1
 213 655 l 1,4,-1
 213 125 l 1,5,-1
 522 125 l 1,6,-1
 522 115 l 1,7,-1
 522 75 l 1,8,-1
 522 65 l 1,9,-1
 153 65 l 1,0,-1
EndSplineSet
Substitution2: "'ss12' Style Set 12 in Latin lookup 26 subtable" L.salt_v
Substitution2: "'ss01' Style Set 1 in Latin lookup 22 subtable" L.salt_v
Substitution2: "'vert' Vertical Alternates in Latin lookup 21 subtable" L.salt_v
Position2: "'ss11' Style Set 11 in Latin lookup 1 per glyph data 84" dx=333 dy=0 dh=665 dv=0
EndChar

StartChar: Lslash.salt
Encoding: 57635 57635 162
Width: 625
GlyphClass: 1
Flags: W
LayerCount: 2
Fore
SplineSet
163 65 m 1,0,-1
 163 357.666666667 l 1,1,-1
 85 344.666666667 l 1,2,-1
 85 413 l 1,3,-1
 163 426 l 1,4,-1
 163 655 l 1,5,-1
 173 655 l 1,6,-1
 213 655 l 1,7,-1
 223 655 l 1,8,-1
 223 436.035714286 l 1,9,-1
 335 454.035714286 l 1,10,-1
 335 386 l 1,11,-1
 223 368 l 1,12,-1
 223 125 l 1,13,-1
 532 125 l 1,14,-1
 532 115 l 1,15,-1
 532 75 l 1,16,-1
 532 65 l 1,17,-1
 163 65 l 1,0,-1
EndSplineSet
Substitution2: "'ss12' Style Set 12 in Latin lookup 26 subtable" Lslash.salt_v
Substitution2: "'ss01' Style Set 1 in Latin lookup 22 subtable" Lslash.salt_v
Substitution2: "'vert' Vertical Alternates in Latin lookup 21 subtable" Lslash.salt_v
Position2: "'ss11' Style Set 11 in Latin lookup 1 per glyph data 82" dx=328 dy=0 dh=655 dv=0
EndChar

StartChar: M.salt
Encoding: 57636 57636 163
Width: 1070
GlyphClass: 1
Flags: W
LayerCount: 2
Fore
SplineSet
206 482 m 2,0,-1
 206 65 l 1,1,-1
 196 65 l 1,2,-1
 156 65 l 1,3,-1
 146 65 l 1,4,-1
 146 532 l 2,5,6
 146 592 146 592 185 629.5 c 128,-1,7
 224 667 224 667 331 667 c 2,8,-1
 381 667 l 2,9,10
 469 667 469 667 509.5 641 c 0,11,12
 524.350572523 631.466299121 524.350572523 631.466299121 535.100273301 619.646866449 c 1,13,14
 545.966087075 631.466299121 545.966087075 631.466299121 561 641 c 0,15,16
 602 667 602 667 690 667 c 2,17,-1
 740 667 l 2,18,19
 847 667 847 667 885.5 629.5 c 128,-1,20
 924 592 924 592 924 532 c 2,21,-1
 924 65 l 1,22,-1
 914 65 l 1,23,-1
 874 65 l 1,24,-1
 864 65 l 1,25,-1
 864 482 l 2,26,27
 864 538 864 538 827.5 572.5 c 0,28,29
 795.710701197 602.547419417 795.710701197 602.547419417 714.995833662 606.425348479 c 1,30,31
 634.224767778 602.547418705 634.224767778 602.547418705 602 572.5 c 0,32,33
 565 538 565 538 565 482 c 2,34,-1
 565 65 l 1,35,-1
 555 65 l 1,36,-1
 515 65 l 1,37,-1
 505 65 l 1,38,-1
 505 482 l 2,39,40
 505 538 505 538 468.5 572.5 c 0,41,42
 436.710701197 602.547419417 436.710701197 602.547419417 355.995833662 606.425348479 c 1,43,44
 275.224767778 602.547418705 275.224767778 602.547418705 243 572.5 c 0,45,46
 206 538 206 538 206 482 c 2,0,-1
EndSplineSet
Substitution2: "'ss12' Style Set 12 in Latin lookup 26 subtable" M.salt_v
Substitution2: "'ss01' Style Set 1 in Latin lookup 22 subtable" M.salt_v
Substitution2: "'vert' Vertical Alternates in Latin lookup 21 subtable" M.salt_v
Position2: "'ss11' Style Set 11 in Latin lookup 1 per glyph data 15" dx=105 dy=0 dh=210 dv=0
EndChar

StartChar: N.salt
Encoding: 57637 57637 164
Width: 746
GlyphClass: 1
Flags: W
LayerCount: 2
Fore
SplineSet
547 65 m 1,0,-1
 537 65 l 1,1,-1
 537 482 l 2,2,3
 537 538 537 538 497.5 572.5 c 0,4,5
 462.621758465 602.963274252 462.621758465 602.963274252 371.996579661 606.527676764 c 1,6,7
 281.319739153 602.963274933 281.319739153 602.963274933 246 572.5 c 0,8,9
 206 538 206 538 206 482 c 2,10,-1
 206 65 l 1,11,-1
 196 65 l 1,12,-1
 156 65 l 1,13,-1
 146 65 l 1,14,-1
 146 532 l 2,15,16
 146 592 146 592 188 629.5 c 128,-1,17
 230 667 230 667 347 667 c 2,18,-1
 397 667 l 2,19,20
 514 667 514 667 555.5 629.5 c 128,-1,21
 597 592 597 592 597 532 c 2,22,-1
 597 65 l 1,23,-1
 587 65 l 1,24,-1
 547 65 l 1,0,-1
EndSplineSet
Substitution2: "'ss12' Style Set 12 in Latin lookup 26 subtable" N.salt_v
Substitution2: "'ss01' Style Set 1 in Latin lookup 22 subtable" N.salt_v
Substitution2: "'vert' Vertical Alternates in Latin lookup 21 subtable" N.salt_v
Position2: "'ss11' Style Set 11 in Latin lookup 1 per glyph data 38" dx=267 dy=0 dh=534 dv=0
EndChar

StartChar: W.salt
Encoding: 57642 57642 169
Width: 1070
GlyphClass: 1
Flags: W
LayerCount: 2
Fore
SplineSet
136 655 m 1,0,-1
 146 655 l 1,1,-1
 186 655 l 1,2,-1
 196 655 l 1,3,-1
 196 238 l 2,4,5
 196 182 196 182 233.5 147.5 c 0,6,7
 266.305612901 117.318836131 266.305612901 117.318836131 350.003917579 113.540647689 c 1,8,9
 433.756978865 117.318836082 433.756978865 117.318836082 467 147.5 c 0,10,11
 505 182 505 182 505 238 c 2,12,-1
 505 655 l 1,13,-1
 515 655 l 1,14,-1
 555 655 l 1,15,-1
 565 655 l 1,16,-1
 565 238 l 2,17,18
 565 182 565 182 602.5 147.5 c 0,19,20
 635.305612901 117.318836131 635.305612901 117.318836131 719.003917579 113.540647689 c 1,21,22
 802.756978865 117.318836082 802.756978865 117.318836082 836 147.5 c 0,23,24
 874 182 874 182 874 238 c 2,25,-1
 874 655 l 1,26,-1
 884 655 l 1,27,-1
 924 655 l 1,28,-1
 934 655 l 1,29,-1
 934 188 l 2,30,31
 934 128 934 128 894 90.5 c 128,-1,32
 854 53 854 53 744 53 c 2,33,-1
 694 53 l 2,34,35
 603 53 603 53 561.5 79 c 0,36,37
 546.005340224 88.7074976913 546.005340224 88.7074976913 534.901832237 100.924224977 c 1,38,39
 523.681342424 88.7074976913 523.681342424 88.7074976913 508 79 c 0,40,41
 466 53 466 53 375 53 c 2,42,-1
 325 53 l 2,43,44
 215 53 215 53 175.5 90.5 c 128,-1,45
 136 128 136 128 136 188 c 2,46,-1
 136 655 l 1,0,-1
EndSplineSet
Substitution2: "'ss12' Style Set 12 in Latin lookup 26 subtable" W.salt_v
Substitution2: "'ss01' Style Set 1 in Latin lookup 22 subtable" W.salt_v
Substitution2: "'vert' Vertical Alternates in Latin lookup 21 subtable" W.salt_v
Position2: "'ss11' Style Set 11 in Latin lookup 1 per glyph data 15" dx=105 dy=0 dh=210 dv=0
EndChar

StartChar: X.salt
Encoding: 57647 57647 174
Width: 737
GlyphClass: 1
Flags: W
LayerCount: 2
Fore
SplineSet
295 329 m 2,0,1
 204 329 204 329 204 231 c 2,2,-1
 204 65 l 1,3,-1
 194 65 l 1,4,-1
 154 65 l 1,5,-1
 144 65 l 1,6,-1
 144 281 l 2,7,8
 144 384.060089589 144 384.060089589 235.965991235 388.773951088 c 1,9,-1
 160.902255639 655 l 1,10,-1
 235 655 l 1,11,-1
 310 389 l 1,12,-1
 428 389 l 1,13,-1
 503 655 l 1,14,-1
 513 655 l 1,15,-1
 553 655 l 1,16,-1
 563 655 l 1,17,-1
 577.097744361 655 l 1,18,-1
 502.034008765 388.773951088 l 1,19,20
 594 384.060089589 594 384.060089589 594 281 c 2,21,-1
 594 65 l 1,22,-1
 584 65 l 1,23,-1
 544 65 l 1,24,-1
 534 65 l 1,25,-1
 534 231 l 2,26,27
 534 329 534 329 443 329 c 2,28,-1
 295 329 l 2,0,1
EndSplineSet
Substitution2: "'ss12' Style Set 12 in Latin lookup 26 subtable" X.salt_v
Substitution2: "'ss01' Style Set 1 in Latin lookup 22 subtable" X.salt_v
Substitution2: "'vert' Vertical Alternates in Latin lookup 21 subtable" X.salt_v
Position2: "'ss11' Style Set 11 in Latin lookup 1 per glyph data 42" dx=272 dy=0 dh=543 dv=0
EndChar

StartChar: Y.salt
Encoding: 57648 57648 175
Width: 706
GlyphClass: 1
Flags: W
LayerCount: 2
Fore
SplineSet
333 65 m 1,0,-1
 323 65 l 1,1,-1
 323 267 l 1,2,3
 209 268 209 268 168.5 305 c 128,-1,4
 128 342 128 342 128 402 c 2,5,-1
 128 655 l 1,6,-1
 138 655 l 1,7,-1
 178 655 l 1,8,-1
 188 655 l 1,9,-1
 188 452 l 2,10,11
 188 396 188 396 227.5 361.5 c 0,12,13
 262.378241535 331.036725748 262.378241535 331.036725748 353.003420339 327.472323236 c 1,14,15
 443.680260847 331.036725067 443.680260847 331.036725067 479 361.5 c 0,16,17
 519 396 519 396 519 452 c 2,18,-1
 519 655 l 1,19,-1
 529 655 l 1,20,-1
 569 655 l 1,21,-1
 579 655 l 1,22,-1
 579 402 l 2,23,24
 579 342 579 342 537.5 304.5 c 128,-1,25
 496 267 496 267 383 267 c 1,26,-1
 383 65 l 1,27,-1
 373 65 l 1,28,-1
 333 65 l 1,0,-1
EndSplineSet
Substitution2: "'ss12' Style Set 12 in Latin lookup 26 subtable" Y.salt_v
Substitution2: "'ss01' Style Set 1 in Latin lookup 22 subtable" Y.salt_v
Substitution2: "'vert' Vertical Alternates in Latin lookup 21 subtable" Y.salt_v
Position2: "'ss11' Style Set 11 in Latin lookup 1 per glyph data 58" dx=287 dy=0 dh=574 dv=0
EndChar

StartChar: AE.salt
Encoding: 57653 57653 180
Width: 1013
GlyphClass: 1
Flags: W
LayerCount: 2
Fore
SplineSet
533 64 m 1,0,-1
 533 246 l 1,1,-1
 205 246 l 1,2,-1
 205 64 l 1,3,-1
 195 64 l 1,4,-1
 155 64 l 1,5,-1
 145 64 l 1,6,-1
 145 520 l 2,7,8
 145 580 145 580 179 617.5 c 128,-1,9
 213 655 213 655 312 655 c 2,10,-1
 899 655 l 1,11,-1
 899 645 l 1,12,-1
 899 605 l 1,13,-1
 899 595 l 1,14,-1
 593 595 l 1,15,-1
 593 393 l 1,16,-1
 819 393 l 1,17,-1
 819 383 l 1,18,-1
 819 343 l 1,19,-1
 819 333 l 1,20,-1
 593 333 l 1,21,-1
 593 124 l 1,22,-1
 900 124 l 1,23,-1
 900 114 l 1,24,-1
 900 74 l 1,25,-1
 900 64 l 1,26,-1
 533 64 l 1,0,-1
362 595 m 2,27,28
 269 595 269 595 237 560.5 c 128,-1,29
 205 526 205 526 205 470 c 2,30,-1
 205 306 l 1,31,-1
 533 306 l 1,32,-1
 533 595 l 1,33,-1
 362 595 l 2,27,28
EndSplineSet
Substitution2: "'ss12' Style Set 12 in Latin lookup 26 subtable" AE.salt_v
Substitution2: "'ss01' Style Set 1 in Latin lookup 22 subtable" AE.salt_v
Substitution2: "'vert' Vertical Alternates in Latin lookup 21 subtable" AE.salt_v
Position2: "'ss11' Style Set 11 in Latin lookup 1 per glyph data 19" dx=134 dy=0 dh=267 dv=0
EndChar

StartChar: ordfeminine
Encoding: 170 170 183
Width: 520
GlyphClass: 1
Flags: W
LayerCount: 2
Fore
SplineSet
439 48 m 1,0,-1
 439 40 l 1,1,-1
 81 40 l 1,2,-1
 81 48 l 1,3,-1
 81 90 l 1,4,-1
 81 98 l 1,5,-1
 439 98 l 1,6,-1
 439 90 l 1,7,-1
 439 48 l 1,0,-1
420 245 m 1,8,-1
 379 245 l 1,9,-1
 370 245 l 1,10,-1
 370 365 l 1,11,-1
 147 365 l 1,12,-1
 147 245 l 1,13,-1
 138 245 l 1,14,-1
 97 245 l 1,15,-1
 88 245 l 1,16,-1
 88 445 l 2,17,18
 88 483 88 483 100 513 c 2,19,-1
 145 629 l 2,20,21
 152 648 152 648 162 662 c 128,-1,22
 172 676 172 676 196 676 c 2,23,-1
 316 676 l 2,24,25
 339 676 339 676 349.5 662 c 128,-1,26
 360 648 360 648 368 628 c 2,27,-1
 417 513 l 2,28,29
 429 483 429 483 429 445 c 2,30,-1
 429 245 l 1,31,-1
 420 245 l 1,8,-1
247.999995824 617 m 2,32,33
 226.999999155 617 226.999999155 617 218.5 605.5 c 128,-1,34
 210 594 210 594 203 576 c 2,35,-1
 158 460 l 2,36,37
 151.717439163 442.408829658 151.717439163 442.408829658 148.996025475 424 c 1,38,-1
 367.671303613 424 l 1,39,40
 364.695957655 441.251318566 364.695957655 441.251318566 358 460 c 1,41,-1
 310 575 l 2,42,43
 302 594 302 594 293.5 605.5 c 128,-1,44
 285 617 285 617 265 617 c 2,45,-1
 247.999995824 617 l 2,32,33
EndSplineSet
Position2: "'ss11' Style Set 11 in Latin lookup 1 per glyph data 98" dx=380 dy=0 dh=760 dv=0
EndChar

StartChar: ordmasculine
Encoding: 186 186 184
Width: 525
GlyphClass: 1
Flags: W
LayerCount: 2
Fore
SplineSet
439 48 m 1,0,-1
 439 40 l 1,1,-1
 81 40 l 1,2,-1
 81 48 l 1,3,-1
 81 90 l 1,4,-1
 81 98 l 1,5,-1
 439 98 l 1,6,-1
 439 90 l 1,7,-1
 439 48 l 1,0,-1
432 331 m 2,8,9
 432 288 432 288 401.5 261.5 c 128,-1,10
 371 235 371 235 287 235 c 2,11,-1
 237 235 l 2,12,13
 153 235 153 235 123.5 261.5 c 128,-1,14
 94 288 94 288 94 331 c 2,15,-1
 94 590 l 2,16,17
 94 634 94 634 123.5 660.5 c 128,-1,18
 153 687 153 687 237 687 c 2,19,-1
 287 687 l 2,20,21
 371 687 371 687 401.5 660.5 c 128,-1,22
 432 634 432 634 432 590 c 2,23,-1
 432 331 l 2,8,9
373 381 m 2,24,-1
 373 540.000003453 l 2,25,26
 373 579.000001085 373 579.000001085 344 603.5 c 0,27,28
 319.911365009 623.850743354 319.911365009 623.850743354 262.014341853 627.297292677 c 1,29,30
 204.257992758 623.850743613 204.257992758 623.850743613 181 603.5 c 0,31,32
 153 579 153 579 153 540 c 2,33,-1
 153 381 l 2,34,35
 153 342 153 342 181 318 c 0,36,37
 204.257992408 298.064577936 204.257992408 298.064577936 262.014340097 294.688366358 c 1,38,39
 319.911364647 298.064577687 319.911364647 298.064577687 344 318 c 0,40,41
 373 342 373 342 373 381 c 2,24,-1
144 380.999997331 m 1,42,-1
 144 331 l 1,43,-1
 144 380.999997331 l 1,42,-1
EndSplineSet
Position2: "'ss11' Style Set 11 in Latin lookup 1 per glyph data 97" dx=378 dy=0 dh=755 dv=0
EndChar

StartChar: zero
Encoding: 48 48 185
Width: 727
GlyphClass: 1
Flags: W
LayerCount: 2
Fore
SplineSet
141 187 m 2,0,-1
 141 532 l 2,1,2
 141 562 141 562 150 587 c 128,-1,3
 159 612 159 612 181 629.5 c 0,4,5
 228.142857143 667 228.142857143 667 338 667 c 2,6,-1
 388 667 l 2,7,8
 504 667 504 667 545.5 629 c 128,-1,9
 587 591 587 591 587 532 c 2,10,-1
 587 187 l 2,11,12
 587 127 587 127 545.5 89.5 c 128,-1,13
 504 52 504 52 388 52 c 2,14,-1
 338 52 l 2,15,16
 178.8 52 178.8 52 150 132 c 0,17,18
 141 157 141 157 141 187 c 2,0,-1
201 482 m 2,19,-1
 201 236.999996961 l 2,20,21
 201 179.999999094 201 179.999999094 241 146 c 0,22,23
 276.143903666 116.127681884 276.143903666 116.127681884 363.007367109 112.501110431 c 1,24,25
 449.97749785 116.127681231 449.97749785 116.127681231 486 146 c 0,26,27
 527 180 527 180 527 237 c 2,28,-1
 527 482 l 2,29,30
 527 538 527 538 486 572.5 c 0,31,32
 449.959345204 602.82689245 449.959345204 602.82689245 362.919701303 606.495222295 c 1,33,34
 276.126166744 602.857241849 276.126166744 602.857241849 241 573 c 0,35,36
 201 539 201 539 201 482 c 2,19,-1
201 236.999996961 m 1,37,-1
 201 187 l 1,38,-1
 201 236.999996961 l 1,37,-1
EndSplineSet
Substitution2: "'ss12' Style Set 12 in Latin lookup 26 subtable" zero.v
Substitution2: "'ss01' Style Set 1 in Latin lookup 22 subtable" zero.v
Substitution2: "'vert' Vertical Alternates in Latin lookup 21 subtable" zero.v
Substitution2: "'sinf' Scientific Inferiors in Latin lookup 4 subtable" zero.sinf
Substitution2: "'sups' Superscript in Latin lookup 3 subtable" zero.sups
Position2: "'ss11' Style Set 11 in Latin lookup 1 per glyph data 47" dx=277 dy=0 dh=553 dv=0
EndChar

StartChar: one
Encoding: 49 49 186
Width: 601
GlyphClass: 1
Flags: W
LayerCount: 2
Fore
SplineSet
113 110 m 1,0,-1
 113 120 l 1,1,-1
 283 120 l 1,2,-1
 283 595 l 1,3,-1
 133 595 l 1,4,-1
 133 605 l 1,5,-1
 133 645 l 1,6,-1
 133 655 l 1,7,-1
 343 655 l 1,8,-1
 343 120 l 1,9,-1
 497 120 l 1,10,-1
 497 110 l 1,11,-1
 497 70 l 1,12,-1
 497 60 l 1,13,-1
 113 60 l 1,14,-1
 113 70 l 1,15,-1
 113 110 l 1,0,-1
EndSplineSet
Substitution2: "'ss12' Style Set 12 in Latin lookup 26 subtable" one.v
Substitution2: "'ss01' Style Set 1 in Latin lookup 22 subtable" one.v
Substitution2: "'vert' Vertical Alternates in Latin lookup 21 subtable" one.v
Substitution2: "'sinf' Scientific Inferiors in Latin lookup 4 subtable" one.sinf
Substitution2: "'sups' Superscript in Latin lookup 3 subtable" one.sups
Position2: "'ss11' Style Set 11 in Latin lookup 1 per glyph data 87" dx=340 dy=0 dh=679 dv=0
EndChar

StartChar: two
Encoding: 50 50 187
Width: 639
GlyphClass: 1
Flags: W
LayerCount: 2
Fore
SplineSet
441 477 m 2,0,-1
 441 518 l 2,1,2
 441 564 441 564 415 579.5 c 128,-1,3
 389 595 389 595 344 595 c 2,4,-1
 143 595 l 1,5,-1
 143 605 l 1,6,-1
 143 645 l 1,7,-1
 143 655 l 1,8,-1
 394 655 l 2,9,10
 445 655 445 655 473 636.5 c 128,-1,11
 501 618 501 618 501 568 c 2,12,-1
 501 427 l 2,13,14
 501 404 501 404 491.5 391 c 128,-1,15
 482 378 482 378 466 371 c 1,16,-1
 233 294 l 2,17,18
 205 284 205 284 194 269.5 c 128,-1,19
 183 255 183 255 183 221 c 2,20,-1
 183 125 l 1,21,-1
 523 125 l 1,22,-1
 523 115 l 1,23,-1
 523 75 l 1,24,-1
 523 65 l 1,25,-1
 124 65 l 1,26,-1
 124 271 l 2,27,28
 124 308 124 308 136 325.5 c 128,-1,29
 148 343 148 343 179 353 c 2,30,-1
 412 430 l 2,31,32
 425 435 425 435 433 446.5 c 128,-1,33
 441 458 441 458 441 477 c 2,0,-1
EndSplineSet
Substitution2: "'ss12' Style Set 12 in Latin lookup 26 subtable" two.v
Substitution2: "'ss01' Style Set 1 in Latin lookup 22 subtable" two.v
Substitution2: "'vert' Vertical Alternates in Latin lookup 21 subtable" two.v
Substitution2: "'sinf' Scientific Inferiors in Latin lookup 4 subtable" two.sinf
Substitution2: "'sups' Superscript in Latin lookup 3 subtable" two.sups
Position2: "'ss11' Style Set 11 in Latin lookup 1 per glyph data 77" dx=321 dy=0 dh=641 dv=0
EndChar

StartChar: three
Encoding: 51 51 188
Width: 637
GlyphClass: 1
Flags: W
LayerCount: 2
Fore
SplineSet
195 384 m 1,0,-1
 195 394 l 1,1,-1
 278 394 l 2,2,3
 346.2 394 346.2 394 371.5 421.5 c 0,4,5
 383 434 383 434 386 450.5 c 128,-1,6
 389 467 389 467 389 485 c 2,7,-1
 389 503 l 2,8,9
 389 542 389 542 365 568.5 c 128,-1,10
 341 595 341 595 268 595 c 2,11,-1
 114 595 l 1,12,-1
 114 605 l 1,13,-1
 114 645 l 1,14,-1
 114 655 l 1,15,-1
 318 655 l 2,16,17
 394.586206897 655 394.586206897 655 425 623.5 c 0,18,19
 439 609 439 609 444 590 c 128,-1,20
 449 571 449 571 449 549 c 2,21,-1
 449 435 l 2,22,23
 449 411.256439183 449 411.256439183 441.449687318 387.872417065 c 1,24,25
 471.366511949 381.249543164 471.366511949 381.249543164 488 364 c 0,26,27
 515 336 515 336 515 284 c 2,28,-1
 515 165 l 2,29,30
 515 143 515 143 510 124.5 c 128,-1,31
 505 106 505 106 491.5 93 c 0,32,33
 462.423076923 65 462.423076923 65 384 65 c 2,34,-1
 114 65 l 1,35,-1
 114 75 l 1,36,-1
 114 115 l 1,37,-1
 114 125 l 1,38,-1
 334 125 l 2,39,40
 409 125 409 125 432 149.5 c 128,-1,41
 455 174 455 174 455 215 c 2,42,-1
 455 234 l 2,43,44
 455 284 455 284 429.5 309 c 128,-1,45
 404 334 404 334 347 334 c 2,46,-1
 195 334 l 1,47,-1
 195 342 l 1,48,-1
 108 342 l 1,49,-1
 195 361.333333333 l 1,50,-1
 195 384 l 1,0,-1
EndSplineSet
Substitution2: "'ss12' Style Set 12 in Latin lookup 26 subtable" three.v
Substitution2: "'ss01' Style Set 1 in Latin lookup 22 subtable" three.v
Substitution2: "'vert' Vertical Alternates in Latin lookup 21 subtable" three.v
Substitution2: "'sinf' Scientific Inferiors in Latin lookup 4 subtable" three.sinf
Substitution2: "'sups' Superscript in Latin lookup 3 subtable" three.sups
Position2: "'ss11' Style Set 11 in Latin lookup 1 per glyph data 78" dx=322 dy=0 dh=643 dv=0
EndChar

StartChar: four
Encoding: 52 52 189
Width: 709
GlyphClass: 1
Flags: W
LayerCount: 2
Fore
SplineSet
547 65 m 1,0,-1
 507 65 l 1,1,-1
 497 65 l 1,2,-1
 497 242 l 1,3,-1
 258 242 l 2,4,5
 201 242 201 242 174 268.5 c 128,-1,6
 147 295 147 295 147 347 c 2,7,-1
 147 655 l 1,8,-1
 157 655 l 1,9,-1
 197 655 l 1,10,-1
 207 655 l 1,11,-1
 207 397 l 2,12,13
 207 349 207 349 232 325.5 c 128,-1,14
 257 302 257 302 308 302 c 2,15,-1
 497 302 l 1,16,-1
 497 655 l 1,17,-1
 507 655 l 1,18,-1
 547 655 l 1,19,-1
 557 655 l 1,20,-1
 557 65 l 1,21,-1
 547 65 l 1,0,-1
EndSplineSet
Substitution2: "'ss12' Style Set 12 in Latin lookup 26 subtable" four.v
Substitution2: "'ss01' Style Set 1 in Latin lookup 22 subtable" four.v
Substitution2: "'vert' Vertical Alternates in Latin lookup 21 subtable" four.v
Substitution2: "'sinf' Scientific Inferiors in Latin lookup 4 subtable" four.sinf
Substitution2: "'sups' Superscript in Latin lookup 3 subtable" four.sups
Position2: "'ss11' Style Set 11 in Latin lookup 1 per glyph data 56" dx=286 dy=0 dh=571 dv=0
EndChar

StartChar: five
Encoding: 53 53 190
Width: 647
GlyphClass: 1
Flags: W
LayerCount: 2
Fore
SplineSet
120 115 m 1,0,-1
 120 125 l 1,1,-1
 356 125 l 2,2,3
 412 125 412 125 436 146 c 128,-1,4
 460 167 460 167 460 213 c 2,5,-1
 460 251 l 2,6,7
 460 298 460 298 435.5 318.5 c 128,-1,8
 411 339 411 339 365 339 c 2,9,-1
 149 339 l 1,10,-1
 149 655 l 1,11,-1
 503 655 l 1,12,-1
 503 645 l 1,13,-1
 503 605 l 1,14,-1
 503 595 l 1,15,-1
 209 595 l 1,16,-1
 209 399 l 1,17,-1
 415 399 l 2,18,19
 467 399 467 399 493.5 375.5 c 128,-1,20
 520 352 520 352 520 301 c 2,21,-1
 520 163 l 2,22,23
 520 112 520 112 494 88.5 c 128,-1,24
 468 65 468 65 406 65 c 2,25,-1
 120 65 l 1,26,-1
 120 75 l 1,27,-1
 120 115 l 1,0,-1
EndSplineSet
Substitution2: "'ss12' Style Set 12 in Latin lookup 26 subtable" five.v
Substitution2: "'ss01' Style Set 1 in Latin lookup 22 subtable" five.v
Substitution2: "'vert' Vertical Alternates in Latin lookup 21 subtable" five.v
Substitution2: "'sinf' Scientific Inferiors in Latin lookup 4 subtable" five.sinf
Substitution2: "'sups' Superscript in Latin lookup 3 subtable" five.sups
Position2: "'ss11' Style Set 11 in Latin lookup 1 per glyph data 74" dx=317 dy=0 dh=633 dv=0
EndChar

StartChar: six
Encoding: 54 54 191
Width: 693
GlyphClass: 1
Flags: W
LayerCount: 2
Fore
SplineSet
336 46 m 2,0,1
 296 46 296 46 261 49.5 c 128,-1,2
 226 53 226 53 200 65 c 0,3,4
 145 90.3846153846 145 90.3846153846 145 162 c 2,5,-1
 145 540 l 2,6,7
 145 606 145 606 180.5 630.5 c 128,-1,8
 216 655 216 655 279 655 c 2,9,-1
 505 655 l 1,10,-1
 505 645 l 1,11,-1
 505 605 l 1,12,-1
 505 595 l 1,13,-1
 329 595 l 2,14,15
 272 595 272 595 238.5 573.5 c 128,-1,16
 205 552 205 552 205 490 c 2,17,-1
 205 395.754913446 l 1,18,19
 213.411600623 398.4658561 213.411600623 398.4658561 223 400 c 0,20,21
 273 408 273 408 339 408 c 2,22,-1
 389 408 l 2,23,24
 426 408 426 408 457.5 405.5 c 128,-1,25
 489 403 489 403 512.5 392.5 c 128,-1,26
 536 382 536 382 549.5 360 c 128,-1,27
 563 338 563 338 563 300 c 2,28,-1
 563 162 l 2,29,30
 563 124 563 124 549.5 101 c 128,-1,31
 536 78 536 78 512 66 c 128,-1,32
 488 54 488 54 455.5 50 c 128,-1,33
 423 46 423 46 386 46 c 2,34,-1
 336 46 l 2,0,1
503 250 m 2,35,36
 503 286 503 286 489.5 306 c 128,-1,37
 476 326 476 326 454 335.5 c 128,-1,38
 432 345 432 345 407.143873681 346.242806316 c 128,-1,39
 382.287747361 347.485612632 382.287747361 347.485612632 361.280251704 347.82360348 c 0,40,41
 342.140125854 347.58000409 342.140125854 347.58000409 323 347 c 0,42,43
 252.263157895 344.85645933 252.263157895 344.85645933 221.5 308.5 c 0,44,45
 205 289 205 289 205 253 c 2,46,-1
 205 211.999996812 l 2,47,48
 205 175.999999048 205 175.999999048 219.5 154.5 c 128,-1,49
 234 133 234 133 258.5 122.5 c 128,-1,50
 283 112 283 112 316 109 c 0,51,52
 337.155752034 107.076749815 337.155752034 107.076749815 359.955455745 106.386463397 c 0,53,54
 380.946956712 107.076749831 380.946956712 107.076749831 400.5 109 c 0,55,56
 465.765301986 115.4195379 465.765301986 115.4195379 490 155.5 c 0,57,58
 503 177 503 177 503 212 c 2,59,-1
 503 250 l 2,35,36
195 211.999996635 m 1,60,-1
 195 162 l 1,61,-1
 195 211.999996635 l 1,60,-1
EndSplineSet
Substitution2: "'ss12' Style Set 12 in Latin lookup 26 subtable" six.v
Substitution2: "'ss01' Style Set 1 in Latin lookup 22 subtable" six.v
Substitution2: "'vert' Vertical Alternates in Latin lookup 21 subtable" six.v
Substitution2: "'sinf' Scientific Inferiors in Latin lookup 4 subtable" six.sinf
Substitution2: "'sups' Superscript in Latin lookup 3 subtable" six.sups
Position2: "'ss11' Style Set 11 in Latin lookup 1 per glyph data 62" dx=294 dy=0 dh=587 dv=0
EndChar

StartChar: seven
Encoding: 55 55 192
Width: 627
GlyphClass: 1
Flags: W
LayerCount: 2
Fore
SplineSet
198 65 m 1,0,-1
 198 265 l 2,1,2
 198 288 198 288 207.5 301 c 128,-1,3
 217 314 217 314 233 321 c 2,4,-1
 403 389 l 2,5,6
 418 395 418 395 425 405.5 c 128,-1,7
 432 416 432 416 432 435 c 2,8,-1
 432 595 l 1,9,-1
 103 595 l 1,10,-1
 103 605 l 1,11,-1
 103 645 l 1,12,-1
 103 655 l 1,13,-1
 492 655 l 1,14,-1
 492 385 l 2,15,16
 492 362 492 362 483.5 349 c 128,-1,17
 475 336 475 336 457 329 c 2,18,-1
 287 261 l 2,19,20
 258 249.846153846 258 249.846153846 258 215 c 2,21,-1
 258 65 l 1,22,-1
 248 65 l 1,23,-1
 208 65 l 1,24,-1
 198 65 l 1,0,-1
EndSplineSet
Substitution2: "'ss12' Style Set 12 in Latin lookup 26 subtable" seven.v
Substitution2: "'ss01' Style Set 1 in Latin lookup 22 subtable" seven.v
Substitution2: "'vert' Vertical Alternates in Latin lookup 21 subtable" seven.v
Substitution2: "'sinf' Scientific Inferiors in Latin lookup 4 subtable" seven.sinf
Substitution2: "'sups' Superscript in Latin lookup 3 subtable" seven.sups
Position2: "'ss11' Style Set 11 in Latin lookup 1 per glyph data 81" dx=327 dy=0 dh=653 dv=0
EndChar

StartChar: eight
Encoding: 56 56 193
Width: 711
GlyphClass: 1
Flags: W
LayerCount: 2
Fore
SplineSet
128 148 m 2,0,-1
 128 290 l 2,1,2
 128 328 128 328 155.5 356 c 0,3,4
 166.273280175 366.969157996 166.273280175 366.969157996 183.876085865 375.175811297 c 1,5,6
 164.000000004 396.347739152 164.000000004 396.347739152 164 430 c 2,7,-1
 164 583 l 2,8,9
 164 629 164 629 204 653 c 128,-1,10
 244 677 244 677 331 677 c 2,11,-1
 381 677 l 2,12,13
 468 677 468 677 507.5 652 c 128,-1,14
 547 627 547 627 547 575 c 2,15,-1
 547 430 l 2,16,17
 547 396.541921475 547 396.541921475 527.809548253 375.420561931 c 1,18,19
 545.383487954 367.313114121 545.383487954 367.313114121 556 356.5 c 0,20,21
 583 329 583 329 583 291 c 2,22,-1
 583 148 l 2,23,24
 583 125 583 125 574 105.5 c 128,-1,25
 565 86 565 86 542.5 72 c 0,26,27
 494.285714286 42 494.285714286 42 381 42 c 2,28,-1
 331 42 l 2,29,30
 218.285714286 42 218.285714286 42 169 72 c 0,31,32
 146 86 146 86 137 105.5 c 128,-1,33
 128 125 128 125 128 148 c 2,0,-1
356.104686652 338.592153878 m 1,34,35
 268.810355508 335.620696609 268.810355508 335.620696609 231 311 c 0,36,37
 188 283 188 283 188 240 c 2,38,-1
 188 198 l 2,39,40
 188 155 188 155 230.5 128.5 c 0,41,42
 267.894310457 105.183547598 267.894310457 105.183547598 355.996389366 102.382451816 c 1,43,44
 444.04562152 105.183546992 444.04562152 105.183546992 481 128.5 c 0,45,46
 523 155 523 155 523 198 c 2,47,-1
 523 241 l 2,48,49
 523 284 523 284 480.5 311.5 c 0,50,51
 443.175719747 335.65100487 443.175719747 335.65100487 356.104686652 338.592153878 c 1,34,35
224 533 m 2,52,-1
 224 480 l 2,53,54
 224 437 224 437 263 418 c 0,55,56
 295.558045538 402.138388071 295.558045538 402.138388071 355.993180604 399.518393736 c 1,57,58
 416.359366138 402.138388417 416.359366138 402.138388417 448.5 418 c 0,59,60
 487 437 487 437 487 480 c 2,61,-1
 487 525 l 2,62,63
 487 574 487 574 448 595.5 c 0,64,65
 415.443181138 613.447989885 415.443181138 613.447989885 355.708248062 616.413173262 c 1,66,67
 296.316944081 613.531578529 296.316944081 613.531578529 263.5 596.5 c 0,68,69
 224 576 224 576 224 533 c 2,52,-1
EndSplineSet
Substitution2: "'ss12' Style Set 12 in Latin lookup 26 subtable" eight.v
Substitution2: "'ss01' Style Set 1 in Latin lookup 22 subtable" eight.v
Substitution2: "'vert' Vertical Alternates in Latin lookup 21 subtable" eight.v
Substitution2: "'sinf' Scientific Inferiors in Latin lookup 4 subtable" eight.sinf
Substitution2: "'sups' Superscript in Latin lookup 3 subtable" eight.sups
Position2: "'ss11' Style Set 11 in Latin lookup 1 per glyph data 55" dx=285 dy=0 dh=569 dv=0
EndChar

StartChar: nine
Encoding: 57 57 194
Width: 693
GlyphClass: 1
Flags: W
LayerCount: 2
Fore
SplineSet
188 115 m 1,0,-1
 188 125 l 1,1,-1
 364 125 l 2,2,3
 421 125 421 125 454.5 146.5 c 128,-1,4
 488 168 488 168 488 230 c 2,5,-1
 488 324.245086554 l 1,6,7
 479.588399377 321.5341439 479.588399377 321.5341439 470 320 c 0,8,9
 420 312 420 312 354 312 c 2,10,-1
 304 312 l 2,11,12
 267 312 267 312 235.5 314.5 c 128,-1,13
 204 317 204 317 180.5 327.5 c 128,-1,14
 157 338 157 338 143.5 360 c 128,-1,15
 130 382 130 382 130 420 c 2,16,-1
 130 558 l 2,17,18
 130 596 130 596 143.5 619 c 128,-1,19
 157 642 157 642 181 654 c 128,-1,20
 205 666 205 666 237.5 670 c 128,-1,21
 270 674 270 674 307 674 c 2,22,-1
 357 674 l 2,23,24
 397 674 397 674 432 670.5 c 128,-1,25
 467 667 467 667 493 655 c 0,26,27
 548 629.615384615 548 629.615384615 548 558 c 2,28,-1
 548 180 l 2,29,30
 548 114 548 114 512.5 89.5 c 128,-1,31
 477 65 477 65 414 65 c 2,32,-1
 188 65 l 1,33,-1
 188 75 l 1,34,-1
 188 115 l 1,0,-1
190 470 m 2,35,36
 190 434 190 434 203.5 414 c 128,-1,37
 217 394 217 394 239 384.5 c 128,-1,38
 261 375 261 375 285.856126319 373.757193684 c 128,-1,39
 310.712252639 372.514387368 310.712252639 372.514387368 331.719748296 372.17639652 c 0,40,41
 350.859874146 372.41999591 350.859874146 372.41999591 370 373 c 0,42,43
 440.736842105 375.14354067 440.736842105 375.14354067 471.5 411.5 c 0,44,45
 488 431 488 431 488 467 c 2,46,-1
 488 508 l 2,47,48
 488 544 488 544 473.5 565.5 c 128,-1,49
 459 587 459 587 434.5 597.5 c 128,-1,50
 410 608 410 608 377 611 c 0,51,52
 355.844247966 612.923250185 355.844247966 612.923250185 333.044544255 613.613536603 c 0,53,54
 312.053043288 612.923250169 312.053043288 612.923250169 292.5 611 c 0,55,56
 227.234698014 604.5804621 227.234698014 604.5804621 203 564.5 c 0,57,58
 190 543 190 543 190 508 c 2,59,-1
 190 470 l 2,35,36
364.000003035 115 m 1,60,-1
 414 115 l 1,61,-1
 364.000003035 115 l 1,60,-1
EndSplineSet
Substitution2: "'ss12' Style Set 12 in Latin lookup 26 subtable" nine.v
Substitution2: "'ss01' Style Set 1 in Latin lookup 22 subtable" nine.v
Substitution2: "'vert' Vertical Alternates in Latin lookup 21 subtable" nine.v
Substitution2: "'sinf' Scientific Inferiors in Latin lookup 4 subtable" nine.sinf
Substitution2: "'sups' Superscript in Latin lookup 3 subtable" nine.sups
Position2: "'ss11' Style Set 11 in Latin lookup 1 per glyph data 62" dx=294 dy=0 dh=587 dv=0
EndChar

StartChar: underscore
Encoding: 95 95 195
Width: 734
GlyphClass: 1
Flags: W
LayerCount: 2
Fore
SplineSet
599 -20 m 1,0,-1
 599 -30 l 1,1,-1
 135 -30 l 1,2,-1
 135 -20 l 1,3,-1
 135 20 l 1,4,-1
 135 30 l 1,5,-1
 599 30 l 1,6,-1
 599 20 l 1,7,-1
 599 -20 l 1,0,-1
EndSplineSet
Position2: "'ss11' Style Set 11 in Latin lookup 1 per glyph data 44" dx=273 dy=0 dh=546 dv=0
EndChar

StartChar: hyphen
Encoding: 45 45 196
Width: 420
GlyphClass: 1
Flags: W
LayerCount: 2
Fore
SplineSet
315 340 m 1,0,-1
 315 330 l 1,1,-1
 105 330 l 1,2,-1
 105 340 l 1,3,-1
 105 380 l 1,4,-1
 105 390 l 1,5,-1
 315 390 l 1,6,-1
 315 380 l 1,7,-1
 315 340 l 1,0,-1
EndSplineSet
Substitution2: "'ss10' Style Set 10 in Latin lookup 25 subtable" hyphen.v
Substitution2: "'ss01' Style Set 1 in Latin lookup 22 subtable" hyphen.v
Substitution2: "'vert' Vertical Alternates in Latin lookup 21 subtable" hyphen.v
Position2: "'ss11' Style Set 11 in Latin lookup 1 per glyph data 113" dx=430 dy=0 dh=860 dv=0
EndChar

StartChar: endash
Encoding: 8211 8211 197
Width: 734
GlyphClass: 1
Flags: W
LayerCount: 2
Fore
SplineSet
599 340 m 1,0,-1
 599 330 l 1,1,-1
 135 330 l 1,2,-1
 135 340 l 1,3,-1
 135 380 l 1,4,-1
 135 390 l 1,5,-1
 599 390 l 1,6,-1
 599 380 l 1,7,-1
 599 340 l 1,0,-1
EndSplineSet
Substitution2: "'ss10' Style Set 10 in Latin lookup 25 subtable" endash.v
Substitution2: "'ss01' Style Set 1 in Latin lookup 22 subtable" endash.v
Substitution2: "'vert' Vertical Alternates in Latin lookup 21 subtable" endash.v
Position2: "'ss11' Style Set 11 in Latin lookup 1 per glyph data 44" dx=273 dy=0 dh=546 dv=0
EndChar

StartChar: emdash
Encoding: 8212 8212 198
Width: 1134
GlyphClass: 1
Flags: W
LayerCount: 2
Fore
SplineSet
999 340 m 1,0,-1
 999 330 l 1,1,-1
 135 330 l 1,2,-1
 135 340 l 1,3,-1
 135 380 l 1,4,-1
 135 390 l 1,5,-1
 999 390 l 1,6,-1
 999 380 l 1,7,-1
 999 340 l 1,0,-1
EndSplineSet
Substitution2: "'ss10' Style Set 10 in Latin lookup 25 subtable" emdash.v
Substitution2: "'ss01' Style Set 1 in Latin lookup 22 subtable" emdash.v
Substitution2: "'vert' Vertical Alternates in Latin lookup 21 subtable" emdash.v
Position2: "'ss11' Style Set 11 in Latin lookup 1 per glyph data 13" dx=73 dy=0 dh=146 dv=0
EndChar

StartChar: parenleft
Encoding: 40 40 199
Width: 429
GlyphClass: 1
Flags: W
LayerCount: 2
Fore
SplineSet
319 -4 m 1,0,-1
 319 -14 l 1,1,-1
 269 -14 l 2,2,3
 204 -14 204 -14 168 9.5 c 128,-1,4
 132 33 132 33 132 99 c 2,5,-1
 132 620 l 2,6,7
 132 686 132 686 167.5 709.5 c 128,-1,8
 203 733 203 733 269 733 c 2,9,-1
 319 733 l 1,10,-1
 319 673 l 1,11,12
 259 673 259 673 225.5 652 c 128,-1,13
 192 631 192 631 192 570 c 2,14,-1
 192 149 l 2,15,16
 192 88 192 88 226 67 c 128,-1,17
 260 46 260 46 319 46 c 1,18,-1
 319 36 l 1,19,-1
 319 -4 l 1,0,-1
EndSplineSet
Substitution2: "'ss10' Style Set 10 in Latin lookup 25 subtable" parenleft.v
Substitution2: "'ss01' Style Set 1 in Latin lookup 22 subtable" parenleft.v
Substitution2: "'vert' Vertical Alternates in Latin lookup 21 subtable" parenleft.v
Position2: "'ss11' Style Set 11 in Latin lookup 1 per glyph data 110" dx=426 dy=0 dh=851 dv=0
EndChar

StartChar: parenright
Encoding: 41 41 200
Width: 429
GlyphClass: 1
Flags: W
LayerCount: 2
Fore
SplineSet
297 99 m 2,0,1
 297 33 297 33 261 9.5 c 128,-1,2
 225 -14 225 -14 160 -14 c 2,3,-1
 110 -14 l 1,4,-1
 110 46 l 1,5,6
 169 46 169 46 203 67 c 128,-1,7
 237 88 237 88 237 149 c 2,8,-1
 237 570 l 2,9,10
 237 631 237 631 203.5 652 c 128,-1,11
 170 673 170 673 110 673 c 1,12,-1
 110 683 l 1,13,-1
 110 723 l 1,14,-1
 110 733 l 1,15,-1
 160 733 l 2,16,17
 226 733 226 733 261.5 709.5 c 128,-1,18
 297 686 297 686 297 620 c 2,19,-1
 297 99 l 2,0,1
EndSplineSet
Substitution2: "'ss10' Style Set 10 in Latin lookup 25 subtable" parenright.v
Substitution2: "'ss01' Style Set 1 in Latin lookup 22 subtable" parenright.v
Substitution2: "'vert' Vertical Alternates in Latin lookup 21 subtable" parenright.v
Position2: "'ss11' Style Set 11 in Latin lookup 1 per glyph data 110" dx=426 dy=0 dh=851 dv=0
EndChar

StartChar: bracketleft
Encoding: 91 91 201
Width: 429
GlyphClass: 1
Flags: W
LayerCount: 2
Fore
SplineSet
132 733 m 1,0,-1
 319 733 l 1,1,-1
 319 723 l 1,2,-1
 319 683 l 1,3,-1
 319 673 l 1,4,-1
 192 673 l 1,5,-1
 192 46 l 1,6,-1
 319 46 l 1,7,-1
 319 36 l 1,8,-1
 319 -4 l 1,9,-1
 319 -14 l 1,10,-1
 132 -14 l 1,11,-1
 132 733 l 1,0,-1
EndSplineSet
Substitution2: "'ss10' Style Set 10 in Latin lookup 25 subtable" bracketleft.v
Substitution2: "'ss01' Style Set 1 in Latin lookup 22 subtable" bracketleft.v
Substitution2: "'vert' Vertical Alternates in Latin lookup 21 subtable" bracketleft.v
Position2: "'ss11' Style Set 11 in Latin lookup 1 per glyph data 110" dx=426 dy=0 dh=851 dv=0
EndChar

StartChar: bracketright
Encoding: 93 93 202
Width: 429
GlyphClass: 1
Flags: W
LayerCount: 2
Fore
SplineSet
297 733 m 1,0,-1
 297 -14 l 1,1,-1
 110 -14 l 1,2,-1
 110 -4 l 1,3,-1
 110 36 l 1,4,-1
 110 46 l 1,5,-1
 237 46 l 1,6,-1
 237 673 l 1,7,-1
 110 673 l 1,8,-1
 110 683 l 1,9,-1
 110 723 l 1,10,-1
 110 733 l 1,11,-1
 297 733 l 1,0,-1
EndSplineSet
Substitution2: "'ss10' Style Set 10 in Latin lookup 25 subtable" bracketright.v
Substitution2: "'ss01' Style Set 1 in Latin lookup 22 subtable" bracketright.v
Substitution2: "'vert' Vertical Alternates in Latin lookup 21 subtable" bracketright.v
Position2: "'ss11' Style Set 11 in Latin lookup 1 per glyph data 110" dx=426 dy=0 dh=851 dv=0
EndChar

StartChar: braceleft
Encoding: 123 123 203
Width: 455
GlyphClass: 1
Flags: W
LayerCount: 2
Fore
SplineSet
104 397 m 2,0,1
 104 429 104 429 121 445.5 c 128,-1,2
 138 462 138 462 168 466 c 1,3,-1
 168 620 l 2,4,5
 168 683 168 683 198.5 708 c 128,-1,6
 229 733 229 733 295 733 c 2,7,-1
 345 733 l 1,8,-1
 345 673 l 1,9,10
 285 673 285 673 256.5 651 c 128,-1,11
 228 629 228 629 228 570 c 2,12,-1
 228 408 l 1,13,14
 193 404 193 404 178.5 389.5 c 0,15,16
 167.023023403 378.023023403 167.023023403 378.023023403 164.630253141 358.088337462 c 1,17,18
 167.074702774 338.027787316 167.074702774 338.027787316 179 326.5 c 0,19,20
 194 312 194 312 228 308 c 1,21,-1
 228 149 l 2,22,23
 228 97 228 97 257 71.5 c 128,-1,24
 286 46 286 46 345 46 c 1,25,-1
 345 36 l 1,26,-1
 345 -4 l 1,27,-1
 345 -14 l 1,28,-1
 295 -14 l 2,29,30
 230 -14 230 -14 199 14 c 128,-1,31
 168 42 168 42 168 99 c 2,32,-1
 168 250 l 1,33,34
 138 254 138 254 121 271 c 128,-1,35
 104 288 104 288 104 319 c 2,36,-1
 104 397 l 2,0,1
218 148.999996548 m 1,37,-1
 218 99 l 1,38,-1
 218 148.999996548 l 1,37,-1
EndSplineSet
Substitution2: "'ss10' Style Set 10 in Latin lookup 25 subtable" braceleft.v
Substitution2: "'ss01' Style Set 1 in Latin lookup 22 subtable" braceleft.v
Substitution2: "'vert' Vertical Alternates in Latin lookup 21 subtable" braceleft.v
Position2: "'ss11' Style Set 11 in Latin lookup 1 per glyph data 108" dx=413 dy=0 dh=825 dv=0
EndChar

StartChar: braceright
Encoding: 125 125 204
Width: 455
GlyphClass: 1
Flags: W
LayerCount: 2
Fore
SplineSet
287 99 m 2,0,1
 287 42 287 42 256 14 c 128,-1,2
 225 -14 225 -14 160 -14 c 2,3,-1
 110 -14 l 1,4,-1
 110 46 l 1,5,6
 169 46 169 46 198 71.5 c 128,-1,7
 227 97 227 97 227 149 c 2,8,-1
 227 308 l 1,9,10
 261 312 261 312 276 326.5 c 0,11,12
 287.92529724 338.027787332 287.92529724 338.027787332 290.369746859 358.08833752 c 1,13,14
 287.976976584 378.023023419 287.976976584 378.023023419 276.5 389.5 c 0,15,16
 262 404 262 404 227 408 c 1,17,-1
 227 570 l 2,18,19
 227 629 227 629 198.5 651 c 128,-1,20
 170 673 170 673 110 673 c 1,21,-1
 110 683 l 1,22,-1
 110 723 l 1,23,-1
 110 733 l 1,24,-1
 160 733 l 2,25,26
 226 733 226 733 256.5 708 c 128,-1,27
 287 683 287 683 287 620 c 2,28,-1
 287 466 l 1,29,30
 317 462 317 462 334 445.5 c 128,-1,31
 351 429 351 429 351 397 c 2,32,-1
 351 347 l 1,33,-1
 351 319 l 2,34,35
 351 288 351 288 334 271 c 128,-1,36
 317 254 317 254 287 250 c 1,37,-1
 287 99 l 2,0,1
EndSplineSet
Substitution2: "'ss10' Style Set 10 in Latin lookup 25 subtable" braceright.v
Substitution2: "'ss01' Style Set 1 in Latin lookup 22 subtable" braceright.v
Substitution2: "'vert' Vertical Alternates in Latin lookup 21 subtable" braceright.v
Position2: "'ss11' Style Set 11 in Latin lookup 1 per glyph data 108" dx=413 dy=0 dh=825 dv=0
EndChar

StartChar: numbersign
Encoding: 35 35 205
Width: 750
GlyphClass: 1
Flags: W
LayerCount: 2
Fore
SplineSet
212 65 m 1,0,-1
 172 65 l 1,1,-1
 162 65 l 1,2,-1
 154.692307692 65 l 1,3,-1
 173.692307692 195 l 1,4,-1
 100 195 l 1,5,-1
 100 205 l 1,6,-1
 100 245 l 1,7,-1
 100 255 l 1,8,-1
 182 255 l 1,9,-1
 212.830188679 470 l 1,10,-1
 136 470 l 1,11,-1
 136 480 l 1,12,-1
 136 520 l 1,13,-1
 136 530 l 1,14,-1
 221 530 l 1,15,-1
 239 655 l 1,16,-1
 249 655 l 1,17,-1
 289 655 l 1,18,-1
 299 655 l 1,19,-1
 306.2 655 l 1,20,-1
 288.2 530 l 1,21,-1
 510 530 l 1,22,-1
 528 655 l 1,23,-1
 538 655 l 1,24,-1
 578 655 l 1,25,-1
 588 655 l 1,26,-1
 595.2 655 l 1,27,-1
 577.2 530 l 1,28,-1
 650 530 l 1,29,-1
 650 520 l 1,30,-1
 650 480 l 1,31,-1
 650 470 l 1,32,-1
 569 470 l 1,33,-1
 538.169811321 255 l 1,34,-1
 614 255 l 1,35,-1
 614 245 l 1,36,-1
 614 205 l 1,37,-1
 614 195 l 1,38,-1
 530 195 l 1,39,-1
 511 65 l 1,40,-1
 501 65 l 1,41,-1
 461 65 l 1,42,-1
 451 65 l 1,43,-1
 443.692307692 65 l 1,44,-1
 462.692307692 195 l 1,45,-1
 241 195 l 1,46,-1
 222 65 l 1,47,-1
 212 65 l 1,0,-1
471 255 m 1,48,-1
 501.830188679 470 l 1,49,-1
 280 470 l 1,50,-1
 249.169811321 255 l 1,51,-1
 471 255 l 1,48,-1
EndSplineSet
Position2: "'ss11' Style Set 11 in Latin lookup 1 per glyph data 36" dx=265 dy=0 dh=530 dv=0
EndChar

StartChar: percent
Encoding: 37 37 206
Width: 1031
GlyphClass: 1
Flags: W
LayerCount: 2
Fore
SplineSet
956 305 m 2,0,-1
 956 109 l 2,1,2
 956 66 956 66 930.5 48 c 128,-1,3
 905 30 905 30 846 30 c 2,4,-1
 796 30 l 2,5,6
 738 30 738 30 711.5 48 c 128,-1,7
 685 66 685 66 685 109 c 2,8,-1
 685 305 l 2,9,10
 685 348 685 348 711.5 366.5 c 128,-1,11
 738 385 738 385 796 385 c 2,12,-1
 846 385 l 2,13,14
 905 385 905 385 930.5 366.5 c 128,-1,15
 956 348 956 348 956 305 c 2,0,-1
434 65 m 1,16,-1
 424 65 l 1,17,-1
 411.685185185 65 l 1,18,-1
 557 655 l 1,19,-1
 567 655 l 1,20,-1
 607 655 l 1,21,-1
 617 655 l 1,22,-1
 629.314814815 655 l 1,23,-1
 484 65 l 1,24,-1
 474 65 l 1,25,-1
 434 65 l 1,16,-1
356 608 m 2,26,-1
 356 412 l 2,27,28
 356 369 356 369 330.5 351 c 128,-1,29
 305 333 305 333 246 333 c 2,30,-1
 196 333 l 2,31,32
 138 333 138 333 111.5 351 c 128,-1,33
 85 369 85 369 85 412 c 2,34,-1
 85 608 l 2,35,36
 85 651 85 651 111.5 669.5 c 128,-1,37
 138 688 138 688 196 688 c 2,38,-1
 246 688 l 2,39,40
 305 688 305 688 330.5 669.5 c 128,-1,41
 356 651 356 651 356 608 c 2,26,-1
896 255 m 0,42,43
 896 294 896 294 871.5 309.5 c 0,44,45
 853.440634384 320.925312755 853.440634384 320.925312755 820.98272122 323.928833713 c 1,46,47
 788.427923002 320.925312261 788.427923002 320.925312261 770 309.5 c 0,48,49
 745 294 745 294 745 255 c 2,50,-1
 745 158.99999474 l 2,51,52
 745 119.999998988 745 119.999998988 770 105 c 0,53,54
 788.42792415 93.9432455097 788.42792415 93.9432455097 820.98272528 91.036612536 c 1024,55,-1
821.176086655 80.9367951913 m 0,56,57
 860.817363937 84.1063746273 860.817363937 84.1063746273 880.5 98 c 0,58,59
 906 116 906 116 906 159 c 2,60,-1
 906 255 l 1025,61,-1
735 158.999994367 m 1,62,-1
 735 109 l 1,63,-1
 735 158.999994367 l 1,62,-1
145 461.99999737 m 2,64,65
 145 422.999999494 145 422.999999494 170 408 c 0,66,67
 188.427924151 396.94324551 188.427924151 396.94324551 220.98272528 394.036612536 c 1,68,69
 253.440635513 396.94324605 253.440635513 396.94324605 271.5 408 c 0,70,71
 296 423 296 423 296 462 c 2,72,-1
 296 558.000003757 l 2,73,74
 296 597.000000747 296 597.000000747 271.5 612.5 c 0,75,76
 253.4406344 623.925312931 253.4406344 623.925312931 220.98272122 626.928833713 c 1,77,78
 188.427923018 623.925312437 188.427923018 623.925312437 170 612.5 c 0,79,80
 145 597 145 597 145 558 c 2,81,-1
 145 461.99999737 l 2,64,65
EndSplineSet
Substitution2: "'ss12' Style Set 12 in Latin lookup 26 subtable" percent.v
Substitution2: "'ss01' Style Set 1 in Latin lookup 22 subtable" percent.v
Substitution2: "'vert' Vertical Alternates in Latin lookup 21 subtable" percent.v
Position2: "'ss11' Style Set 11 in Latin lookup 1 per glyph data 17" dx=125 dy=0 dh=249 dv=0
EndChar

StartChar: perthousand
Encoding: 8240 8240 207
Width: 1417
GlyphClass: 1
Flags: W
LayerCount: 2
Fore
SplineSet
954 305 m 2,0,-1
 954 109 l 2,1,2
 954 66 954 66 928.5 48 c 128,-1,3
 903 30 903 30 844 30 c 2,4,-1
 794 30 l 2,5,6
 736 30 736 30 709.5 48 c 128,-1,7
 683 66 683 66 683 109 c 2,8,-1
 683 305 l 2,9,10
 683 348 683 348 709.5 366.5 c 128,-1,11
 736 385 736 385 794 385 c 2,12,-1
 844 385 l 2,13,14
 903 385 903 385 928.5 366.5 c 128,-1,15
 954 348 954 348 954 305 c 2,0,-1
1351 305 m 2,16,-1
 1351 109 l 2,17,18
 1351 66 1351 66 1325.5 48 c 128,-1,19
 1300 30 1300 30 1241 30 c 2,20,-1
 1191 30 l 2,21,22
 1133 30 1133 30 1106.5 48 c 128,-1,23
 1080 66 1080 66 1080 109 c 2,24,-1
 1080 305 l 2,25,26
 1080 348 1080 348 1106.5 366.5 c 128,-1,27
 1133 385 1133 385 1191 385 c 2,28,-1
 1241 385 l 2,29,30
 1300 385 1300 385 1325.5 366.5 c 128,-1,31
 1351 348 1351 348 1351 305 c 2,16,-1
434 65 m 1,32,-1
 424 65 l 1,33,-1
 411.685185185 65 l 1,34,-1
 557 655 l 1,35,-1
 567 655 l 1,36,-1
 607 655 l 1,37,-1
 617 655 l 1,38,-1
 629.314814815 655 l 1,39,-1
 484 65 l 1,40,-1
 474 65 l 1,41,-1
 434 65 l 1,32,-1
356 608 m 2,42,-1
 356 412 l 2,43,44
 356 369 356 369 330.5 351 c 128,-1,45
 305 333 305 333 246 333 c 2,46,-1
 196 333 l 2,47,48
 138 333 138 333 111.5 351 c 128,-1,49
 85 369 85 369 85 412 c 2,50,-1
 85 608 l 2,51,52
 85 651 85 651 111.5 669.5 c 128,-1,53
 138 688 138 688 196 688 c 2,54,-1
 246 688 l 2,55,56
 305 688 305 688 330.5 669.5 c 128,-1,57
 356 651 356 651 356 608 c 2,42,-1
743 158.99999474 m 2,58,59
 743 119.999998988 743 119.999998988 768 105 c 0,60,61
 786.42792415 93.9432455097 786.42792415 93.9432455097 818.98272528 91.036612536 c 1,62,63
 851.440635513 93.9432460501 851.440635513 93.9432460501 869.5 105 c 0,64,65
 894 120 894 120 894 159 c 2,66,-1
 894 255 l 2,67,68
 894 294 894 294 869.5 309.5 c 0,69,70
 851.4406344 320.925312931 851.4406344 320.925312931 818.98272122 323.928833713 c 1,71,72
 786.427923018 320.925312437 786.427923018 320.925312437 768 309.5 c 0,73,74
 743 294 743 294 743 255 c 2,75,-1
 743 158.99999474 l 2,58,59
1291 159 m 2,76,-1
 1291 255.000007514 l 2,77,78
 1291 294.000001493 1291 294.000001493 1266.5 309.5 c 0,79,80
 1248.4406344 320.925312931 1248.4406344 320.925312931 1215.98272122 323.928833713 c 1,81,82
 1183.42792302 320.925312437 1183.42792302 320.925312437 1165 309.5 c 0,83,84
 1140 294 1140 294 1140 255 c 2,85,-1
 1140 159 l 2,86,87
 1140 120 1140 120 1165 105 c 0,88,89
 1183.42792415 93.9432455097 1183.42792415 93.9432455097 1215.98272528 91.036612536 c 1,90,91
 1248.44063551 93.9432460501 1248.44063551 93.9432460501 1266.5 105 c 0,92,93
 1291 120 1291 120 1291 159 c 2,76,-1
733 158.999994367 m 1,94,-1
 733 109 l 1,95,-1
 733 158.999994367 l 1,94,-1
145 461.99999737 m 2,96,97
 145 422.999999494 145 422.999999494 170 408 c 0,98,99
 188.427924151 396.94324551 188.427924151 396.94324551 220.98272528 394.036612536 c 1,100,101
 253.440635513 396.94324605 253.440635513 396.94324605 271.5 408 c 0,102,103
 296 423 296 423 296 462 c 2,104,-1
 296 558.000003757 l 2,105,106
 296 597.000000747 296 597.000000747 271.5 612.5 c 0,107,108
 253.4406344 623.925312931 253.4406344 623.925312931 220.98272122 626.928833713 c 1,109,110
 188.427923018 623.925312437 188.427923018 623.925312437 170 612.5 c 0,111,112
 145 597 145 597 145 558 c 2,113,-1
 145 461.99999737 l 2,96,97
EndSplineSet
Substitution2: "'ss12' Style Set 12 in Latin lookup 26 subtable" perthousand.v
Substitution2: "'ss01' Style Set 1 in Latin lookup 22 subtable" perthousand.v
Substitution2: "'vert' Vertical Alternates in Latin lookup 21 subtable" perthousand.v
Position2: "'ss11' Style Set 11 in Latin lookup 1 per glyph data 0" dx=-69 dy=0 dh=-137 dv=0
EndChar

StartChar: quotesingle
Encoding: 39 39 208
Width: 356
GlyphClass: 1
Flags: W
LayerCount: 2
Fore
SplineSet
198 655 m 1,0,-1
 208 655 l 1,1,-1
 208 410 l 1,2,-1
 198 410 l 1,3,-1
 158 410 l 1,4,-1
 148 410 l 1,5,-1
 148 655 l 1,6,-1
 158 655 l 1,7,-1
 198 655 l 1,0,-1
EndSplineSet
Substitution2: "'ss12' Style Set 12 in Latin lookup 26 subtable" quotesingle.v
Substitution2: "'ss01' Style Set 1 in Latin lookup 22 subtable" quotesingle.v
Substitution2: "'vert' Vertical Alternates in Latin lookup 21 subtable" quotesingle.v
Position2: "'ss11' Style Set 11 in Latin lookup 1 per glyph data 117" dx=462 dy=0 dh=924 dv=0
EndChar

StartChar: quotedbl
Encoding: 34 34 209
Width: 646
GlyphClass: 1
Flags: W
LayerCount: 2
Fore
SplineSet
188 655 m 1,0,-1
 198 655 l 1,1,-1
 198 410 l 1,2,-1
 188 410 l 1,3,-1
 148 410 l 1,4,-1
 138 410 l 1,5,-1
 138 655 l 1,6,-1
 148 655 l 1,7,-1
 188 655 l 1,0,-1
498 655 m 1,8,-1
 508 655 l 1,9,-1
 508 410 l 1,10,-1
 498 410 l 1,11,-1
 458 410 l 1,12,-1
 448 410 l 1,13,-1
 448 655 l 1,14,-1
 458 655 l 1,15,-1
 498 655 l 1,8,-1
EndSplineSet
Substitution2: "'ss12' Style Set 12 in Latin lookup 26 subtable" quotedbl.v
Substitution2: "'ss01' Style Set 1 in Latin lookup 22 subtable" quotedbl.v
Substitution2: "'vert' Vertical Alternates in Latin lookup 21 subtable" quotedbl.v
Position2: "'ss11' Style Set 11 in Latin lookup 1 per glyph data 75" dx=317 dy=0 dh=634 dv=0
EndChar

StartChar: quoteleft
Encoding: 8216 8216 210
Width: 384
GlyphClass: 1
Flags: W
LayerCount: 2
Fore
SplineSet
100 425 m 1,0,-1
 100 594 l 2,1,2
 100 640 100 640 124 662.5 c 128,-1,3
 148 685 148 685 188 685 c 2,4,-1
 234 685 l 1,5,-1
 238 685 l 1,6,-1
 284 685 l 1,7,-1
 284 675 l 1,8,-1
 284 635 l 1,9,-1
 284 625 l 1,10,-1
 238 625 l 2,11,12
 202 625 202 625 181 604.5 c 128,-1,13
 160 584 160 584 160 544 c 2,14,-1
 160 485 l 1,15,-1
 284 485 l 1,16,-1
 284 475 l 1,17,-1
 284 435 l 1,18,-1
 284 425 l 1,19,-1
 100 425 l 1,0,-1
EndSplineSet
Substitution2: "'ss12' Style Set 12 in Latin lookup 26 subtable" quoteleft.v
Substitution2: "'ss01' Style Set 1 in Latin lookup 22 subtable" quoteleft.v
Substitution2: "'vert' Vertical Alternates in Latin lookup 21 subtable" quoteleft.v
Substitution2: "'ss07' Style Set 7 in Latin lookup 15 subtable" quoteleft.salt
Position2: "'ss11' Style Set 11 in Latin lookup 1 per glyph data 114" dx=448 dy=0 dh=896 dv=0
EndChar

StartChar: quoteright
Encoding: 8217 8217 211
Width: 384
GlyphClass: 1
Flags: W
LayerCount: 2
Fore
SplineSet
284 640 m 1,0,-1
 284 471 l 2,1,2
 284 425 284 425 260 402.5 c 128,-1,3
 236 380 236 380 196 380 c 2,4,-1
 150 380 l 1,5,-1
 146 380 l 1,6,-1
 100 380 l 1,7,-1
 100 390 l 1,8,-1
 100 430 l 1,9,-1
 100 440 l 1,10,-1
 146 440 l 2,11,12
 182 440 182 440 203 460.5 c 128,-1,13
 224 481 224 481 224 521 c 2,14,-1
 224 580 l 1,15,-1
 100 580 l 1,16,-1
 100 590 l 1,17,-1
 100 630 l 1,18,-1
 100 640 l 1,19,-1
 284 640 l 1,0,-1
EndSplineSet
Substitution2: "'ss12' Style Set 12 in Latin lookup 26 subtable" quoteright.v
Substitution2: "'ss01' Style Set 1 in Latin lookup 22 subtable" quoteright.v
Substitution2: "'vert' Vertical Alternates in Latin lookup 21 subtable" quoteright.v
Substitution2: "'ss07' Style Set 7 in Latin lookup 15 subtable" quoteright.salt
Position2: "'ss11' Style Set 11 in Latin lookup 1 per glyph data 114" dx=448 dy=0 dh=896 dv=0
EndChar

StartChar: quoteleft.salt
Encoding: 57656 57656 212
Width: 307
GlyphClass: 1
Flags: W
LayerCount: 2
Fore
SplineSet
227 509 m 1,0,-1
 227 499 l 1,1,-1
 79 499 l 1,2,-1
 79 635 l 2,3,4
 79 664 79 664 92.5 686.5 c 128,-1,5
 106 709 106 709 135 709 c 2,6,-1
 176 709 l 1,7,-1
 185 709 l 1,8,-1
 226 709 l 1,9,-1
 226 699 l 1,10,-1
 226 659 l 1,11,-1
 226 649 l 1,12,-1
 185 649 l 2,13,14
 160 649 160 649 149.5 629.5 c 128,-1,15
 139 610 139 610 139 585 c 2,16,-1
 139 559 l 1,17,-1
 227 559 l 1,18,-1
 227 549 l 1,19,-1
 227 509 l 1,0,-1
EndSplineSet
Substitution2: "'ss12' Style Set 12 in Latin lookup 26 subtable" quoteleft.salt_v
Substitution2: "'ss01' Style Set 1 in Latin lookup 22 subtable" quoteleft.salt_v
Substitution2: "'vert' Vertical Alternates in Latin lookup 21 subtable" quoteleft.salt_v
Position2: "'ss11' Style Set 11 in Latin lookup 1 per glyph data 123" dx=486 dy=0 dh=972 dv=0
EndChar

StartChar: quoteright.salt
Encoding: 57657 57657 213
Width: 307
GlyphClass: 1
Flags: W
LayerCount: 2
Fore
SplineSet
80 661 m 1,0,-1
 80 671 l 1,1,-1
 228 671 l 1,2,-1
 228 535 l 2,3,4
 228 506 228 506 214.5 483.5 c 128,-1,5
 201 461 201 461 172 461 c 2,6,-1
 131 461 l 1,7,-1
 122 461 l 1,8,-1
 81 461 l 1,9,-1
 81 471 l 1,10,-1
 81 511 l 1,11,-1
 81 521 l 1,12,-1
 122 521 l 2,13,14
 147 521 147 521 157.5 540.5 c 128,-1,15
 168 560 168 560 168 585 c 2,16,-1
 168 611 l 1,17,-1
 80 611 l 1,18,-1
 80 621 l 1,19,-1
 80 661 l 1,0,-1
EndSplineSet
Substitution2: "'ss12' Style Set 12 in Latin lookup 26 subtable" quoteright.salt_v
Substitution2: "'ss01' Style Set 1 in Latin lookup 22 subtable" quoteright.salt_v
Substitution2: "'vert' Vertical Alternates in Latin lookup 21 subtable" quoteright.salt_v
Position2: "'ss11' Style Set 11 in Latin lookup 1 per glyph data 123" dx=486 dy=0 dh=972 dv=0
EndChar

StartChar: quotedblleft
Encoding: 8220 8220 214
Width: 684
GlyphClass: 1
Flags: W
LayerCount: 2
Fore
SplineSet
90 425 m 1,0,-1
 90 594 l 2,1,2
 90 640 90 640 114 662.5 c 128,-1,3
 138 685 138 685 178 685 c 2,4,-1
 224 685 l 1,5,-1
 228 685 l 1,6,-1
 274 685 l 1,7,-1
 274 675 l 1,8,-1
 274 635 l 1,9,-1
 274 625 l 1,10,-1
 228 625 l 2,11,12
 192 625 192 625 171 604.5 c 128,-1,13
 150 584 150 584 150 544 c 2,14,-1
 150 485 l 1,15,-1
 274 485 l 1,16,-1
 274 475 l 1,17,-1
 274 435 l 1,18,-1
 274 425 l 1,19,-1
 90 425 l 1,0,-1
410 425 m 1,20,-1
 410 594 l 2,21,22
 410 640 410 640 434 662.5 c 128,-1,23
 458 685 458 685 498 685 c 2,24,-1
 544 685 l 1,25,-1
 548 685 l 1,26,-1
 594 685 l 1,27,-1
 594 675 l 1,28,-1
 594 635 l 1,29,-1
 594 625 l 1,30,-1
 548 625 l 2,31,32
 512 625 512 625 491 604.5 c 128,-1,33
 470 584 470 584 470 544 c 2,34,-1
 470 485 l 1,35,-1
 594 485 l 1,36,-1
 594 475 l 1,37,-1
 594 435 l 1,38,-1
 594 425 l 1,39,-1
 410 425 l 1,20,-1
EndSplineSet
Substitution2: "'ss12' Style Set 12 in Latin lookup 26 subtable" quotedblleft.v
Substitution2: "'ss01' Style Set 1 in Latin lookup 22 subtable" quotedblleft.v
Substitution2: "'vert' Vertical Alternates in Latin lookup 21 subtable" quotedblleft.v
Position2: "'ss11' Style Set 11 in Latin lookup 1 per glyph data 65" dx=298 dy=0 dh=596 dv=0
EndChar

StartChar: quotedblright
Encoding: 8221 8221 215
Width: 684
GlyphClass: 1
Flags: W
LayerCount: 2
Fore
SplineSet
274 640 m 1,0,-1
 274 471 l 2,1,2
 274 425 274 425 250 402.5 c 128,-1,3
 226 380 226 380 186 380 c 2,4,-1
 140 380 l 1,5,-1
 136 380 l 1,6,-1
 90 380 l 1,7,-1
 90 390 l 1,8,-1
 90 430 l 1,9,-1
 90 440 l 1,10,-1
 136 440 l 2,11,12
 172 440 172 440 193 460.5 c 128,-1,13
 214 481 214 481 214 521 c 2,14,-1
 214 580 l 1,15,-1
 90 580 l 1,16,-1
 90 590 l 1,17,-1
 90 630 l 1,18,-1
 90 640 l 1,19,-1
 274 640 l 1,0,-1
594 640 m 1,20,-1
 594 471 l 2,21,22
 594 425 594 425 570 402.5 c 128,-1,23
 546 380 546 380 506 380 c 2,24,-1
 460 380 l 1,25,-1
 456 380 l 1,26,-1
 410 380 l 1,27,-1
 410 390 l 1,28,-1
 410 430 l 1,29,-1
 410 440 l 1,30,-1
 456 440 l 2,31,32
 492 440 492 440 513 460.5 c 128,-1,33
 534 481 534 481 534 521 c 2,34,-1
 534 580 l 1,35,-1
 410 580 l 1,36,-1
 410 590 l 1,37,-1
 410 630 l 1,38,-1
 410 640 l 1,39,-1
 594 640 l 1,20,-1
EndSplineSet
Substitution2: "'ss12' Style Set 12 in Latin lookup 26 subtable" quotedblright.v
Substitution2: "'ss01' Style Set 1 in Latin lookup 22 subtable" quotedblright.v
Substitution2: "'vert' Vertical Alternates in Latin lookup 21 subtable" quotedblright.v
Position2: "'ss11' Style Set 11 in Latin lookup 1 per glyph data 65" dx=298 dy=0 dh=596 dv=0
EndChar

StartChar: quotesinglbase
Encoding: 8218 8218 216
Width: 384
GlyphClass: 1
Flags: W
LayerCount: 2
Fore
SplineSet
284 195 m 1,0,-1
 284 26 l 2,1,2
 284 -20 284 -20 260 -42.5 c 128,-1,3
 236 -65 236 -65 196 -65 c 2,4,-1
 150 -65 l 1,5,-1
 146 -65 l 1,6,-1
 100 -65 l 1,7,-1
 100 -55 l 1,8,-1
 100 -15 l 1,9,-1
 100 -5 l 1,10,-1
 146 -5 l 2,11,12
 182 -5 182 -5 203 15.5 c 128,-1,13
 224 36 224 36 224 76 c 2,14,-1
 224 135 l 1,15,-1
 100 135 l 1,16,-1
 100 145 l 1,17,-1
 100 185 l 1,18,-1
 100 195 l 1,19,-1
 284 195 l 1,0,-1
EndSplineSet
Substitution2: "'ss12' Style Set 12 in Latin lookup 26 subtable" quotesinglbase.v
Substitution2: "'ss01' Style Set 1 in Latin lookup 22 subtable" quotesinglbase.v
Substitution2: "'vert' Vertical Alternates in Latin lookup 21 subtable" quotesinglbase.v
Position2: "'ss11' Style Set 11 in Latin lookup 1 per glyph data 114" dx=448 dy=0 dh=896 dv=0
EndChar

StartChar: quotedblbase
Encoding: 8222 8222 217
Width: 684
GlyphClass: 1
Flags: W
LayerCount: 2
Fore
SplineSet
274 195 m 1,0,-1
 274 26 l 2,1,2
 274 -20 274 -20 250 -42.5 c 128,-1,3
 226 -65 226 -65 186 -65 c 2,4,-1
 140 -65 l 1,5,-1
 136 -65 l 1,6,-1
 90 -65 l 1,7,-1
 90 -55 l 1,8,-1
 90 -15 l 1,9,-1
 90 -5 l 1,10,-1
 136 -5 l 2,11,12
 172 -5 172 -5 193 15.5 c 128,-1,13
 214 36 214 36 214 76 c 2,14,-1
 214 135 l 1,15,-1
 90 135 l 1,16,-1
 90 145 l 1,17,-1
 90 185 l 1,18,-1
 90 195 l 1,19,-1
 274 195 l 1,0,-1
594 195 m 1,20,-1
 594 26 l 2,21,22
 594 -20 594 -20 570 -42.5 c 128,-1,23
 546 -65 546 -65 506 -65 c 2,24,-1
 460 -65 l 1,25,-1
 456 -65 l 1,26,-1
 410 -65 l 1,27,-1
 410 -55 l 1,28,-1
 410 -15 l 1,29,-1
 410 -5 l 1,30,-1
 456 -5 l 2,31,32
 492 -5 492 -5 513 15.5 c 128,-1,33
 534 36 534 36 534 76 c 2,34,-1
 534 135 l 1,35,-1
 410 135 l 1,36,-1
 410 145 l 1,37,-1
 410 185 l 1,38,-1
 410 195 l 1,39,-1
 594 195 l 1,20,-1
EndSplineSet
Substitution2: "'ss12' Style Set 12 in Latin lookup 26 subtable" quotedblbase.v
Substitution2: "'ss01' Style Set 1 in Latin lookup 22 subtable" quotedblbase.v
Substitution2: "'vert' Vertical Alternates in Latin lookup 21 subtable" quotedblbase.v
Position2: "'ss11' Style Set 11 in Latin lookup 1 per glyph data 65" dx=298 dy=0 dh=596 dv=0
EndChar

StartChar: guilsinglleft
Encoding: 8249 8249 218
Width: 563
GlyphClass: 1
Flags: W
LayerCount: 2
Fore
SplineSet
425 233 m 1,0,-1
 425 193 l 1,1,-1
 425 183 l 1,2,-1
 425 172.839572193 l 1,3,-1
 188 221 l 2,4,5
 161 226 161 226 148 240.5 c 128,-1,6
 135 255 135 255 135 285 c 2,7,-1
 135 413 l 2,8,9
 135 443 135 443 148 457.5 c 128,-1,10
 161 472 161 472 187 477 c 2,11,-1
 425 525.106382979 l 1,12,-1
 425 455 l 1,13,-1
 239 417 l 2,14,15
 217 413 217 413 206 400.5 c 128,-1,16
 195 388 195 388 195 363 c 2,17,-1
 195 335 l 2,18,19
 195 310 195 310 206.5 297.5 c 128,-1,20
 218 285 218 285 240 281 c 2,21,-1
 425 243 l 1,22,-1
 425 233 l 1,0,-1
185 334.999997195 m 1,23,-1
 185 285 l 1,24,-1
 185 334.999997195 l 1,23,-1
EndSplineSet
Substitution2: "'ss12' Style Set 12 in Latin lookup 26 subtable" guilsinglleft.v
Substitution2: "'ss01' Style Set 1 in Latin lookup 22 subtable" guilsinglleft.v
Substitution2: "'vert' Vertical Alternates in Latin lookup 21 subtable" guilsinglleft.v
Position2: "'ss11' Style Set 11 in Latin lookup 1 per glyph data 89" dx=359 dy=0 dh=717 dv=0
EndChar

StartChar: guilsinglright
Encoding: 8250 8250 219
Width: 563
GlyphClass: 1
Flags: W
LayerCount: 2
Fore
SplineSet
145 243 m 1,0,-1
 330 281 l 2,1,2
 352 285 352 285 363.5 297.5 c 128,-1,3
 375 310 375 310 375 335 c 2,4,-1
 375 363 l 2,5,6
 375 388 375 388 364 400.5 c 128,-1,7
 353 413 353 413 331 417 c 2,8,-1
 145 455 l 1,9,-1
 145 465 l 1,10,-1
 145 505 l 1,11,-1
 145 515 l 1,12,-1
 145 525.106382979 l 1,13,-1
 383 477 l 2,14,15
 409 472 409 472 422 457.5 c 128,-1,16
 435 443 435 443 435 413 c 2,17,-1
 435 285 l 2,18,19
 435 255 435 255 422 240.5 c 128,-1,20
 409 226 409 226 382 221 c 2,21,-1
 145 172.839572193 l 1,22,-1
 145 243 l 1,0,-1
EndSplineSet
Substitution2: "'ss12' Style Set 12 in Latin lookup 26 subtable" guilsinglright.v
Substitution2: "'ss01' Style Set 1 in Latin lookup 22 subtable" guilsinglright.v
Substitution2: "'vert' Vertical Alternates in Latin lookup 21 subtable" guilsinglright.v
Position2: "'ss11' Style Set 11 in Latin lookup 1 per glyph data 89" dx=359 dy=0 dh=717 dv=0
EndChar

StartChar: guillemotleft
Encoding: 171 171 220
Width: 812
GlyphClass: 1
Flags: W
LayerCount: 2
Fore
SplineSet
327 237 m 1,0,-1
 327 197 l 1,1,-1
 327 187 l 1,2,-1
 327 172.5 l 1,3,-1
 177 216 l 2,4,5
 150 223 150 223 133 237.5 c 128,-1,6
 116 252 116 252 116 287 c 2,7,-1
 116 411 l 2,8,9
 116 446 116 446 133 460 c 128,-1,10
 150 474 150 474 178 482 c 2,11,-1
 327 527.151515152 l 1,12,-1
 327 452 l 1,13,-1
 230 422 l 2,14,15
 207 415 207 415 191.5 403.5 c 128,-1,16
 176 392 176 392 176 361 c 2,17,-1
 176 337 l 2,18,19
 176 306 176 306 191.5 294.5 c 128,-1,20
 207 283 207 283 229 276 c 2,21,-1
 327 247 l 1,22,-1
 327 237 l 1,0,-1
697 237 m 1,23,-1
 697 197 l 1,24,-1
 697 187 l 1,25,-1
 697 172.5 l 1,26,-1
 547 216 l 2,27,28
 520 223 520 223 503 237.5 c 128,-1,29
 486 252 486 252 486 287 c 2,30,-1
 486 411 l 2,31,32
 486 446 486 446 503 460 c 128,-1,33
 520 474 520 474 548 482 c 2,34,-1
 697 527.151515152 l 1,35,-1
 697 452 l 1,36,-1
 600 422 l 2,37,38
 577 415 577 415 561.5 403.5 c 128,-1,39
 546 392 546 392 546 361 c 2,40,-1
 546 337 l 2,41,42
 546 306 546 306 561.5 294 c 128,-1,43
 577 282 577 282 599 276 c 2,44,-1
 697 247 l 1,45,-1
 697 237 l 1,23,-1
EndSplineSet
Substitution2: "'ss12' Style Set 12 in Latin lookup 26 subtable" guillemotleft.v
Substitution2: "'ss01' Style Set 1 in Latin lookup 22 subtable" guillemotleft.v
Substitution2: "'vert' Vertical Alternates in Latin lookup 21 subtable" guillemotleft.v
Position2: "'ss11' Style Set 11 in Latin lookup 1 per glyph data 29" dx=234 dy=0 dh=468 dv=0
EndChar

StartChar: guillemotright
Encoding: 187 187 221
Width: 812
GlyphClass: 1
Flags: W
LayerCount: 2
Fore
SplineSet
115 502 m 1,0,-1
 115 512 l 1,1,-1
 115 527.151515152 l 1,2,-1
 264 482 l 2,3,4
 292 474 292 474 309 460 c 128,-1,5
 326 446 326 446 326 411 c 2,6,-1
 326 287 l 2,7,8
 326 252 326 252 309 237.5 c 128,-1,9
 292 223 292 223 265 216 c 2,10,-1
 115 172.5 l 1,11,-1
 115 247 l 1,12,-1
 213 276 l 2,13,14
 235 282 235 282 250.5 294 c 128,-1,15
 266 306 266 306 266 337 c 2,16,-1
 266 361 l 2,17,18
 266 392 266 392 250.5 403.5 c 128,-1,19
 235 415 235 415 212 422 c 2,20,-1
 115 452 l 1,21,-1
 115 462 l 1,22,-1
 115 502 l 1,0,-1
485 247 m 1,23,-1
 583 276 l 2,24,25
 605 283 605 283 620.5 294.5 c 128,-1,26
 636 306 636 306 636 337 c 2,27,-1
 636 361 l 2,28,29
 636 392 636 392 620.5 403.5 c 128,-1,30
 605 415 605 415 582 422 c 2,31,-1
 485 452 l 1,32,-1
 485 462 l 1,33,-1
 485 502 l 1,34,-1
 485 512 l 1,35,-1
 485 527.151515152 l 1,36,-1
 634 482 l 2,37,38
 662 474 662 474 679 460 c 128,-1,39
 696 446 696 446 696 411 c 2,40,-1
 696 287 l 2,41,42
 696 252 696 252 679 237.5 c 128,-1,43
 662 223 662 223 635 216 c 2,44,-1
 485 172.5 l 1,45,-1
 485 247 l 1,23,-1
EndSplineSet
Substitution2: "'ss12' Style Set 12 in Latin lookup 26 subtable" guillemotright.v
Substitution2: "'ss01' Style Set 1 in Latin lookup 22 subtable" guillemotright.v
Substitution2: "'vert' Vertical Alternates in Latin lookup 21 subtable" guillemotright.v
Position2: "'ss11' Style Set 11 in Latin lookup 1 per glyph data 29" dx=234 dy=0 dh=468 dv=0
EndChar

StartChar: asterisk
Encoding: 42 42 222
Width: 718
GlyphClass: 1
Flags: W
LayerCount: 2
Fore
SplineSet
331 655 m 1,0,-1
 341 655 l 1,1,-1
 381 655 l 1,2,-1
 391 655 l 1,3,-1
 391 476.379310345 l 1,4,-1
 559.207317073 531.481707317 l 1,5,-1
 565 517 l 1,6,-1
 569 507 l 1,7,-1
 586.695473251 462.761316872 l 1,8,-1
 425.416458853 410.251870324 l 1,9,-1
 525.894168467 266.17062635 l 1,10,-1
 503 249 l 1,11,-1
 495 243 l 1,12,-1
 462.265047518 218.448785639 l 1,13,-1
 361 362.449541284 l 1,14,-1
 259.734952482 218.448785639 l 1,15,-1
 227 243 l 1,16,-1
 219 249 l 1,17,-1
 196.105831533 266.17062635 l 1,18,-1
 296.583541147 410.251870324 l 1,19,-1
 135.304526749 462.761316872 l 1,20,-1
 153 507 l 1,21,-1
 157 517 l 1,22,-1
 162.792682927 531.481707317 l 1,23,-1
 331 476.379310345 l 1,24,-1
 331 655 l 1,0,-1
EndSplineSet
Substitution2: "'ss12' Style Set 12 in Latin lookup 26 subtable" asterisk.v
Substitution2: "'ss01' Style Set 1 in Latin lookup 22 subtable" asterisk.v
Substitution2: "'vert' Vertical Alternates in Latin lookup 21 subtable" asterisk.v
Position2: "'ss11' Style Set 11 in Latin lookup 1 per glyph data 50" dx=281 dy=0 dh=562 dv=0
EndChar

StartChar: dagger
Encoding: 8224 8224 223
Width: 718
GlyphClass: 1
Flags: W
LayerCount: 2
Fore
SplineSet
379 65 m 1,0,-1
 339 65 l 1,1,-1
 329 65 l 1,2,-1
 329 413 l 1,3,-1
 115 413 l 1,4,-1
 115 423 l 1,5,-1
 115 463 l 1,6,-1
 115 473 l 1,7,-1
 329 473 l 1,8,-1
 329 645 l 1,9,-1
 339 645 l 1,10,-1
 379 645 l 1,11,-1
 389 645 l 1,12,-1
 389 473 l 1,13,-1
 603 473 l 1,14,-1
 603 463 l 1,15,-1
 603 423 l 1,16,-1
 603 413 l 1,17,-1
 389 413 l 1,18,-1
 389 65 l 1,19,-1
 379 65 l 1,0,-1
EndSplineSet
Substitution2: "'ss12' Style Set 12 in Latin lookup 26 subtable" dagger.v
Substitution2: "'ss01' Style Set 1 in Latin lookup 22 subtable" dagger.v
Substitution2: "'vert' Vertical Alternates in Latin lookup 21 subtable" dagger.v
Position2: "'ss11' Style Set 11 in Latin lookup 1 per glyph data 50" dx=281 dy=0 dh=562 dv=0
EndChar

StartChar: daggerdbl
Encoding: 8225 8225 224
Width: 718
GlyphClass: 1
Flags: W
LayerCount: 2
Fore
SplineSet
379 65 m 1,0,-1
 339 65 l 1,1,-1
 329 65 l 1,2,-1
 329 115 l 1,3,-1
 329 165 l 1,4,-1
 115 165 l 1,5,-1
 115 175 l 1,6,-1
 115 215 l 1,7,-1
 115 225 l 1,8,-1
 329 225 l 1,9,-1
 329 495 l 1,10,-1
 115 495 l 1,11,-1
 115 505 l 1,12,-1
 115 545 l 1,13,-1
 115 555 l 1,14,-1
 329 555 l 1,15,-1
 329 645 l 1,16,-1
 339 645 l 1,17,-1
 379 645 l 1,18,-1
 389 645 l 1,19,-1
 389 555 l 1,20,-1
 603 555 l 1,21,-1
 603 545 l 1,22,-1
 603 505 l 1,23,-1
 603 495 l 1,24,-1
 389 495 l 1,25,-1
 389 225 l 1,26,-1
 603 225 l 1,27,-1
 603 215 l 1,28,-1
 603 175 l 1,29,-1
 603 165 l 1,30,-1
 389 165 l 1,31,-1
 389 115 l 1,32,-1
 389 65 l 1,33,-1
 379 65 l 1,0,-1
EndSplineSet
Substitution2: "'ss12' Style Set 12 in Latin lookup 26 subtable" daggerdbl.v
Substitution2: "'ss01' Style Set 1 in Latin lookup 22 subtable" daggerdbl.v
Substitution2: "'vert' Vertical Alternates in Latin lookup 21 subtable" daggerdbl.v
Position2: "'ss11' Style Set 11 in Latin lookup 1 per glyph data 50" dx=281 dy=0 dh=562 dv=0
EndChar

StartChar: period
Encoding: 46 46 225
Width: 384
GlyphClass: 1
Flags: W
LayerCount: 2
Fore
SplineSet
212 65 m 1,0,-1
 172 65 l 1,1,-1
 162 65 l 1,2,-1
 162 210 l 1,3,-1
 172 210 l 1,4,-1
 212 210 l 1,5,-1
 222 210 l 1,6,-1
 222 65 l 1,7,-1
 212 65 l 1,0,-1
EndSplineSet
Substitution2: "'ss12' Style Set 12 in Latin lookup 26 subtable" period.v
Substitution2: "'ss01' Style Set 1 in Latin lookup 22 subtable" period.v
Substitution2: "'vert' Vertical Alternates in Latin lookup 21 subtable" period.v
Position2: "'ss11' Style Set 11 in Latin lookup 1 per glyph data 114" dx=448 dy=0 dh=896 dv=0
EndChar

StartChar: comma
Encoding: 44 44 226
Width: 384
GlyphClass: 1
Flags: W
LayerCount: 2
Fore
SplineSet
284 195 m 1,0,-1
 284 26 l 2,1,2
 284 -20 284 -20 260 -42.5 c 128,-1,3
 236 -65 236 -65 196 -65 c 2,4,-1
 150 -65 l 1,5,-1
 146 -65 l 1,6,-1
 100 -65 l 1,7,-1
 100 -55 l 1,8,-1
 100 -15 l 1,9,-1
 100 -5 l 1,10,-1
 146 -5 l 2,11,12
 182 -5 182 -5 203 15.5 c 128,-1,13
 224 36 224 36 224 76 c 2,14,-1
 224 135 l 1,15,-1
 100 135 l 1,16,-1
 100 145 l 1,17,-1
 100 185 l 1,18,-1
 100 195 l 1,19,-1
 284 195 l 1,0,-1
EndSplineSet
Substitution2: "'ss12' Style Set 12 in Latin lookup 26 subtable" comma.v
Substitution2: "'ss01' Style Set 1 in Latin lookup 22 subtable" comma.v
Substitution2: "'vert' Vertical Alternates in Latin lookup 21 subtable" comma.v
Position2: "'ss11' Style Set 11 in Latin lookup 1 per glyph data 114" dx=448 dy=0 dh=896 dv=0
EndChar

StartChar: ellipsis
Encoding: 8230 8230 229
Width: 1110
GlyphClass: 1
Flags: W
LayerCount: 2
Fore
SplineSet
212 65 m 1,0,-1
 172 65 l 1,1,-1
 162 65 l 1,2,-1
 162 210 l 1,3,-1
 172 210 l 1,4,-1
 212 210 l 1,5,-1
 222 210 l 1,6,-1
 222 65 l 1,7,-1
 212 65 l 1,0,-1
575 65 m 1,8,-1
 535 65 l 1,9,-1
 525 65 l 1,10,-1
 525 210 l 1,11,-1
 535 210 l 1,12,-1
 575 210 l 1,13,-1
 585 210 l 1,14,-1
 585 65 l 1,15,-1
 575 65 l 1,8,-1
938 65 m 1,16,-1
 898 65 l 1,17,-1
 888 65 l 1,18,-1
 888 210 l 1,19,-1
 898 210 l 1,20,-1
 938 210 l 1,21,-1
 948 210 l 1,22,-1
 948 65 l 1,23,-1
 938 65 l 1,16,-1
EndSplineSet
Substitution2: "'ss12' Style Set 12 in Latin lookup 26 subtable" ellipsis.v
Substitution2: "'ss01' Style Set 1 in Latin lookup 22 subtable" ellipsis.v
Substitution2: "'vert' Vertical Alternates in Latin lookup 21 subtable" ellipsis.v
Position2: "'ss11' Style Set 11 in Latin lookup 1 per glyph data 14" dx=85 dy=0 dh=170 dv=0
EndChar

StartChar: exclam
Encoding: 33 33 230
Width: 424
GlyphClass: 1
Flags: W
LayerCount: 2
Fore
SplineSet
192 55 m 1,0,-1
 182 55 l 1,1,-1
 182 98 l 1,2,-1
 182 105 l 1,3,-1
 182 148 l 1,4,-1
 192 148 l 1,5,-1
 232 148 l 1,6,-1
 242 148 l 1,7,-1
 242 105 l 1,8,-1
 242 98 l 1,9,-1
 242 55 l 1,10,-1
 232 55 l 1,11,-1
 192 55 l 1,0,-1
232 655 m 1,12,-1
 242 655 l 1,13,-1
 242 327 l 1,14,-1
 232 327 l 1,15,-1
 192 327 l 1,16,-1
 182 327 l 1,17,-1
 182 655 l 1,18,-1
 192 655 l 1,19,-1
 232 655 l 1,12,-1
232 98 m 1,20,-1
 232 105 l 1,21,-1
 192 105 l 1,22,-1
 192 98 l 1,23,-1
 232 98 l 1,20,-1
EndSplineSet
Substitution2: "'ss12' Style Set 12 in Latin lookup 26 subtable" exclam.v
Substitution2: "'ss01' Style Set 1 in Latin lookup 22 subtable" exclam.v
Substitution2: "'vert' Vertical Alternates in Latin lookup 21 subtable" exclam.v
Position2: "'ss11' Style Set 11 in Latin lookup 1 per glyph data 111" dx=428 dy=0 dh=856 dv=0
EndChar

StartChar: exclamdown
Encoding: 161 161 231
Width: 423
GlyphClass: 1
Flags: W
LayerCount: 2
Fore
SplineSet
192 65 m 1,0,-1
 182 65 l 1,1,-1
 182 393 l 1,2,-1
 192 393 l 1,3,-1
 232 393 l 1,4,-1
 242 393 l 1,5,-1
 242 65 l 1,6,-1
 232 65 l 1,7,-1
 192 65 l 1,0,-1
232 665 m 1,8,-1
 242 665 l 1,9,-1
 242 622 l 1,10,-1
 242 615 l 1,11,-1
 242 572 l 1,12,-1
 232 572 l 1,13,-1
 192 572 l 1,14,-1
 182 572 l 1,15,-1
 182 615 l 1,16,-1
 182 622 l 1,17,-1
 182 665 l 1,18,-1
 192 665 l 1,19,-1
 232 665 l 1,8,-1
192 622 m 1,20,-1
 192 615 l 1,21,-1
 232 615 l 1,22,-1
 232 622 l 1,23,-1
 192 622 l 1,20,-1
EndSplineSet
Substitution2: "'ss12' Style Set 12 in Latin lookup 26 subtable" exclamdown.v
Substitution2: "'ss01' Style Set 1 in Latin lookup 22 subtable" exclamdown.v
Substitution2: "'vert' Vertical Alternates in Latin lookup 21 subtable" exclamdown.v
Position2: "'ss11' Style Set 11 in Latin lookup 1 per glyph data 112" dx=429 dy=0 dh=857 dv=0
EndChar

StartChar: question
Encoding: 63 63 232
Width: 656
GlyphClass: 1
Flags: W
LayerCount: 2
Fore
SplineSet
223 105 m 1,0,-1
 223 148 l 1,1,-1
 233 148 l 1,2,-1
 273 148 l 1,3,-1
 283 148 l 1,4,-1
 283 105 l 1,5,-1
 283 98 l 1,6,-1
 283 55 l 1,7,-1
 273 55 l 1,8,-1
 233 55 l 1,9,-1
 223 55 l 1,10,-1
 223 98 l 1,11,-1
 223 105 l 1,0,-1
463 449 m 2,12,-1
 463 512 l 2,13,14
 463 561 463 561 436.5 577 c 128,-1,15
 410 593 410 593 379 593 c 2,16,-1
 110 593 l 1,17,-1
 110 603 l 1,18,-1
 110 643 l 1,19,-1
 110 653 l 1,20,-1
 429 653 l 2,21,22
 463 653 463 653 493 634.5 c 128,-1,23
 523 616 523 616 523 562 c 2,24,-1
 523 399 l 2,25,26
 523 368 523 368 506 358 c 128,-1,27
 489 348 489 348 466 345 c 2,28,-1
 201.231527094 308.226600985 l 1,29,-1
 200 315 l 1,30,-1
 198 326 l 1,31,-1
 189.125718981 374.808545604 l 1,32,-1
 414 405 l 2,33,34
 433 408 433 408 448 415.5 c 128,-1,35
 463 423 463 423 463 449 c 2,12,-1
233 98 m 1,36,-1
 273 98 l 1,37,-1
 273 105 l 1,38,-1
 233 105 l 1,39,-1
 233 98 l 1,36,-1
EndSplineSet
Substitution2: "'ss12' Style Set 12 in Latin lookup 26 subtable" question.v
Substitution2: "'ss01' Style Set 1 in Latin lookup 22 subtable" question.v
Substitution2: "'vert' Vertical Alternates in Latin lookup 21 subtable" question.v
Position2: "'ss11' Style Set 11 in Latin lookup 1 per glyph data 69" dx=312 dy=0 dh=624 dv=0
EndChar

StartChar: questiondown
Encoding: 191 191 233
Width: 656
GlyphClass: 1
Flags: W
LayerCount: 2
Fore
SplineSet
195 272 m 2,0,-1
 195 208 l 2,1,2
 195 159 195 159 221.5 143 c 128,-1,3
 248 127 248 127 279 127 c 2,4,-1
 548 127 l 1,5,-1
 548 117 l 1,6,-1
 548 77 l 1,7,-1
 548 67 l 1,8,-1
 229 67 l 2,9,10
 195 67 195 67 165 85.5 c 128,-1,11
 135 104 135 104 135 158 c 2,12,-1
 135 322 l 2,13,14
 135 353 135 353 152 363 c 128,-1,15
 169 373 169 373 192 376 c 2,16,-1
 456.768472906 412.773399015 l 1,17,-1
 458 406 l 1,18,-1
 460 395 l 1,19,-1
 468.874281019 346.191454396 l 1,20,-1
 244 316 l 2,21,22
 225 313 225 313 210 305.5 c 128,-1,23
 195 298 195 298 195 272 c 2,0,-1
435 615 m 1,24,-1
 435 572 l 1,25,-1
 425 572 l 1,26,-1
 385 572 l 1,27,-1
 375 572 l 1,28,-1
 375 615 l 1,29,-1
 375 622 l 1,30,-1
 375 665 l 1,31,-1
 385 665 l 1,32,-1
 425 665 l 1,33,-1
 435 665 l 1,34,-1
 435 622 l 1,35,-1
 435 615 l 1,24,-1
425 622 m 1,36,-1
 385 622 l 1,37,-1
 385 615 l 1,38,-1
 425 615 l 1,39,-1
 425 622 l 1,36,-1
EndSplineSet
Substitution2: "'ss12' Style Set 12 in Latin lookup 26 subtable" questiondown.v
Substitution2: "'ss01' Style Set 1 in Latin lookup 22 subtable" questiondown.v
Substitution2: "'vert' Vertical Alternates in Latin lookup 21 subtable" questiondown.v
Position2: "'ss11' Style Set 11 in Latin lookup 1 per glyph data 69" dx=312 dy=0 dh=624 dv=0
EndChar

StartChar: slash
Encoding: 47 47 234
Width: 347
GlyphClass: 1
Flags: W
LayerCount: 2
Fore
SplineSet
246 745 m 1,0,-1
 256 745 l 1,1,-1
 263.222222222 745 l 1,2,-1
 152 -25 l 1,3,-1
 142 -25 l 1,4,-1
 102 -25 l 1,5,-1
 92 -25 l 1,6,-1
 84.7777777778 -25 l 1,7,-1
 196 745 l 1,8,-1
 206 745 l 1,9,-1
 246 745 l 1,0,-1
EndSplineSet
Position2: "'ss11' Style Set 11 in Latin lookup 1 per glyph data 119" dx=467 dy=0 dh=933 dv=0
EndChar

StartChar: backslash
Encoding: 92 92 235
Width: 347
GlyphClass: 1
Flags: W
LayerCount: 2
Fore
SplineSet
152 745 m 1,0,-1
 263.222222222 -25 l 1,1,-1
 196 -25 l 1,2,-1
 84.7777777778 745 l 1,3,-1
 152 745 l 1,0,-1
EndSplineSet
Position2: "'ss11' Style Set 11 in Latin lookup 1 per glyph data 119" dx=467 dy=0 dh=933 dv=0
EndChar

StartChar: fraction
Encoding: 8260 8260 236
Width: 317
GlyphClass: 1
Flags: W
LayerCount: 2
Fore
SplineSet
89 65 m 1,0,-1
 79 65 l 1,1,-1
 69.7407407407 65 l 1,2,-1
 179 655 l 1,3,-1
 189 655 l 1,4,-1
 229 655 l 1,5,-1
 239 655 l 1,6,-1
 248.259259259 655 l 1,7,-1
 139 65 l 1,8,-1
 129 65 l 1,9,-1
 89 65 l 1,0,-1
EndSplineSet
Position2: "'ss11' Style Set 11 in Latin lookup 1 per glyph data 121" dx=482 dy=0 dh=963 dv=0
EndChar

StartChar: bar
Encoding: 124 124 237
Width: 347
GlyphClass: 1
Flags: W
LayerCount: 2
Fore
SplineSet
194 745 m 1,0,-1
 204 745 l 1,1,-1
 204 -25 l 1,2,-1
 194 -25 l 1,3,-1
 154 -25 l 1,4,-1
 144 -25 l 1,5,-1
 144 745 l 1,6,-1
 154 745 l 1,7,-1
 194 745 l 1,0,-1
EndSplineSet
Position2: "'ss11' Style Set 11 in Latin lookup 1 per glyph data 119" dx=467 dy=0 dh=933 dv=0
EndChar

StartChar: brokenbar
Encoding: 166 166 238
Width: 347
GlyphClass: 1
Flags: W
LayerCount: 2
Fore
SplineSet
194 255 m 1,0,-1
 204 255 l 1,1,-1
 204 -25 l 1,2,-1
 194 -25 l 1,3,-1
 154 -25 l 1,4,-1
 144 -25 l 1,5,-1
 144 255 l 1,6,-1
 154 255 l 1,7,-1
 194 255 l 1,0,-1
194 745 m 1,8,-1
 204 745 l 1,9,-1
 204 465 l 1,10,-1
 194 465 l 1,11,-1
 154 465 l 1,12,-1
 144 465 l 1,13,-1
 144 745 l 1,14,-1
 154 745 l 1,15,-1
 194 745 l 1,8,-1
EndSplineSet
Position2: "'ss11' Style Set 11 in Latin lookup 1 per glyph data 119" dx=467 dy=0 dh=933 dv=0
EndChar

StartChar: at
Encoding: 64 64 239
Width: 867
GlyphClass: 1
Flags: W
LayerCount: 2
Fore
SplineSet
409 -75 m 2,0,1
 300 -75 300 -75 234.5 -58.5 c 128,-1,2
 169 -42 169 -42 135 -14 c 128,-1,3
 101 14 101 14 90.5 50 c 128,-1,4
 80 86 80 86 80 125 c 2,5,-1
 80 593 l 2,6,7
 80 632 80 632 90.5 668.5 c 128,-1,8
 101 705 101 705 135 732.5 c 128,-1,9
 169 760 169 760 234.5 776.5 c 128,-1,10
 300 793 300 793 409 793 c 2,11,-1
 459 793 l 2,12,13
 568 793 568 793 633.5 776.5 c 128,-1,14
 699 760 699 760 732.5 732.5 c 128,-1,15
 766 705 766 705 776.5 668.5 c 128,-1,16
 787 632 787 632 787 593 c 2,17,-1
 787 277 l 2,18,19
 787 202 787 202 760 168.5 c 128,-1,20
 733 135 733 135 670 135 c 2,21,-1
 358 135 l 2,22,23
 309 135 309 135 289 158.5 c 128,-1,24
 269 182 269 182 269 236 c 2,25,-1
 269 447 l 2,26,27
 269 467 269 467 271 486 c 128,-1,28
 273 505 273 505 285.5 519.5 c 128,-1,29
 298 534 298 534 324.5 543 c 128,-1,30
 351 552 351 552 400 552 c 2,31,-1
 594 552 l 1,32,-1
 594 195 l 1,33,-1
 620 195 l 2,34,35
 678 195 678 195 702.5 226.5 c 128,-1,36
 727 258 727 258 727 327 c 2,37,-1
 727 543 l 2,38,39
 727 581 727 581 716.5 615.5 c 128,-1,40
 706 650 706 650 672.5 676 c 0,41,42
 603.576809794 729.492625235 603.576809794 729.492625235 433.999995448 732.76480081 c 1,43,44
 264.423188514 729.492623922 264.423188514 729.492623922 195.5 676 c 0,45,46
 162 650 162 650 151 615.5 c 128,-1,47
 140 581 140 581 140 543 c 2,48,-1
 140 175 l 2,49,50
 140 138 140 138 150.5 103.5 c 128,-1,51
 161 69 161 69 194.5 42.5 c 128,-1,52
 228 16 228 16 291.5 0.5 c 128,-1,53
 355 -15 355 -15 459 -15 c 2,54,-1
 633 -15 l 1,55,-1
 633 -25 l 1,56,-1
 633 -65 l 1,57,-1
 633 -75 l 1,58,-1
 409 -75 l 2,0,1
408 195 m 2,59,-1
 534 195 l 1,60,-1
 534 492 l 1,61,-1
 450 492 l 2,62,63
 371.153846154 492 371.153846154 492 345.5 463 c 0,64,65
 334 450 334 450 331.5 432.5 c 128,-1,66
 329 415 329 415 329 397 c 2,67,-1
 329 286 l 2,68,69
 329 238 329 238 346.5 216.5 c 128,-1,70
 364 195 364 195 408 195 c 2,59,-1
319 285.999994242 m 1,71,-1
 319 236 l 1,72,-1
 319 285.999994242 l 1,71,-1
EndSplineSet
Position2: "'ss11' Style Set 11 in Latin lookup 1 per glyph data 25" dx=207 dy=0 dh=413 dv=0
EndChar

StartChar: ampersand
Encoding: 38 38 240
Width: 766
GlyphClass: 1
Flags: W
LayerCount: 2
Fore
SplineSet
225 65 m 2,0,1
 166 65 166 65 137 91.5 c 128,-1,2
 108 118 108 118 108 173 c 2,3,-1
 108 284 l 2,4,5
 108 333 108 333 138 365 c 0,6,7
 158.072045875 386.410182266 158.072045875 386.410182266 192.46896377 393.495492511 c 1,8,9
 185 414 185 414 185 444 c 2,10,-1
 185 550 l 2,11,12
 185 605 185 605 214 630 c 128,-1,13
 243 655 243 655 303 655 c 2,14,-1
 478 655 l 1,15,-1
 478 645 l 1,16,-1
 478 605 l 1,17,-1
 478 595 l 1,18,-1
 353 595 l 2,19,20
 297 595 297 595 271 572 c 128,-1,21
 245 549 245 549 245 498 c 2,22,-1
 245 494 l 2,23,24
 245 445 245 445 267.5 421.5 c 128,-1,25
 290 398 290 398 337 398 c 2,26,-1
 347 398 l 1,27,-1
 347 388 l 1,28,-1
 347 373.923076923 l 1,29,-1
 417 347 l 1,30,-1
 347 347 l 1,31,-1
 347 338 l 1,32,-1
 280 338 l 2,33,34
 223 338 223 338 195.5 308.5 c 128,-1,35
 168 279 168 279 168 234 c 2,36,-1
 168 223 l 2,37,38
 168 172 168 172 195 148.5 c 128,-1,39
 222 125 222 125 281 125 c 2,40,-1
 466 125 l 2,41,42
 506 125 506 125 527.5 145.5 c 128,-1,43
 549 166 549 166 549 206 c 2,44,-1
 549 341 l 1,45,-1
 674 341 l 1,46,-1
 674 331 l 1,47,-1
 674 291 l 1,48,-1
 674 281 l 1,49,-1
 609 281 l 1,50,-1
 609 156 l 2,51,52
 609 110 609 110 584.5 87.5 c 128,-1,53
 560 65 560 65 516 65 c 2,54,-1
 225 65 l 2,0,1
235 493.999996353 m 1,55,-1
 235 444 l 1,56,-1
 235 493.999996353 l 1,55,-1
EndSplineSet
Substitution2: "'ss12' Style Set 12 in Latin lookup 26 subtable" ampersand.v
Substitution2: "'ss01' Style Set 1 in Latin lookup 22 subtable" ampersand.v
Substitution2: "'vert' Vertical Alternates in Latin lookup 21 subtable" ampersand.v
Substitution2: "'ss06' Style Set 6 in Latin lookup 14 subtable" ampersand.salt
Position2: "'ss11' Style Set 11 in Latin lookup 1 per glyph data 32" dx=257 dy=0 dh=514 dv=0
EndChar

StartChar: ampersand.salt
Encoding: 57658 57658 241
Width: 632
GlyphClass: 1
Flags: W
LayerCount: 2
Fore
SplineSet
340 -25 m 1,0,-1
 330 -25 l 1,1,-1
 330 25 l 1,2,-1
 330 65 l 1,3,-1
 249 65 l 2,4,5
 170.576923077 65 170.576923077 65 141.5 93 c 0,6,7
 128 106 128 106 123 124.5 c 128,-1,8
 118 143 118 143 118 165 c 2,9,-1
 118 279 l 2,10,11
 118 327 118 327 140 359.5 c 0,12,13
 154.095100438 380.322307465 154.095100438 380.322307465 191.177027229 388.214525105 c 1,14,15
 184 411 184 411 184 435 c 2,16,-1
 184 549 l 2,17,18
 184 571 184 571 189 590 c 128,-1,19
 194 609 194 609 208 623.5 c 0,20,21
 238.413793103 655 238.413793103 655 315 655 c 2,22,-1
 330 655 l 1,23,-1
 330 745 l 1,24,-1
 340 745 l 1,25,-1
 380 745 l 1,26,-1
 390 745 l 1,27,-1
 390 655 l 1,28,-1
 519 655 l 1,29,-1
 519 645 l 1,30,-1
 519 605 l 1,31,-1
 519 595 l 1,32,-1
 365 595 l 2,33,34
 292 595 292 595 268 568.5 c 128,-1,35
 244 542 244 542 244 503 c 2,36,-1
 244 485 l 2,37,38
 244 467 244 467 247 450.5 c 128,-1,39
 250 434 250 434 261.5 421.5 c 0,40,41
 286.8 394 286.8 394 355 394 c 2,42,-1
 438 394 l 1,43,-1
 438 384 l 1,44,-1
 438 344 l 1,45,-1
 438 334 l 1,46,-1
 298 334 l 2,47,48
 225 334 225 334 201.5 305.5 c 128,-1,49
 178 277 178 277 178 234 c 2,50,-1
 178 215 l 2,51,52
 178 174 178 174 201 149.5 c 128,-1,53
 224 125 224 125 299 125 c 2,54,-1
 519 125 l 1,55,-1
 519 115 l 1,56,-1
 519 75 l 1,57,-1
 519 65 l 1,58,-1
 390 65 l 1,59,-1
 390 -25 l 1,60,-1
 380 -25 l 1,61,-1
 340 -25 l 1,0,-1
EndSplineSet
Substitution2: "'ss12' Style Set 12 in Latin lookup 26 subtable" ampersand.salt_v
Substitution2: "'ss01' Style Set 1 in Latin lookup 22 subtable" ampersand.salt_v
Substitution2: "'vert' Vertical Alternates in Latin lookup 21 subtable" ampersand.salt_v
Position2: "'ss11' Style Set 11 in Latin lookup 1 per glyph data 79" dx=324 dy=0 dh=648 dv=0
EndChar

StartChar: section
Encoding: 167 167 242
Width: 650
GlyphClass: 1
Flags: W
LayerCount: 2
Fore
SplineSet
126 97 m 1,0,-1
 126 107 l 1,1,-1
 337 107 l 2,2,3
 416 107 416 107 450.5 132.5 c 128,-1,4
 485 158 485 158 485 226 c 2,5,-1
 485 235 l 1,6,-1
 282 235 l 2,7,8
 202 235 202 235 166.5 273.5 c 128,-1,9
 131 312 131 312 131 368 c 2,10,-1
 131 544 l 2,11,12
 131 616 131 616 167.5 644.5 c 128,-1,13
 204 673 204 673 289 673 c 2,14,-1
 510 673 l 1,15,-1
 510 663 l 1,16,-1
 510 623 l 1,17,-1
 510 613 l 1,18,-1
 339 613 l 2,19,20
 260 613 260 613 225.5 587.5 c 128,-1,21
 191 562 191 562 191 494 c 2,22,-1
 191 485 l 1,23,-1
 394 485 l 2,24,25
 474 485 474 485 509.5 447 c 128,-1,26
 545 409 545 409 545 352 c 2,27,-1
 545 176 l 2,28,29
 545 104 545 104 508.5 75.5 c 128,-1,30
 472 47 472 47 387 47 c 2,31,-1
 126 47 l 1,32,-1
 126 57 l 1,33,-1
 126 97 l 1,0,-1
332 295 m 2,34,-1
 485 295 l 1,35,-1
 485 302.000004366 l 2,36,37
 485 355.000001442 485 355.000001442 451.5 390 c 128,-1,38
 418 425 418 425 344 425 c 2,39,-1
 191 425 l 1,40,-1
 191 418 l 2,41,42
 191 366 191 366 224.5 330.5 c 128,-1,43
 258 295 258 295 332 295 c 2,34,-1
181 417.999996831 m 1,44,-1
 181 368 l 1,45,-1
 181 417.999996831 l 1,44,-1
EndSplineSet
Position2: "'ss11' Style Set 11 in Latin lookup 1 per glyph data 71" dx=315 dy=0 dh=630 dv=0
EndChar

StartChar: paragraph
Encoding: 182 182 243
Width: 682
GlyphClass: 1
Flags: W
LayerCount: 2
Fore
SplineSet
302 65 m 1,0,-1
 262 65 l 1,1,-1
 252 65 l 1,2,-1
 252 267 l 1,3,-1
 248 267 l 2,4,5
 160.285714286 267 160.285714286 267 126 304.5 c 0,6,7
 110 322 110 322 104 346.5 c 128,-1,8
 98 371 98 371 98 400 c 2,9,-1
 98 519 l 2,10,11
 98 548 98 548 104 573 c 128,-1,12
 110 598 110 598 126 616 c 0,13,14
 160.666666667 655 160.666666667 655 248 655 c 2,15,-1
 550 655 l 1,16,-1
 550 65 l 1,17,-1
 540 65 l 1,18,-1
 500 65 l 1,19,-1
 490 65 l 1,20,-1
 490 267 l 1,21,-1
 312 267 l 1,22,-1
 312 65 l 1,23,-1
 302 65 l 1,0,-1
298 327 m 2,24,-1
 490 327 l 1,25,-1
 490 595 l 1,26,-1
 298 595 l 2,27,28
 215.764705882 595 215.764705882 595 184 559 c 0,29,30
 169 542 169 542 163.5 519 c 128,-1,31
 158 496 158 496 158 469 c 2,32,-1
 158 450 l 2,33,34
 158 423 158 423 163.5 400.5 c 128,-1,35
 169 378 169 378 184 361.5 c 0,36,37
 215.363636364 327 215.363636364 327 298 327 c 2,24,-1
EndSplineSet
Position2: "'ss11' Style Set 11 in Latin lookup 1 per glyph data 66" dx=299 dy=0 dh=598 dv=0
EndChar

StartChar: bullet
Encoding: 8226 8226 245
Width: 443
GlyphClass: 1
Flags: W
LayerCount: 2
Fore
SplineSet
273 310 m 1,0,-1
 273 414 l 1,1,-1
 170 414 l 1,2,-1
 170 310 l 1,3,-1
 273 310 l 1,0,-1
333 474 m 1,4,-1
 333 250 l 1,5,-1
 110 250 l 1,6,-1
 110 474 l 1,7,-1
 333 474 l 1,4,-1
EndSplineSet
AlternateSubs2: "'ornm' Ornaments in Latin lookup 20 subtable" arrowdown arrowdown.chevron arrowdownleft arrowdownright arrowleft arrowleft.chevron arrowright arrowright.chevron arrowup arrowup.chevron arrowupleft arrowupright block block.v emspace enspace indexdown indexdown.salt indexdownleft indexdownleft.outline indexdownleft.salt indexdownleft.salt_outline indexdownright indexdownright.outline indexdownright.salt indexdownright.salt_outline indexup indexup.salt indexupleft indexupleft.outline indexupleft.salt indexupleft.salt_outline indexupright indexupright.outline indexupright.salt indexupright.salt_outline uni21AA uni21AB uni21AB.arrow uni21AB.v_arrow uni21AC.arrow uni21AC.v_arrow uni21B0 uni21B1 uni21B2 uni21B3 uni25D6 uni25D6.bevel uni25D6.deco uni25D6.rounded uni25D6.spike uni25D6.square uni25D6.v uni25D6.v_bevel uni25D6.v_deco uni25D6.v_rounded uni25D6.v_spike uni25D6.v_square uni25D6.v_wings uni25D6.wings uni25D7 uni25D7.bevel uni25D7.deco uni25D7.rounded uni25D7.spike uni25D7.square uni25D7.v uni25D7.v_bevel uni25D7.v_deco uni25D7.v_rounded uni25D7.v_spike uni25D7.v_square uni25D7.v_wings uni25D7.wings uni25DC uni25DD uni25DD.curve uni25DD.curve_v uni25DE uni25DF uni261A uni261A.salt uni261B uni261B.salt uni261C uni261C.salt uni261D uni261D.salt uni261E uni261E.salt uni261F uni261F.salt uni27A1 uni27A1.n uni27A1.s uni27A1.w uni2B1B uni2B1B.chevron_e uni2B1B.chevron_n uni2B1B.chevron_s uni2B1B.chevron_w uni2B1B.semichevron_e uni2B1B.semichevron_n uni2B1B.semichevron_s uni2B1B.semichevron_w uni2B1B.trapezoid_e uni2B1B.trapezoid_e_v uni2B1B.trapezoid_w uni2B1B.trapezoid_w_v uni2B24 uni2B24.salt uni2B24.salt_v
Position2: "'ss11' Style Set 11 in Latin lookup 1 per glyph data 109" dx=419 dy=0 dh=837 dv=0
EndChar

StartChar: minute
Encoding: 8242 8242 246
Width: 356
GlyphClass: 1
Flags: W
LayerCount: 2
Fore
SplineSet
152 410 m 1,0,-1
 141 410 l 1,1,-1
 137.41025641 410 l 1,2,-1
 155 655 l 1,3,-1
 166 655 l 1,4,-1
 205 655 l 1,5,-1
 216 655 l 1,6,-1
 219.58974359 655 l 1,7,-1
 202 410 l 1,8,-1
 191 410 l 1,9,-1
 152 410 l 1,0,-1
EndSplineSet
Position2: "'ss11' Style Set 11 in Latin lookup 1 per glyph data 117" dx=462 dy=0 dh=924 dv=0
EndChar

StartChar: second
Encoding: 8243 8243 247
Width: 666
GlyphClass: 1
Flags: W
LayerCount: 2
Fore
SplineSet
152 410 m 1,0,-1
 141 410 l 1,1,-1
 137.41025641 410 l 1,2,-1
 155 655 l 1,3,-1
 166 655 l 1,4,-1
 205 655 l 1,5,-1
 216 655 l 1,6,-1
 219.58974359 655 l 1,7,-1
 202 410 l 1,8,-1
 191 410 l 1,9,-1
 152 410 l 1,0,-1
462 410 m 1,10,-1
 451 410 l 1,11,-1
 447.41025641 410 l 1,12,-1
 465 655 l 1,13,-1
 476 655 l 1,14,-1
 515 655 l 1,15,-1
 526 655 l 1,16,-1
 529.58974359 655 l 1,17,-1
 512 410 l 1,18,-1
 501 410 l 1,19,-1
 462 410 l 1,10,-1
EndSplineSet
Position2: "'ss11' Style Set 11 in Latin lookup 1 per glyph data 67" dx=307 dy=0 dh=614 dv=0
EndChar

StartChar: plus
Encoding: 43 43 248
Width: 734
GlyphClass: 1
Flags: W
LayerCount: 2
Fore
SplineSet
387 128 m 1,0,-1
 347 128 l 1,1,-1
 337 128 l 1,2,-1
 337 330 l 1,3,-1
 135 330 l 1,4,-1
 135 340 l 1,5,-1
 135 380 l 1,6,-1
 135 390 l 1,7,-1
 337 390 l 1,8,-1
 337 592 l 1,9,-1
 347 592 l 1,10,-1
 387 592 l 1,11,-1
 397 592 l 1,12,-1
 397 390 l 1,13,-1
 599 390 l 1,14,-1
 599 380 l 1,15,-1
 599 340 l 1,16,-1
 599 330 l 1,17,-1
 397 330 l 1,18,-1
 397 128 l 1,19,-1
 387 128 l 1,0,-1
EndSplineSet
Position2: "'ss11' Style Set 11 in Latin lookup 1 per glyph data 44" dx=273 dy=0 dh=546 dv=0
EndChar

StartChar: minus
Encoding: 8722 8722 249
Width: 734
GlyphClass: 1
Flags: W
LayerCount: 2
Fore
SplineSet
135 380 m 1,0,-1
 135 390 l 1,1,-1
 599 390 l 1,2,-1
 599 380 l 1,3,-1
 599 340 l 1,4,-1
 599 330 l 1,5,-1
 135 330 l 1,6,-1
 135 340 l 1,7,-1
 135 380 l 1,0,-1
EndSplineSet
Position2: "'ss11' Style Set 11 in Latin lookup 1 per glyph data 44" dx=273 dy=0 dh=546 dv=0
EndChar

StartChar: divide
Encoding: 247 247 251
Width: 734
GlyphClass: 1
Flags: W
LayerCount: 2
Fore
SplineSet
337 142 m 1,0,-1
 337 187 l 1,1,-1
 347 187 l 1,2,-1
 387 187 l 1,3,-1
 397 187 l 1,4,-1
 397 142 l 1,5,-1
 397 137 l 1,6,-1
 397 92 l 1,7,-1
 387 92 l 1,8,-1
 347 92 l 1,9,-1
 337 92 l 1,10,-1
 337 137 l 1,11,-1
 337 142 l 1,0,-1
135 380 m 1,12,-1
 135 390 l 1,13,-1
 599 390 l 1,14,-1
 599 380 l 1,15,-1
 599 340 l 1,16,-1
 599 330 l 1,17,-1
 135 330 l 1,18,-1
 135 340 l 1,19,-1
 135 380 l 1,12,-1
337 583 m 1,20,-1
 337 628 l 1,21,-1
 347 628 l 1,22,-1
 387 628 l 1,23,-1
 397 628 l 1,24,-1
 397 583 l 1,25,-1
 397 578 l 1,26,-1
 397 533 l 1,27,-1
 387 533 l 1,28,-1
 347 533 l 1,29,-1
 337 533 l 1,30,-1
 337 578 l 1,31,-1
 337 583 l 1,20,-1
347 137 m 1,32,-1
 387 137 l 1,33,-1
 387 142 l 1,34,-1
 347 142 l 1,35,-1
 347 137 l 1,32,-1
347 578 m 1,36,-1
 387 578 l 1,37,-1
 387 583 l 1,38,-1
 347 583 l 1,39,-1
 347 578 l 1,36,-1
EndSplineSet
Position2: "'ss11' Style Set 11 in Latin lookup 1 per glyph data 44" dx=273 dy=0 dh=546 dv=0
EndChar

StartChar: multiply
Encoding: 215 215 252
Width: 734
GlyphClass: 1
Flags: W
LayerCount: 2
Fore
SplineSet
424 360 m 1,0,-1
 567 217 l 1,1,-1
 542 192 l 1,2,-1
 535 185 l 1,3,-1
 510 160 l 1,4,-1
 367 303 l 1,5,-1
 224 160 l 1,6,-1
 199 185 l 1,7,-1
 192 192 l 1,8,-1
 167 217 l 1,9,-1
 310 360 l 1,10,-1
 167 503 l 1,11,-1
 192 528 l 1,12,-1
 199 535 l 1,13,-1
 224 560 l 1,14,-1
 367 417 l 1,15,-1
 510 560 l 1,16,-1
 535 535 l 1,17,-1
 542 528 l 1,18,-1
 567 503 l 1,19,-1
 424 360 l 1,0,-1
EndSplineSet
Position2: "'ss11' Style Set 11 in Latin lookup 1 per glyph data 44" dx=273 dy=0 dh=546 dv=0
EndChar

StartChar: equal
Encoding: 61 61 253
Width: 734
GlyphClass: 1
Flags: W
LayerCount: 2
Fore
SplineSet
135 230 m 1,0,-1
 135 240 l 1,1,-1
 599 240 l 1,2,-1
 599 230 l 1,3,-1
 599 190 l 1,4,-1
 599 180 l 1,5,-1
 135 180 l 1,6,-1
 135 190 l 1,7,-1
 135 230 l 1,0,-1
135 530 m 1,8,-1
 135 540 l 1,9,-1
 599 540 l 1,10,-1
 599 530 l 1,11,-1
 599 490 l 1,12,-1
 599 480 l 1,13,-1
 135 480 l 1,14,-1
 135 490 l 1,15,-1
 135 530 l 1,8,-1
EndSplineSet
Position2: "'ss11' Style Set 11 in Latin lookup 1 per glyph data 44" dx=273 dy=0 dh=546 dv=0
EndChar

StartChar: less
Encoding: 60 60 254
Width: 714
GlyphClass: 1
Flags: W
LayerCount: 2
Fore
SplineSet
559 151 m 1,0,-1
 559 141 l 1,1,-1
 559 126.666666667 l 1,2,-1
 209 227 l 2,3,4
 184 234 184 234 167.5 249.5 c 128,-1,5
 151 265 151 265 151 298 c 2,6,-1
 151 420 l 2,7,8
 151 453 151 453 167.5 467 c 128,-1,9
 184 481 184 481 209 488 c 2,10,-1
 559 588.333333333 l 1,11,-1
 559 514 l 1,12,-1
 261 428 l 2,13,14
 240 422 240 422 225.5 410 c 128,-1,15
 211 398 211 398 211 370 c 2,16,-1
 211 348 l 2,17,18
 211 320 211 320 225.5 306.5 c 128,-1,19
 240 293 240 293 261 287 c 2,20,-1
 559 201 l 1,21,-1
 559 191 l 1,22,-1
 559 151 l 1,0,-1
EndSplineSet
Position2: "'ss11' Style Set 11 in Latin lookup 1 per glyph data 52" dx=283 dy=0 dh=566 dv=0
EndChar

StartChar: greater
Encoding: 62 62 255
Width: 714
GlyphClass: 1
Flags: W
LayerCount: 2
Fore
SplineSet
155 524 m 1,0,-1
 155 564 l 1,1,-1
 155 574 l 1,2,-1
 155 588.333333333 l 1,3,-1
 505 488 l 2,4,5
 530 481 530 481 546.5 467 c 128,-1,6
 563 453 563 453 563 420 c 2,7,-1
 563 298 l 2,8,9
 563 265 563 265 546.5 249.5 c 128,-1,10
 530 234 530 234 505 227 c 2,11,-1
 155 126.666666667 l 1,12,-1
 155 201 l 1,13,-1
 453 287 l 2,14,15
 474 293 474 293 488.5 306.5 c 128,-1,16
 503 320 503 320 503 348 c 2,17,-1
 503 370 l 2,18,19
 503 398 503 398 488.5 410 c 128,-1,20
 474 422 474 422 453 428 c 2,21,-1
 155 514 l 1,22,-1
 155 524 l 1,0,-1
EndSplineSet
Position2: "'ss11' Style Set 11 in Latin lookup 1 per glyph data 52" dx=283 dy=0 dh=566 dv=0
EndChar

StartChar: lessequal
Encoding: 8804 8804 256
Width: 714
GlyphClass: 1
Flags: W
LayerCount: 2
Fore
SplineSet
151 115 m 1,0,-1
 151 125 l 1,1,-1
 559 125 l 1,2,-1
 559 115 l 1,3,-1
 559 75 l 1,4,-1
 559 65 l 1,5,-1
 151 65 l 1,6,-1
 151 75 l 1,7,-1
 151 115 l 1,0,-1
559 221 m 1,8,-1
 559 211 l 1,9,-1
 559 196.666666667 l 1,10,-1
 209 297 l 2,11,12
 184 304 184 304 167.5 319.5 c 128,-1,13
 151 335 151 335 151 368 c 2,14,-1
 151 490 l 2,15,16
 151 523 151 523 167.5 537 c 128,-1,17
 184 551 184 551 209 558 c 2,18,-1
 559 658.333333333 l 1,19,-1
 559 584 l 1,20,-1
 261 498 l 2,21,22
 240 492 240 492 225.5 480 c 128,-1,23
 211 468 211 468 211 440 c 2,24,-1
 211 418 l 2,25,26
 211 390 211 390 225.5 376.5 c 128,-1,27
 240 363 240 363 261 357 c 2,28,-1
 559 271 l 1,29,-1
 559 261 l 1,30,-1
 559 221 l 1,8,-1
EndSplineSet
Position2: "'ss11' Style Set 11 in Latin lookup 1 per glyph data 52" dx=283 dy=0 dh=566 dv=0
EndChar

StartChar: greaterequal
Encoding: 8805 8805 257
Width: 714
GlyphClass: 1
Flags: W
LayerCount: 2
Fore
SplineSet
155 115 m 1,0,-1
 155 125 l 1,1,-1
 563 125 l 1,2,-1
 563 115 l 1,3,-1
 563 75 l 1,4,-1
 563 65 l 1,5,-1
 155 65 l 1,6,-1
 155 75 l 1,7,-1
 155 115 l 1,0,-1
155 594 m 1,8,-1
 155 634 l 1,9,-1
 155 644 l 1,10,-1
 155 658.333333333 l 1,11,-1
 505 558 l 2,12,13
 530 551 530 551 546.5 537 c 128,-1,14
 563 523 563 523 563 490 c 2,15,-1
 563 368 l 2,16,17
 563 335 563 335 546.5 319.5 c 128,-1,18
 530 304 530 304 505 297 c 2,19,-1
 155 196.666666667 l 1,20,-1
 155 271 l 1,21,-1
 453 357 l 2,22,23
 474 363 474 363 488.5 376.5 c 128,-1,24
 503 390 503 390 503 418 c 2,25,-1
 503 440 l 2,26,27
 503 468 503 468 488.5 480 c 128,-1,28
 474 492 474 492 453 498 c 2,29,-1
 155 584 l 1,30,-1
 155 594 l 1,8,-1
EndSplineSet
Position2: "'ss11' Style Set 11 in Latin lookup 1 per glyph data 52" dx=283 dy=0 dh=566 dv=0
EndChar

StartChar: notequal
Encoding: 8800 8800 259
Width: 734
GlyphClass: 1
Flags: W
LayerCount: 2
Fore
SplineSet
347 95 m 1,0,-1
 307 95 l 1,1,-1
 297 95 l 1,2,-1
 288.176470588 95 l 1,3,-1
 303.176470588 180 l 1,4,-1
 135 180 l 1,5,-1
 135 190 l 1,6,-1
 135 230 l 1,7,-1
 135 240 l 1,8,-1
 313 240 l 1,9,-1
 354.379310345 480 l 1,10,-1
 135 480 l 1,11,-1
 135 490 l 1,12,-1
 135 530 l 1,13,-1
 135 540 l 1,14,-1
 365 540 l 1,15,-1
 381 635 l 1,16,-1
 391 635 l 1,17,-1
 431 635 l 1,18,-1
 441 635 l 1,19,-1
 449.421052632 635 l 1,20,-1
 433.421052632 540 l 1,21,-1
 599 540 l 1,22,-1
 599 530 l 1,23,-1
 599 490 l 1,24,-1
 599 480 l 1,25,-1
 423 480 l 1,26,-1
 381.620689655 240 l 1,27,-1
 599 240 l 1,28,-1
 599 230 l 1,29,-1
 599 190 l 1,30,-1
 599 180 l 1,31,-1
 372 180 l 1,32,-1
 357 95 l 1,33,-1
 347 95 l 1,0,-1
EndSplineSet
Position2: "'ss11' Style Set 11 in Latin lookup 1 per glyph data 44" dx=273 dy=0 dh=546 dv=0
EndChar

StartChar: logicalnot
Encoding: 172 172 260
Width: 734
GlyphClass: 1
Flags: W
LayerCount: 2
Fore
SplineSet
589 128 m 1,0,-1
 549 128 l 1,1,-1
 539 128 l 1,2,-1
 539 370 l 1,3,-1
 135 370 l 1,4,-1
 135 380 l 1,5,-1
 135 420 l 1,6,-1
 135 430 l 1,7,-1
 599 430 l 1,8,-1
 599 128 l 1,9,-1
 589 128 l 1,0,-1
EndSplineSet
Position2: "'ss11' Style Set 11 in Latin lookup 1 per glyph data 44" dx=273 dy=0 dh=546 dv=0
EndChar

StartChar: asciicircum
Encoding: 94 94 261
Width: 714
GlyphClass: 1
Flags: W
LayerCount: 2
Fore
SplineSet
494 236 m 1,0,-1
 408 537 l 2,1,2
 402 559 402 559 392 575 c 128,-1,3
 382 591 382 591 351 591 c 2,4,-1
 328 591 l 2,5,6
 297 591 297 591 287.5 575 c 128,-1,7
 278 559 278 559 271 536 c 2,8,-1
 186 236 l 1,9,-1
 175 236 l 1,10,-1
 136 236 l 1,11,-1
 125 236 l 1,12,-1
 110.761589404 236 l 1,13,-1
 211 588 l 2,14,15
 218 616 218 616 230.5 633.5 c 128,-1,16
 243 651 243 651 278 651 c 2,17,-1
 401 651 l 2,18,19
 436 651 436 651 448.5 633 c 128,-1,20
 461 615 461 615 468 589 c 2,21,-1
 569.356435644 236 l 1,22,-1
 494 236 l 1,0,-1
EndSplineSet
Position2: "'ss11' Style Set 11 in Latin lookup 1 per glyph data 52" dx=283 dy=0 dh=566 dv=0
EndChar

StartChar: asciitilde
Encoding: 126 126 262
Width: 734
GlyphClass: 1
Flags: W
LayerCount: 2
Fore
SplineSet
599 332 m 1,0,1
 563.952380952 322.857142857 563.952380952 322.857142857 534.795918367 322.857142857 c 2,2,-1
 484.795918367 322.857142857 l 2,3,4
 462 322.857142857 462 322.857142857 422.5 328.5 c 2,5,-1
 364 337 l 1,6,-1
 341 340 l 1,7,-1
 301 345 l 1,8,9
 263.737603282 350.822249487 263.737603282 350.822249487 238.0332316 352.627273586 c 0,10,11
 212.183866384 350.551073996 212.183866384 350.551073996 185 343 c 2,12,-1
 135 329.111111111 l 1,13,-1
 135 404 l 1,14,15
 172.885714286 414.523809524 172.885714286 414.523809524 207.761904762 414.523809524 c 2,16,-1
 257.761904762 414.523809524 l 2,17,18
 291.095238095 414.523809524 291.095238095 414.523809524 353 405 c 1,19,-1
 393 400 l 2,20,21
 434.4 394.6 434.4 394.6 461.994958973 390.000840171 c 128,-1,22
 489.589917946 385.401680342 489.589917946 385.401680342 503.492019632 384.069222883 c 0,23,24
 523.524128919 386.354120588 523.524128919 386.354120588 549 393 c 2,25,-1
 599 406.043478261 l 1,26,-1
 599 332 l 1,0,1
EndSplineSet
Position2: "'ss11' Style Set 11 in Latin lookup 1 per glyph data 44" dx=273 dy=0 dh=546 dv=0
EndChar

StartChar: partialdiff
Encoding: 8706 8706 263
Width: 692
GlyphClass: 1
Flags: W
LayerCount: 2
Fore
SplineSet
130 300 m 2,0,1
 130 338 130 338 144 360 c 128,-1,2
 158 382 158 382 181.5 392.5 c 128,-1,3
 205 403 205 403 237 405.5 c 128,-1,4
 269 408 269 408 306 408 c 2,5,-1
 356 408 l 2,6,7
 417 408 417 408 470 399.5 c 0,8,9
 481.849805702 397.599559463 481.849805702 397.599559463 492 394.024501806 c 1,10,-1
 492 490 l 2,11,12
 492 552 492 552 458.5 573.5 c 128,-1,13
 425 595 425 595 368 595 c 2,14,-1
 192 595 l 1,15,-1
 192 605 l 1,16,-1
 192 645 l 1,17,-1
 192 655 l 1,18,-1
 418 655 l 2,19,20
 481 655 481 655 516.5 630.5 c 128,-1,21
 552 606 552 606 552 540 c 2,22,-1
 552 162 l 2,23,24
 552 124 552 124 537 100.5 c 128,-1,25
 522 77 522 77 496 65 c 128,-1,26
 470 53 470 53 434.5 49.5 c 128,-1,27
 399 46 399 46 359 46 c 2,28,-1
 309 46 l 2,29,30
 272 46 272 46 239 50 c 128,-1,31
 206 54 206 54 182 66 c 128,-1,32
 158 78 158 78 144 101 c 128,-1,33
 130 124 130 124 130 162 c 2,34,-1
 130 300 l 2,0,1
190 212 m 2,35,36
 190 177 190 177 203.5 155.5 c 128,-1,37
 217 134 217 134 240 123 c 128,-1,38
 263 112 263 112 294 109 c 0,39,40
 313.888155417 107.075339798 313.888155417 107.075339798 335.011083117 106.38545145 c 0,41,42
 357.828724158 107.075339003 357.828724158 107.075339003 379 109 c 0,43,44
 412 112 412 112 437 122.5 c 128,-1,45
 462 133 462 133 477 154.5 c 128,-1,46
 492 176 492 176 492 212 c 2,47,-1
 492 253 l 2,48,49
 492 289 492 289 475.5 308.5 c 0,50,51
 444.747938751 344.843345112 444.747938751 344.843345112 372.5 347 c 0,52,53
 353.044961576 347.580747416 353.044961576 347.580747416 333.758556934 347.824227426 c 0,54,55
 312.730460043 347.486522847 312.730460043 347.486522847 287.865230022 346.243261423 c 128,-1,56
 263 345 263 345 240 335.5 c 128,-1,57
 217 326 217 326 203.5 306 c 128,-1,58
 190 286 190 286 190 250 c 2,59,-1
 190 212 l 2,35,36
EndSplineSet
Position2: "'ss11' Style Set 11 in Latin lookup 1 per glyph data 63" dx=294 dy=0 dh=588 dv=0
EndChar

StartChar: product
Encoding: 8719 8719 264
Width: 759
GlyphClass: 1
Flags: W
LayerCount: 2
Fore
SplineSet
202 65 m 1,0,-1
 162 65 l 1,1,-1
 152 65 l 1,2,-1
 152 655 l 1,3,-1
 606 655 l 1,4,-1
 606 65 l 1,5,-1
 596 65 l 1,6,-1
 556 65 l 1,7,-1
 546 65 l 1,8,-1
 546 595 l 1,9,-1
 212 595 l 1,10,-1
 212 65 l 1,11,-1
 202 65 l 1,0,-1
EndSplineSet
Position2: "'ss11' Style Set 11 in Latin lookup 1 per glyph data 33" dx=261 dy=0 dh=521 dv=0
EndChar

StartChar: summation
Encoding: 8721 8721 265
Width: 650
GlyphClass: 1
Flags: W
LayerCount: 2
Fore
SplineSet
181.542395586 43.8024845986 m 0,0,1
 188.894644919 36 188.894644919 36 205 36 c 2,2,-1
 539 36 l 1,3,-1
 539 26 l 1,4,-1
 539 -14 l 1,5,-1
 539 -24 l 1,6,-1
 155 -24 l 2,7,8
 135 -24 135 -24 125.5 -15 c 128,-1,9
 116 -6 116 -6 116 10 c 2,10,-1
 116 60 l 1,11,-1
 116 75 l 2,12,13
 116 91 116 91 124 100.5 c 128,-1,14
 132 110 132 110 145 123 c 0,15,16
 330.582706008 326.737535943 330.582706008 326.737535943 333.62307468 330.299250731 c 0,17,18
 331.998777539 332.025002879 331.998777539 332.025002879 163 497 c 0,19,20
 147 512 147 512 140.5 523.5 c 128,-1,21
 134 535 134 535 134 554 c 2,22,-1
 134 604 l 1,23,-1
 134 619 l 2,24,25
 134 635 134 635 145.5 647.5 c 128,-1,26
 157 660 157 660 175 660 c 2,27,-1
 521 660 l 1,28,-1
 521 650 l 1,29,-1
 521 610 l 1,30,-1
 521 600 l 1,31,-1
 225 600 l 2,32,33
 212 600 212 600 203 590.5 c 0,34,35
 199.57158355 586.88111597 199.57158355 586.88111597 197.449171473 582.899452948 c 0,36,37
 202.222333284 570.487076968 202.222333284 570.487076968 219 555 c 2,38,-1
 387 391 l 2,39,40
 397 381 397 381 401 374 c 128,-1,41
 405 367 405 367 405 358 c 2,42,-1
 405 302 l 2,43,44
 405 293 405 293 401 286 c 128,-1,45
 397 279 397 279 387 269 c 2,46,-1
 203 67 l 2,47,48
 192 54 192 54 187.329383002 49.6212965642 c 128,-1,49
 182.658766004 45.2425931283 182.658766004 45.2425931283 181.542395586 43.8024845986 c 0,0,1
EndSplineSet
Position2: "'ss11' Style Set 11 in Latin lookup 1 per glyph data 71" dx=315 dy=0 dh=630 dv=0
EndChar

StartChar: Delta
Encoding: 8710 8710 266
Width: 730
GlyphClass: 1
Flags: W
LayerCount: 2
Fore
SplineSet
137 65 m 1,0,-1
 137 218 l 2,1,2
 137 263.5 137 263.5 148 313 c 2,3,-1
 207 560 l 2,4,5
 215 593 215 593 223.5 611.5 c 128,-1,6
 232 630 232 630 243.5 638.5 c 128,-1,7
 255 647 255 647 271.5 648.5 c 128,-1,8
 288 650 288 650 311 650 c 2,9,-1
 412 650 l 2,10,11
 435 650 435 650 451 648.5 c 128,-1,12
 467 647 467 647 479 638.5 c 128,-1,13
 491 630 491 630 499.5 611.5 c 128,-1,14
 508 593 508 593 516 560 c 2,15,-1
 579 310 l 2,16,17
 589 270 589 270 589 218 c 2,18,-1
 589 65 l 1,19,-1
 137 65 l 1,0,-1
361 590 m 2,20,21
 340 590 340 590 325.5 588.5 c 128,-1,22
 311 587 311 587 300.5 579.5 c 128,-1,23
 290 572 290 572 282 555 c 128,-1,24
 274 538 274 538 267 508 c 2,25,-1
 208 261 l 2,26,27
 197 211.5 197 211.5 197 168 c 2,28,-1
 197 125 l 1,29,-1
 529 125 l 1,30,-1
 529 168 l 2,31,32
 529 218 529 218 519 258 c 2,33,-1
 456 508 l 2,34,35
 449 538 449 538 441 555 c 128,-1,36
 433 572 433 572 422.5 579.5 c 128,-1,37
 412 587 412 587 397.5 588.5 c 128,-1,38
 383 590 383 590 362 590 c 2,39,-1
 361 590 l 2,20,21
EndSplineSet
Position2: "'ss11' Style Set 11 in Latin lookup 1 per glyph data 46" dx=275 dy=0 dh=550 dv=0
EndChar

StartChar: Omega
Encoding: 8486 8486 267
Width: 777
GlyphClass: 1
Flags: W
LayerCount: 2
Fore
SplineSet
476 65 m 1,0,-1
 476 162 l 1,1,-1
 480 163 l 1,2,3
 531 179 531 179 543.5 207 c 128,-1,4
 556 235 556 235 556 288 c 2,5,-1
 556 482 l 2,6,7
 556 538 556 538 515.5 572.5 c 0,8,9
 479.736740162 602.964999121 479.736740162 602.964999121 388.999995683 606.52808006 c 1,10,11
 298.263258143 602.964997841 298.263258143 602.964997841 262.5 572.5 c 0,12,13
 222 538 222 538 222 482 c 2,14,-1
 222 288 l 2,15,16
 222 235 222 235 234.5 207 c 128,-1,17
 247 179 247 179 298 163 c 1,18,-1
 302 162 l 1,19,-1
 302 115 l 1,20,-1
 302 112 l 1,21,-1
 302 65 l 1,22,-1
 101 65 l 1,23,-1
 101 75 l 1,24,-1
 101 115 l 1,25,-1
 101 125 l 1,26,-1
 198.461008296 125 l 1,27,28
 182.777573188 136.476628882 182.777573188 136.476628882 176 151 c 0,29,30
 162 181 162 181 162 238 c 2,31,-1
 162 532 l 2,32,33
 162 592 162 592 204.5 629.5 c 128,-1,34
 247 667 247 667 364 667 c 2,35,-1
 414 667 l 2,36,37
 531 667 531 667 573.5 629.5 c 128,-1,38
 616 592 616 592 616 532 c 2,39,-1
 616 238 l 2,40,41
 616 181 616 181 602 150.5 c 0,42,43
 595.410230128 136.143715635 595.410230128 136.143715635 580.401314618 125 c 1,44,-1
 677 125 l 1,45,-1
 677 115 l 1,46,-1
 677 75 l 1,47,-1
 677 65 l 1,48,-1
 476 65 l 1,0,-1
EndSplineSet
Position2: "'ss11' Style Set 11 in Latin lookup 1 per glyph data 31" dx=252 dy=0 dh=503 dv=0
EndChar

StartChar: pi
Encoding: 960 960 268
Width: 721
GlyphClass: 1
Flags: W
LayerCount: 2
Fore
SplineSet
195 65 m 1,0,-1
 155 65 l 1,1,-1
 145 65 l 1,2,-1
 145 505 l 1,3,-1
 577 505 l 1,4,-1
 577 65 l 1,5,-1
 567 65 l 1,6,-1
 527 65 l 1,7,-1
 517 65 l 1,8,-1
 517 445 l 1,9,-1
 205 445 l 1,10,-1
 205 65 l 1,11,-1
 195 65 l 1,0,-1
EndSplineSet
Position2: "'ss11' Style Set 11 in Latin lookup 1 per glyph data 49" dx=280 dy=0 dh=559 dv=0
EndChar

StartChar: mu
Encoding: 181 181 269
Width: 713
GlyphClass: 1
Flags: W
LayerCount: 2
Fore
SplineSet
334 53 m 2,0,1
 247.807972797 53 247.807972797 53 205 77.4775020513 c 1,2,-1
 205 -25 l 1,3,-1
 195 -25 l 1,4,-1
 155 -25 l 1,5,-1
 145 -25 l 1,6,-1
 145 505 l 1,7,-1
 155 505 l 1,8,-1
 195 505 l 1,9,-1
 205 505 l 1,10,-1
 205 238 l 2,11,12
 205 182 205 182 242.5 147.5 c 0,13,14
 275.306379634 117.318130737 275.306379634 117.318130737 359.007829995 113.540470972 c 1,15,16
 442.818782409 117.318129817 442.818782409 117.318129817 476.5 147.5 c 0,17,18
 515 182 515 182 515 238 c 2,19,-1
 515 505 l 1,20,-1
 525 505 l 1,21,-1
 565 505 l 1,22,-1
 575 505 l 1,23,-1
 575 188 l 2,24,25
 575 128 575 128 534.5 90.5 c 128,-1,26
 494 53 494 53 384 53 c 2,27,-1
 334 53 l 2,0,1
EndSplineSet
Position2: "'ss11' Style Set 11 in Latin lookup 1 per glyph data 53" dx=284 dy=0 dh=567 dv=0
EndChar

StartChar: radical
Encoding: 8730 8730 270
Width: 741
GlyphClass: 1
Flags: W
LayerCount: 2
Fore
SplineSet
94 417 m 1,0,-1
 94 427 l 1,1,-1
 213 427 l 2,2,3
 223 427 223 427 228 423.5 c 128,-1,4
 233 420 233 420 237 410 c 2,5,-1
 336 136 l 2,6,7
 338 129 338 129 342 124.5 c 128,-1,8
 346 120 346 120 354 120 c 2,9,-1
 419 120 l 2,10,11
 426 120 426 120 431.5 123 c 128,-1,12
 437 126 437 126 439 136 c 2,13,-1
 581 745 l 1,14,-1
 591 745 l 1,15,-1
 631 745 l 1,16,-1
 641 745 l 1,17,-1
 652.620294599 745 l 1,18,-1
 499 84 l 2,19,20
 496 70 496 70 487.5 65 c 128,-1,21
 479 60 479 60 469 60 c 2,22,-1
 304 60 l 2,23,24
 291 60 291 60 285.5 66 c 128,-1,25
 280 72 280 72 276 82 c 2,26,-1
 177 356 l 2,27,28
 175 363 175 363 172 365 c 128,-1,29
 169 367 169 367 163 367 c 2,30,-1
 94 367 l 1,31,-1
 94 377 l 1,32,-1
 94 417 l 1,0,-1
419.000001066 110 m 1,33,-1
 469 110 l 1,34,-1
 419.000001066 110 l 1,33,-1
EndSplineSet
Position2: "'ss11' Style Set 11 in Latin lookup 1 per glyph data 41" dx=270 dy=0 dh=539 dv=0
EndChar

StartChar: infinity
Encoding: 8734 8734 271
Width: 878
GlyphClass: 1
Flags: W
LayerCount: 2
Fore
SplineSet
579 153 m 2,0,1
 506 153 506 153 476 174.5 c 0,2,3
 459.721874515 186.165989931 459.721874515 186.165989931 448.448877117 208.872703583 c 1,4,5
 438.354366817 191.991405054 438.354366817 191.991405054 421 180.5 c 0,6,7
 384 156 384 156 301 156 c 2,8,-1
 251 156 l 2,9,10
 170.076923077 156 170.076923077 156 135.5 185 c 0,11,12
 120 198 120 198 115 216 c 128,-1,13
 110 234 110 234 110 253 c 2,14,-1
 110 480 l 2,15,16
 110 495 110 495 115 513.5 c 128,-1,17
 120 532 120 532 135 547.5 c 128,-1,18
 150 563 150 563 177.5 573.5 c 128,-1,19
 205 584 205 584 250 584 c 2,20,-1
 300 584 l 2,21,22
 373 584 373 584 405.5 564.5 c 0,23,24
 421.550576408 554.869654155 421.550576408 554.869654155 432.84507276 536.09300051 c 1,25,26
 442.542911861 550.847141958 442.542911861 550.847141958 458 561.5 c 0,27,28
 495 587 495 587 578 587 c 2,29,-1
 628 587 l 2,30,31
 710.285714286 587 710.285714286 587 743.5 557 c 0,32,33
 759 543 759 543 764 525 c 128,-1,34
 769 507 769 507 769 488 c 2,35,-1
 769 258 l 2,36,37
 769 243 769 243 763.5 224.5 c 128,-1,38
 758 206 758 206 743 190 c 128,-1,39
 728 174 728 174 700.5 163.5 c 128,-1,40
 673 153 673 153 629 153 c 2,41,-1
 579 153 l 2,0,1
170 302.999997572 m 2,42,43
 170 266.99999914 170 266.99999914 195 241.5 c 0,44,45
 215.976265511 220.104209179 215.976265511 220.104209179 276.376863868 216.660569917 c 1,46,47
 332.384872775 219.724509123 332.384872775 219.724509123 362 237 c 0,48,49
 398 258 398 258 402 304 c 2,50,-1
 407.013752456 366.04518664 l 1,51,-1
 391 436 l 2,52,53
 379 489 379 489 348 506.5 c 0,54,55
 323.689631011 520.223595397 323.689631011 520.223595397 277.240047185 523.185072401 c 1,56,57
 222.489484789 519.024330141 222.489484789 519.024330141 194.5 492 c 0,58,59
 170 468.344827586 170 468.344827586 170 430 c 2,60,-1
 170 302.999997572 l 2,42,43
709 308 m 2,61,-1
 709 438.000004855 l 2,62,63
 709 474.000001787 709 474.000001787 684 500.5 c 0,64,65
 663.032004721 522.726074995 663.032004721 522.726074995 602.670757835 526.3107006 c 1,66,67
 546.62771633 523.105826615 546.62771633 523.105826615 517 505 c 0,68,69
 481 483 481 483 477 437 c 2,70,-1
 473.129860031 391.66407465 l 1,71,-1
 493 307 l 2,72,73
 505 253 505 253 533.5 233 c 0,74,75
 555.878900363 217.295508517 555.878900363 217.295508517 601.996039559 213.922569765 c 0,76,77
 625.946538804 215.960475149 625.946538804 215.960475149 647.473269402 223.980237575 c 128,-1,78
 669 232 669 232 683.5 246 c 128,-1,79
 698 260 698 260 703.5 276.5 c 128,-1,80
 709 293 709 293 709 308 c 2,61,-1
EndSplineSet
Position2: "'ss11' Style Set 11 in Latin lookup 1 per glyph data 24" dx=201 dy=0 dh=402 dv=0
EndChar

StartChar: lozenge
Encoding: 9674 9674 272
Width: 731
GlyphClass: 1
Flags: W
LayerCount: 2
Fore
SplineSet
450 648 m 2,0,1
 463 648 463 648 471.5 642.5 c 128,-1,2
 480 637 480 637 486 624 c 2,3,-1
 574 430 l 2,4,5
 580 417 580 417 581.5 409.5 c 128,-1,6
 583 402 583 402 583 392 c 2,7,-1
 583 328 l 2,8,9
 583 317 583 317 581.5 309.5 c 128,-1,10
 580 302 580 302 574 289 c 2,11,-1
 487 96 l 2,12,13
 481 83 481 83 472.5 77.5 c 128,-1,14
 464 72 464 72 450 72 c 2,15,-1
 279 72 l 2,16,17
 266 72 266 72 257.5 77.5 c 128,-1,18
 249 83 249 83 243 96 c 2,19,-1
 156 289 l 2,20,21
 150 302 150 302 148.5 309.5 c 128,-1,22
 147 317 147 317 147 328 c 2,23,-1
 147 378 l 1,24,-1
 147 392 l 2,25,26
 147 402 147 402 148.5 409.5 c 128,-1,27
 150 417 150 417 156 430 c 2,28,-1
 243 624 l 2,29,30
 249 637 249 637 257.5 642.5 c 128,-1,31
 266 648 266 648 280 648 c 2,32,-1
 450 648 l 2,0,1
329 132 m 2,33,-1
 400 132 l 2,34,35
 411 132 411 132 417 136 c 128,-1,36
 423 140 423 140 427 150 c 2,37,-1
 514 343 l 2,38,39
 519.130261766 353.260523531 519.130261766 353.260523531 520.970575556 359.499999162 c 0,40,41
 519.130262208 365.739475163 519.130262208 365.739475163 514 376 c 2,42,-1
 426 570 l 2,43,44
 422 580 422 580 416 584 c 128,-1,45
 410 588 410 588 400 588 c 2,46,-1
 329.999996291 588 l 2,47,48
 318.999998988 588 318.999998988 588 313 584 c 128,-1,49
 307 580 307 580 303 570 c 2,50,-1
 216 376 l 2,51,52
 210.869736828 365.739473655 210.869736828 365.739473655 209.029424541 359.499997091 c 0,53,54
 210.869738362 353.260521814 210.869738362 353.260521814 216 343 c 2,55,-1
 303 150 l 2,56,57
 307 140 307 140 313 136 c 128,-1,58
 319 132 319 132 329 132 c 2,33,-1
EndSplineSet
Position2: "'ss11' Style Set 11 in Latin lookup 1 per glyph data 45" dx=275 dy=0 dh=549 dv=0
EndChar

StartChar: integral
Encoding: 8747 8747 273
Width: 474
GlyphClass: 1
Flags: W
LayerCount: 2
Fore
SplineSet
334 743 m 0,0,1
 277 743 277 743 242 717 c 128,-1,2
 207 691 207 691 207 622 c 2,3,-1
 207 161 l 2,4,5
 207 83 207 83 181 60 c 128,-1,6
 155 37 155 37 80 37 c 1,7,-1
 80 -23 l 1,8,-1
 130 -23 l 2,9,10
 211 -23 211 -23 239 2 c 128,-1,11
 267 27 267 27 267 111 c 2,12,-1
 267 572 l 2,13,14
 267 636 267 636 300 659.5 c 128,-1,15
 333 683 333 683 384 683 c 1,16,-1
 384 743 l 1,17,-1
 334 743 l 1025,18,-1
EndSplineSet
Position2: "'ss11' Style Set 11 in Latin lookup 1 per glyph data 106" dx=403 dy=0 dh=806 dv=0
EndChar

StartChar: dollar
Encoding: 36 36 274
Width: 650
GlyphClass: 1
Flags: W
LayerCount: 2
Fore
SplineSet
195 482 m 2,0,1
 195 447 195 447 209 433 c 128,-1,2
 223 419 223 419 246 415 c 2,3,-1
 457 372 l 2,4,5
 487 366 487 366 506.5 346 c 128,-1,6
 526 326 526 326 526 274 c 2,7,-1
 526 166 l 2,8,9
 526 122 526 122 496 93.5 c 128,-1,10
 466 65 466 65 415 65 c 2,11,-1
 363 65 l 1,12,-1
 363 -25 l 1,13,-1
 353 -25 l 1,14,-1
 313 -25 l 1,15,-1
 303 -25 l 1,16,-1
 303 65 l 1,17,-1
 116 65 l 1,18,-1
 116 75 l 1,19,-1
 116 115 l 1,20,-1
 116 125 l 1,21,-1
 365 125 l 2,22,23
 411 125 411 125 438.5 150.5 c 128,-1,24
 466 176 466 176 466 216 c 2,25,-1
 466 224 l 2,26,27
 466 271 466 271 449.5 288.5 c 128,-1,28
 433 306 433 306 405 312 c 2,29,-1
 194 355 l 2,30,31
 168 360 168 360 151.5 375.5 c 128,-1,32
 135 391 135 391 135 432 c 2,33,-1
 135 564 l 2,34,35
 135 604 135 604 163 629.5 c 128,-1,36
 191 655 191 655 237 655 c 2,37,-1
 287 655 l 1,38,-1
 303 655 l 1,39,-1
 303 745 l 1,40,-1
 313 745 l 1,41,-1
 353 745 l 1,42,-1
 363 745 l 1,43,-1
 363 655 l 1,44,-1
 509 655 l 1,45,-1
 509 645 l 1,46,-1
 509 605 l 1,47,-1
 509 595 l 1,48,-1
 287 595 l 2,49,50
 245 595 245 595 220 572 c 128,-1,51
 195 549 195 549 195 514 c 2,52,-1
 195 482 l 2,0,1
EndSplineSet
Position2: "'ss11' Style Set 11 in Latin lookup 1 per glyph data 71" dx=315 dy=0 dh=630 dv=0
EndChar

StartChar: cent
Encoding: 162 162 275
Width: 628
GlyphClass: 1
Flags: W
LayerCount: 2
Fore
SplineSet
343 15 m 1,0,-1
 333 15 l 1,1,-1
 333 65 l 1,2,-1
 333 106 l 1,3,-1
 301 106 l 2,4,5
 204 106 204 106 172.5 136 c 128,-1,6
 141 166 141 166 141 235 c 2,7,-1
 141 482 l 2,8,9
 141 553 141 553 173 583 c 128,-1,10
 205 613 205 613 301 613 c 2,11,-1
 333 613 l 1,12,-1
 333 705 l 1,13,-1
 343 705 l 1,14,-1
 383 705 l 1,15,-1
 393 705 l 1,16,-1
 393 613 l 1,17,-1
 518 613 l 1,18,-1
 518 603 l 1,19,-1
 518 563 l 1,20,-1
 518 553 l 1,21,-1
 351 553 l 2,22,23
 263 553 263 553 232 525.5 c 128,-1,24
 201 498 201 498 201 432 c 2,25,-1
 201 285 l 2,26,27
 201 220 201 220 231 193 c 128,-1,28
 261 166 261 166 351 166 c 2,29,-1
 518 166 l 1,30,-1
 518 156 l 1,31,-1
 518 116 l 1,32,-1
 518 106 l 1,33,-1
 393 106 l 1,34,-1
 393 15 l 1,35,-1
 383 15 l 1,36,-1
 343 15 l 1,0,-1
EndSplineSet
Position2: "'ss11' Style Set 11 in Latin lookup 1 per glyph data 80" dx=326 dy=0 dh=652 dv=0
EndChar

StartChar: sterling
Encoding: 163 163 276
Width: 695
GlyphClass: 1
Flags: W
LayerCount: 2
Fore
SplineSet
521 262 m 1,0,-1
 561 262 l 1,1,-1
 571 262 l 1,2,-1
 571 65 l 1,3,-1
 153 65 l 1,4,-1
 153 324 l 1,5,-1
 85 324 l 1,6,-1
 85 334 l 1,7,-1
 85 374 l 1,8,-1
 85 384 l 1,9,-1
 153 384 l 1,10,-1
 153 541 l 2,11,12
 153 606 153 606 189.5 630.5 c 128,-1,13
 226 655 226 655 290 655 c 2,14,-1
 476 655 l 1,15,-1
 476 645 l 1,16,-1
 476 605 l 1,17,-1
 476 595 l 1,18,-1
 340 595 l 2,19,20
 282 595 282 595 247.5 573 c 128,-1,21
 213 551 213 551 213 491 c 2,22,-1
 213 384 l 1,23,-1
 315 384 l 1,24,-1
 315 374 l 1,25,-1
 315 334 l 1,26,-1
 315 324 l 1,27,-1
 213 324 l 1,28,-1
 213 125 l 1,29,-1
 511 125 l 1,30,-1
 511 262 l 1,31,-1
 521 262 l 1,0,-1
EndSplineSet
Position2: "'ss11' Style Set 11 in Latin lookup 1 per glyph data 61" dx=293 dy=0 dh=585 dv=0
EndChar

StartChar: currency
Encoding: 164 164 277
Width: 821
GlyphClass: 1
Flags: W
LayerCount: 2
Fore
SplineSet
272 314.999994954 m 2,0,1
 272 286.999997882 272 286.999997882 279 263.5 c 128,-1,2
 286 240 286 240 304 223.5 c 0,3,4
 336.783797054 193.448186034 336.783797054 193.448186034 412.774151387 189.606196007 c 1,5,6
 488.255970639 193.484639752 488.255970639 193.484639752 521 223.5 c 0,7,8
 539 240 539 240 546 263.5 c 128,-1,9
 553 287 553 287 553 315 c 2,10,-1
 553 407.000007392 l 2,11,12
 553 436.000002995 553 436.000002995 546 459.5 c 128,-1,13
 539 483 539 483 521 499.5 c 0,14,15
 488.255969562 529.515361235 488.255969562 529.515361235 412.774146419 533.393803995 c 1,16,17
 336.783796009 529.551813008 336.783796009 529.551813008 304 499.5 c 0,18,19
 286 483 286 483 279 459.5 c 128,-1,20
 272 436 272 436 272 407 c 2,21,-1
 272 314.999994954 l 2,0,1
272 314.999994954 m 1,22,-1
 272 265 l 1,23,-1
 272 314.999994954 l 1,22,-1
608.868677573 501.163755819 m 1,24,25
 613 480.567160017 613 480.567160017 613 457 c 2,26,-1
 613 265 l 2,27,28
 613 243.341364113 613 243.341364113 609.607773183 224.105747382 c 1,29,-1
 719.23179792 112.17384844 l 1,30,-1
 691 91 l 1,31,-1
 683 85 l 1,32,-1
 654.165644172 63.3742331288 l 1,33,-1
 564.014684676 155.484996092 l 1,34,35
 552.088290279 148.158108855 552.088290279 148.158108855 537 142.5 c 0,36,37
 501 129 501 129 438 129 c 2,38,-1
 388 129 l 2,39,40
 325 129 325 129 288.5 142.5 c 0,41,42
 273.465274231 148.060788983 273.465274231 148.060788983 261.73911524 155.233443832 c 1,43,-1
 171.834355828 63.3742331288 l 1,44,-1
 143 85 l 1,45,-1
 135 91 l 1,46,-1
 106.771771772 112.171171171 l 1,47,-1
 215.468478086 223.180573364 l 1,48,49
 212 243 212 243 212 265 c 2,50,-1
 212 457 l 2,51,52
 212 480.934176578 212 480.934176578 216.21136748 502.085162251 c 1,53,-1
 108.775417299 611.831562974 l 1,54,-1
 137 633 l 1,55,-1
 145 639 l 1,56,-1
 173.837209302 660.627906977 l 1,57,-1
 263.669596894 568.821181196 l 1,58,59
 275.52852828 575.667695004 275.52852828 575.667695004 290.5 581 c 0,60,61
 327 594 327 594 388 594 c 2,62,-1
 438 594 l 2,63,64
 499 594 499 594 535.5 581 c 0,65,66
 550.46643892 575.669487508 550.46643892 575.669487508 562.154297444 568.657651736 c 1,67,-1
 652.165644172 660.625766871 l 1,68,-1
 681 639 l 1,69,-1
 689 633 l 1,70,-1
 717.228228228 611.828828829 l 1,71,-1
 608.868677573 501.163755819 l 1,24,25
EndSplineSet
Position2: "'ss11' Style Set 11 in Latin lookup 1 per glyph data 28" dx=230 dy=0 dh=459 dv=0
EndChar

StartChar: yen
Encoding: 165 165 278
Width: 703
GlyphClass: 1
Flags: W
LayerCount: 2
Fore
SplineSet
544 234 m 1,0,-1
 544 194 l 1,1,-1
 544 184 l 1,2,-1
 383 184 l 1,3,-1
 383 65 l 1,4,-1
 373 65 l 1,5,-1
 333 65 l 1,6,-1
 323 65 l 1,7,-1
 323 184 l 1,8,-1
 160 184 l 1,9,-1
 160 194 l 1,10,-1
 160 234 l 1,11,-1
 160 244 l 1,12,-1
 323 244 l 1,13,-1
 323 284 l 1,14,-1
 305 284 l 2,15,16
 283 284 283 284 267.5 292.5 c 128,-1,17
 252 301 252 301 236 323 c 2,18,-1
 150 438 l 1,19,20
 137 460 137 460 132.5 480.5 c 128,-1,21
 128 501 128 501 128 535 c 2,22,-1
 128 655 l 1,23,-1
 138 655 l 1,24,-1
 178 655 l 1,25,-1
 188 655 l 1,26,-1
 188 585 l 2,27,28
 188 553 188 553 192 534 c 128,-1,29
 196 515 196 515 208 494 c 1,30,-1
 294 379 l 2,31,32
 309 360 309 360 322.231979878 352.158826739 c 128,-1,33
 335.463959756 344.317653478 335.463959756 344.317653478 353.499817343 344.012609878 c 0,34,35
 371.535909005 344.317578764 371.535909005 344.317578764 384.767954502 352.158789382 c 128,-1,36
 398 360 398 360 413 379 c 2,37,-1
 499 494 l 1,38,39
 511 515 511 515 515 534 c 128,-1,40
 519 553 519 553 519 585 c 2,41,-1
 519 655 l 1,42,-1
 529 655 l 1,43,-1
 569 655 l 1,44,-1
 579 655 l 1,45,-1
 579 535 l 2,46,47
 579 501 579 501 574.5 480.5 c 128,-1,48
 570 460 570 460 557 438 c 1,49,-1
 471 323 l 2,50,51
 455 301 455 301 439.5 292.5 c 128,-1,52
 424 284 424 284 402 284 c 2,53,-1
 383 284 l 1,54,-1
 383 244 l 1,55,-1
 544 244 l 1,56,-1
 544 234 l 1,0,-1
EndSplineSet
Position2: "'ss11' Style Set 11 in Latin lookup 1 per glyph data 60" dx=289 dy=0 dh=577 dv=0
EndChar

StartChar: Euro
Encoding: 8364 8364 279
Width: 648
GlyphClass: 1
Flags: W
LayerCount: 2
Fore
SplineSet
317 65 m 2,0,1
 220 65 220 65 188.5 95 c 128,-1,2
 157 125 157 125 157 194 c 2,3,-1
 157 248 l 1,4,-1
 85 248 l 1,5,-1
 85 258 l 1,6,-1
 85 298 l 1,7,-1
 85 308 l 1,8,-1
 157 308 l 1,9,-1
 157 408 l 1,10,-1
 85 408 l 1,11,-1
 85 418 l 1,12,-1
 85 458 l 1,13,-1
 85 468 l 1,14,-1
 157 468 l 1,15,-1
 157 524 l 2,16,17
 157 595 157 595 189 625 c 128,-1,18
 221 655 221 655 317 655 c 2,19,-1
 539 655 l 1,20,-1
 539 645 l 1,21,-1
 539 605 l 1,22,-1
 539 595 l 1,23,-1
 367 595 l 2,24,25
 279 595 279 595 248 567.5 c 128,-1,26
 217 540 217 540 217 474 c 2,27,-1
 217 468 l 1,28,-1
 455 468 l 1,29,-1
 455 458 l 1,30,-1
 455 418 l 1,31,-1
 455 408 l 1,32,-1
 217 408 l 1,33,-1
 217 308 l 1,34,-1
 455 308 l 1,35,-1
 455 298 l 1,36,-1
 455 258 l 1,37,-1
 455 248 l 1,38,-1
 217 248 l 1,39,-1
 217 244 l 2,40,41
 217 179 217 179 247 152 c 128,-1,42
 277 125 277 125 367 125 c 2,43,-1
 539 125 l 1,44,-1
 539 115 l 1,45,-1
 539 75 l 1,46,-1
 539 65 l 1,47,-1
 317 65 l 2,0,1
EndSplineSet
Position2: "'ss11' Style Set 11 in Latin lookup 1 per glyph data 73" dx=316 dy=0 dh=632 dv=0
EndChar

StartChar: florin
Encoding: 402 402 280
Width: 574
GlyphClass: 1
Flags: W
LayerCount: 2
Fore
SplineSet
110 115 m 1,0,-1
 110 125 l 1,1,-1
 120 125 l 2,2,3
 203 125 203 125 230 148 c 128,-1,4
 257 171 257 171 257 249 c 2,5,-1
 257 329 l 1,6,-1
 110 329 l 1,7,-1
 110 339 l 1,8,-1
 110 379 l 1,9,-1
 110 389 l 1,10,-1
 257 389 l 1,11,-1
 257 534 l 2,12,13
 257 603 257 603 293 629 c 128,-1,14
 329 655 329 655 394 655 c 2,15,-1
 414 655 l 1,16,-1
 444 655 l 1,17,-1
 464 655 l 1,18,-1
 464 645 l 1,19,-1
 464 605 l 1,20,-1
 464 595 l 1,21,-1
 444 595 l 2,22,23
 385 595 385 595 351 571.5 c 128,-1,24
 317 548 317 548 317 484 c 2,25,-1
 317 389 l 1,26,-1
 464 389 l 1,27,-1
 464 379 l 1,28,-1
 464 339 l 1,29,-1
 464 329 l 1,30,-1
 317 329 l 1,31,-1
 317 199 l 2,32,33
 317 115 317 115 287.5 90 c 128,-1,34
 258 65 258 65 170 65 c 2,35,-1
 160 65 l 1,36,-1
 120 65 l 1,37,-1
 110 65 l 1,38,-1
 110 75 l 1,39,-1
 110 115 l 1,0,-1
EndSplineSet
Position2: "'ss11' Style Set 11 in Latin lookup 1 per glyph data 88" dx=353 dy=0 dh=706 dv=0
EndChar

StartChar: registered
Encoding: 174 174 281
Width: 560
GlyphClass: 1
Flags: W
LayerCount: 2
Fore
SplineSet
368 486.92657274 m 1,0,1
 397 477.754953037 397 477.754953037 397 443 c 2,2,-1
 397 336 l 1,3,-1
 387 336 l 1,4,-1
 347 336 l 1,5,-1
 337 336 l 1,6,-1
 337 393 l 2,7,8
 337 411 337 411 326 420.5 c 128,-1,9
 315 430 315 430 295 430 c 2,10,-1
 232 430 l 1,11,-1
 232 336 l 1,12,-1
 222 336 l 1,13,-1
 182 336 l 1,14,-1
 172 336 l 1,15,-1
 172 614 l 1,16,-1
 301 614 l 2,17,18
 335 614 335 614 351.5 598.5 c 128,-1,19
 368 583 368 583 368 559 c 2,20,-1
 368 486.92657274 l 1,0,1
504 323 m 2,21,22
 504 294 504 294 496 270.5 c 128,-1,23
 488 247 488 247 466 230.5 c 0,24,25
 421.333333333 197 421.333333333 197 305 197 c 2,26,-1
 255 197 l 2,27,28
 139.666666667 197 139.666666667 197 95 230.5 c 0,29,30
 73 247 73 247 64.5 270.5 c 128,-1,31
 56 294 56 294 56 323 c 2,32,-1
 56 613 l 2,33,34
 56 643 56 643 64.5 667 c 128,-1,35
 73 691 73 691 95 707.5 c 0,36,37
 139.666666667 741 139.666666667 741 255 741 c 2,38,-1
 305 741 l 2,39,40
 421.333333333 741 421.333333333 741 466 707.5 c 0,41,42
 488 691 488 691 496 667 c 128,-1,43
 504 643 504 643 504 613 c 2,44,-1
 504 323 l 2,21,22
251 554 m 2,45,-1
 232 554 l 1,46,-1
 232 490 l 1,47,-1
 251 490 l 2,48,49
 284 490 284 490 296 500.5 c 0,50,51
 304.476791543 507.9171926 304.476791543 507.9171926 306.965583594 519.575884881 c 1,52,53
 304.127140933 533.205124696 304.127140933 533.205124696 293.5 542 c 0,54,55
 279 554 279 554 251 554 c 2,45,-1
116 373 m 2,56,57
 116 317 116 317 154.5 287 c 0,58,59
 188.529931285 260.483170428 188.529931285 260.483170428 279.983146362 257.404415774 c 0,60,61
 319.591818257 258.741584882 319.591818257 258.741584882 352.295909128 265.370792441 c 128,-1,62
 385 272 385 272 406 287 c 128,-1,63
 427 302 427 302 435.5 323.5 c 128,-1,64
 444 345 444 345 444 373 c 2,65,-1
 444 563 l 2,66,67
 444 592 444 592 435.5 614 c 128,-1,68
 427 636 427 636 406 651 c 128,-1,69
 385 666 385 666 352.313690244 672.625603329 c 128,-1,70
 319.627380488 679.251206658 319.627380488 679.251206658 280.082295514 680.592229666 c 0,71,72
 188.548374946 677.47338786 188.548374946 677.47338786 154.5 650.5 c 0,73,74
 116 620 116 620 116 563 c 2,75,-1
 116 373 l 2,56,57
EndSplineSet
Position2: "'ss11' Style Set 11 in Latin lookup 1 per glyph data 90" dx=360 dy=0 dh=720 dv=0
EndChar

StartChar: trademark
Encoding: 8482 8482 282
Width: 903
GlyphClass: 1
Flags: W
LayerCount: 2
Fore
SplineSet
476 324 m 1,0,-1
 466 324 l 1,1,-1
 466 669 l 2,2,3
 466 678 466 678 471.5 683 c 0,4,5
 480.880904923 688.039067172 480.880904923 688.039067172 482.347667929 688.039067172 c 128,-1,6
 483.814430935 688.039067172 483.814430935 688.039067172 484 688 c 2,7,-1
 541 688 l 2,8,9
 555.714285714 688 555.714285714 688 562 677 c 1,10,-1
 638.119583245 570.267106102 l 1,11,-1
 714 677 l 2,12,13
 718 684 718 684 724 686 c 0,14,15
 732.608888889 688 732.608888889 688 733.723429355 688 c 2,16,17
 733.723429355 688 733.723429355 688 792 688 c 0,18,19
 799 688 799 688 804.5 683 c 128,-1,20
 810 678 810 678 810 669 c 2,21,-1
 810 324 l 1,22,-1
 800 324 l 1,23,-1
 760 324 l 1,24,-1
 750 324 l 1,25,-1
 750 590.054945055 l 1,26,-1
 681 493 l 2,27,28
 677 488 677 488 674 485 c 128,-1,29
 671 482 671 482 664 482 c 2,30,-1
 614 482 l 1,31,-1
 612 482 l 2,32,33
 607 482 607 482 603.5 484 c 128,-1,34
 600 486 600 486 596 492 c 2,35,-1
 526 590.152173913 l 1,36,-1
 526 324 l 1,37,-1
 516 324 l 1,38,-1
 476 324 l 1,0,-1
218 324 m 1,39,-1
 178 324 l 1,40,-1
 168 324 l 1,41,-1
 168 628 l 1,42,-1
 33 628 l 1,43,-1
 33 638 l 1,44,-1
 33 678 l 1,45,-1
 33 688 l 1,46,-1
 366 688 l 1,47,-1
 366 678 l 1,48,-1
 366 638 l 1,49,-1
 366 628 l 1,50,-1
 228 628 l 1,51,-1
 228 324 l 1,52,-1
 218 324 l 1,39,-1
EndSplineSet
Position2: "'ss11' Style Set 11 in Latin lookup 1 per glyph data 22" dx=189 dy=0 dh=377 dv=0
EndChar

StartChar: degree
Encoding: 176 176 283
Width: 483
GlyphClass: 1
Flags: W
LayerCount: 2
Fore
SplineSet
395 606 m 2,0,-1
 395 427 l 2,1,2
 395 384 395 384 368 366 c 128,-1,3
 341 348 341 348 267 348 c 2,4,-1
 217 348 l 2,5,6
 144 348 144 348 116.5 366 c 128,-1,7
 89 384 89 384 89 427 c 2,8,-1
 89 606 l 2,9,10
 89 649 89 649 116.5 667.5 c 128,-1,11
 144 686 144 686 217 686 c 2,12,-1
 267 686 l 2,13,14
 341 686 341 686 368 667.5 c 128,-1,15
 395 649 395 649 395 606 c 2,0,-1
335 477 m 2,16,-1
 335 556.000003647 l 2,17,18
 335 595.000000725 335 595.000000725 309 610.5 c 0,19,20
 288.244854435 622.873259856 288.244854435 622.873259856 242.000000739 625.369257851 c 1,21,22
 195.755145895 622.873260014 195.755145895 622.873260014 175 610.5 c 0,23,24
 149 595 149 595 149 556 c 2,25,-1
 149 477 l 2,26,27
 149 438 149 438 175 423 c 0,28,29
 195.755145565 411.025877559 195.755145565 411.025877559 241.99999926 408.610395628 c 1,30,31
 288.244854105 411.025877406 288.244854105 411.025877406 309 423 c 0,32,33
 335 438 335 438 335 477 c 2,16,-1
139 476.999997235 m 1,34,-1
 139 427 l 1,35,-1
 139 476.999997235 l 1,34,-1
EndSplineSet
Position2: "'ss11' Style Set 11 in Latin lookup 1 per glyph data 104" dx=399 dy=0 dh=797 dv=0
EndChar

StartChar: copyright
Encoding: 169 169 284
Width: 867
GlyphClass: 1
Flags: W
LayerCount: 2
Fore
SplineSet
576 148 m 1,0,-1
 405 148 l 2,1,2
 336 148 336 148 312 169.5 c 128,-1,3
 288 191 288 191 288 242 c 2,4,-1
 288 493 l 2,5,6
 288 544 288 544 313 565.5 c 128,-1,7
 338 587 338 587 405 587 c 2,8,-1
 576 587 l 1,9,-1
 576 578 l 1,10,-1
 576 537 l 1,11,-1
 576 528 l 1,12,-1
 455 528 l 2,13,14
 393 528 393 528 370.5 508.5 c 128,-1,15
 348 489 348 489 348 443 c 2,16,-1
 348 292 l 2,17,18
 348 246 348 246 370 227 c 128,-1,19
 392 208 392 208 455 208 c 2,20,-1
 576 208 l 1,21,-1
 576 198 l 1,22,-1
 576 158 l 1,23,-1
 576 148 l 1,0,-1
787 125 m 2,24,25
 787 87 787 87 775 51 c 128,-1,26
 763 15 763 15 728 -12.5 c 128,-1,27
 693 -40 693 -40 628.5 -56.5 c 128,-1,28
 564 -73 564 -73 459 -73 c 2,29,-1
 409 -73 l 2,30,31
 304 -73 304 -73 239 -58 c 128,-1,32
 174 -43 174 -43 139 -16.5 c 128,-1,33
 104 10 104 10 92 46.5 c 128,-1,34
 80 83 80 83 80 125 c 2,35,-1
 80 593 l 2,36,37
 80 632 80 632 89.5 668 c 128,-1,38
 99 704 99 704 132.5 732 c 128,-1,39
 166 760 166 760 231.5 776.5 c 128,-1,40
 297 793 297 793 409 793 c 2,41,-1
 459 793 l 2,42,43
 571 793 571 793 636.5 776.5 c 128,-1,44
 702 760 702 760 735 732 c 128,-1,45
 768 704 768 704 777.5 668 c 128,-1,46
 787 632 787 632 787 593 c 2,47,-1
 787 125 l 2,24,25
140 174.99999609 m 2,48,49
 140 133.999998355 140 133.999998355 152.5 99.5 c 128,-1,50
 165 65 165 65 200 40 c 0,51,52
 269.325618553 -9.51829896642 269.325618553 -9.51829896642 433.37952311 -12.7536944686 c 1,53,54
 596.677207696 -9.37369854785 596.677207696 -9.37369854785 667.5 44 c 0,55,56
 702 70 702 70 714.5 104 c 128,-1,57
 727 138 727 138 727 175 c 2,58,-1
 727 543 l 2,59,60
 727 580 727 580 717.5 614.5 c 128,-1,61
 708 649 708 649 675 675.5 c 0,62,63
 607.695192992 729.547799567 607.695192992 729.547799567 433.999998806 732.773617502 c 1,64,65
 260.304806586 729.547799228 260.304806586 729.547799228 193 675.5 c 0,66,67
 160 649 160 649 150 614.5 c 128,-1,68
 140 580 140 580 140 543 c 2,69,-1
 140 174.99999609 l 2,48,49
140 174.99999609 m 1,70,-1
 140 125 l 1,71,-1
 140 174.99999609 l 1,70,-1
EndSplineSet
Position2: "'ss11' Style Set 11 in Latin lookup 1 per glyph data 25" dx=207 dy=0 dh=413 dv=0
EndChar

